<svg xmlns="http://www.w3.org/2000/svg" xmlns:xlink="http://www.w3.org/1999/xlink" viewBox="0 0 1799 513"><defs><style>.cls-1,.cls-2,.cls-4,.cls-5,.cls-6{stroke:#000;stroke-miterlimit:10;}.cls-1{fill:url(#linear-gradient);}.cls-2{fill:#feda4b;}.cls-3{fill:#fff;}.cls-4{fill:none;}.cls-4,.cls-5{stroke-width:3px;}</style><linearGradient id="linear-gradient" x1="899.07" y1="276.24" x2="916.93" y2="-537.07" gradientUnits="userSpaceOnUse"><stop offset="0.03" stop-color="#bdccd4"/><stop offset="0.06" stop-color="#b5c1ce"/><stop offset="0.18" stop-color="#999ab8"/><stop offset="0.29" stop-color="#837ca7"/><stop offset="0.4" stop-color="#73669b"/><stop offset="0.51" stop-color="#695893"/><stop offset="0.61" stop-color="#665491"/></linearGradient></defs><g id="Layer_1" data-name="Layer 1"><rect class="cls-1" x="0.5" y="0.5" width="1798" height="512"/><rect class="cls-2" x="34.5" y="51.5" width="288" height="76"/><path d="M57.45,78.32a1.86,1.86,0,0,1,1.9-1.18,6.27,6.27,0,0,1,1.6.25c.49.13.83.86,1,2.2,0,.23.06.46.07.7s.05.66.05,1c0,.15,0,.28,0,.41q0,1-.18,1h0s0,.06,0,.19,0,.26,0,.45c.07.67.22,1.89.47,3.67s.59,4.14,1,7.06q4.67-13.42,9-19.41,3.24,2.54,3.32,3.16v0s0,.1-.12.13q-.55.12-1.4,13.32-.77,11.27-.76,14.14c0,.19,0,.35,0,.49V106q0,.57-.42.57-1.1,0-3.45-2.55a1.46,1.46,0,0,1-.23-.71c0-.14,0-.3,0-.47,0-.48-.06-1.08-.06-1.81q0-3.23.52-9.6l-.63-1q-3.23,6.89-3.49,8.55a44.61,44.61,0,0,1-1,5.08c-.31.83-.8,1.25-1.48,1.25a3.87,3.87,0,0,1-.56,0c-1.09-.17-1.77-1.13-2-2.88a5.38,5.38,0,0,1-.06-.64c-.08-.88-.12-2.15-.13-3.82Q60.21,94,60,92l0-.3c0-.14,0-.27,0-.4a5.39,5.39,0,0,0-.08-.56c-.16-1.22-.59-1.83-1.27-1.83-.25,0-.73,2.58-1.42,7.74-.81,6-1.25,9.2-1.33,9.56-.1.52-.29.79-.55.79s-.78-.46-1.22-1.36a10,10,0,0,1-.91-3.1c0-.22,0-.43-.07-.64s0-.51,0-.75V101a102.56,102.56,0,0,1,2-12Q57,79.51,57.45,78.32Z" transform="translate(1 0)"/><path d="M91.56,90.25l.09.79c0,.48.06,1,.06,1.52A36,36,0,0,1,90,102.47,6,6,0,0,1,87.22,106a7.23,7.23,0,0,1-3.7,1.07A5.05,5.05,0,0,1,80,105.71a8.17,8.17,0,0,1-2.27-5q-.11-.81-.18-1.62c-.06-.78-.09-1.56-.09-2.33a27.36,27.36,0,0,1,.46-5,19,19,0,0,1,2.7-7.21c1.32-1.94,2.82-2.92,4.49-2.92q2.16,0,4,2.41A13.1,13.1,0,0,1,91.56,90.25ZM81.9,101.81a3,3,0,0,0,2.06.81q2,0,3.84-4.6a17.77,17.77,0,0,0,1.45-6.57q0-.51,0-1c0-.22,0-.42-.07-.6A4.55,4.55,0,0,0,87.67,87a3.19,3.19,0,0,0-2.12-.87q-2.68,0-4.2,4a16.53,16.53,0,0,0-1.06,6c0,.54,0,1.1.07,1.68,0,.38.08.78.13,1.2A4.41,4.41,0,0,0,81.9,101.81Z" transform="translate(1 0)"/><path d="M102,96.54q4.77,3.52,5.38,7.11l0,.08v.13c0,.07,0,.14,0,.21a3,3,0,0,1-.37,1.35c-.34.62-.67.93-1,.93-.16,0-.28-.13-.35-.4q-.7-3.3-5.67-7.93a5.3,5.3,0,0,1-1.8.68,18.23,18.23,0,0,0-.7,3.18,39.31,39.31,0,0,1-.82,4c-.29.78-.65,1.18-1.1,1.18s-.92-.39-1.4-1.16a4.63,4.63,0,0,1-.75-1.85v-.17a.37.37,0,0,1,.06-.24c.74-.77,1.43-3.39,2.07-7.89.29-2.44.59-4.89.88-7.33a3.68,3.68,0,0,0,0-.49c0-.23,0-.5,0-.79s0-.49-.08-.79c-.08-.56-.13-1-.16-1.39s0-.54,0-.72V84c0-1.09,1.34-2.16,4-3.23a3.52,3.52,0,0,1,1-.12,5.91,5.91,0,0,1,3.21.94,7,7,0,0,1,2.89,3.94,3.16,3.16,0,0,1,.13.53l0,.22c0,.11,0,.23,0,.36A10.37,10.37,0,0,1,106,91.3,20.36,20.36,0,0,1,102,96.54Zm-3.34-3.13c0,.11.12.17.28.17a4,4,0,0,0,1.86-.82,6.12,6.12,0,0,0,1.76-1.61c.5-.74,1-1.57,1.48-2.48a6.85,6.85,0,0,0,.94-2.53V86a.24.24,0,0,0,0-.15c-.22-.59-1-.88-2.38-.88a2.8,2.8,0,0,0-2.84,1.45,30.66,30.66,0,0,0-.66,3.39,26.84,26.84,0,0,0-.41,3.35v.26Z" transform="translate(1 0)"/><path d="M108,104.07q.12-3.58.86-11.34,1-10,1.8-10.48a17.06,17.06,0,0,1,3.14-1.19,14.31,14.31,0,0,1,3.67-.77q.64,0,.75.3a9.26,9.26,0,0,1,.57,2.16c0,.12,0,.24,0,.36s0,.29,0,.4a1.62,1.62,0,0,1-.23,1c-.17.25-1.23.56-3.18.94s-2.8.69-2.81.87-.07.87-.19,2.1L112.23,90l.06.13a13.53,13.53,0,0,1,1.67-.6,10.2,10.2,0,0,1,2.61-.59q.48,0,.54.21a9.38,9.38,0,0,0,.59,1.12,4.18,4.18,0,0,1,.58,1.38v.17a.64.64,0,0,1-.25.55,38.68,38.68,0,0,1-3.42,2c-1.9,1.05-2.85,1.59-2.86,1.62s-.25,1.9-.64,5.44q4.31-3.68,5.73-3.67a.45.45,0,0,1,.41.19,6.47,6.47,0,0,1,.9,1.66,7.87,7.87,0,0,1,.54,1.84c0,.08,0,.16,0,.23a1.16,1.16,0,0,1,0,.17.73.73,0,0,1-.09.41,22.28,22.28,0,0,1-4,2.69q-3.47,2.08-4.08,2.09a.11.11,0,0,1-.08,0c-1.53-.71-2.36-1.56-2.49-2.56v-.08A2.46,2.46,0,0,1,108,104.07Z" transform="translate(1 0)"/><path d="M134.89,94.77a7.83,7.83,0,0,0,0,.81c0,.36,0,.72.05,1.07s0,.46.08.68a10.44,10.44,0,0,0,1.25,3.76,2.16,2.16,0,0,0,2,1.11,2.69,2.69,0,0,0,2.15-1,3,3,0,0,0,.69-1.94c0-.11,0-.23,0-.34l0-.24a2.83,2.83,0,0,0-.07-.36L143,96.61a9.39,9.39,0,0,1,.92,3c0,.17,0,.32,0,.47a5.14,5.14,0,0,1,0,1.4,7,7,0,0,1-2.3,4A5.42,5.42,0,0,1,138,107a3.53,3.53,0,0,1-1.23-.22c-1-.37-1.83-1.4-2.58-3.09a21,21,0,0,1-1.48-5.5c-.07-.51-.13-1-.17-1.47s-.08-1.17-.08-1.71a13.08,13.08,0,0,1,.27-2.75,53.51,53.51,0,0,1,1.66-6.78Q136.08,81,138.57,81a4.89,4.89,0,0,1,3.57,1.65A6.06,6.06,0,0,1,143.89,86v0a3.73,3.73,0,0,1-.74,2.26c-.41.57-.74.85-1,.85a.25.25,0,0,1-.17-.06c-.77-2.73-1.76-4.1-3-4.1a1.25,1.25,0,0,0-.32.05c-.67.11-1.42,1.35-2.25,3.73A38.3,38.3,0,0,0,134.89,94.77Z" transform="translate(1 0)"/><path d="M159.9,90.25c0,.26.06.52.08.79,0,.48.06,1,.06,1.52a36.29,36.29,0,0,1-1.7,9.91,6,6,0,0,1-2.79,3.48,7.2,7.2,0,0,1-3.7,1.07,5,5,0,0,1-3.51-1.31,8.06,8.06,0,0,1-2.27-5c-.08-.54-.13-1.08-.18-1.62-.07-.78-.1-1.56-.1-2.33a27.37,27.37,0,0,1,.47-5,18.67,18.67,0,0,1,2.7-7.21c1.32-1.94,2.81-2.92,4.49-2.92q2.16,0,4,2.41A13.11,13.11,0,0,1,159.9,90.25Zm-9.67,11.56a3,3,0,0,0,2.06.81q2,0,3.85-4.6a18,18,0,0,0,1.45-6.57c0-.34,0-.66,0-1a5,5,0,0,0-.07-.6A4.55,4.55,0,0,0,156,87a3.16,3.16,0,0,0-2.11-.87q-2.7,0-4.21,4a16.75,16.75,0,0,0-1.06,6c0,.54,0,1.1.08,1.68,0,.38.07.78.13,1.2A4.45,4.45,0,0,0,150.23,101.81Z" transform="translate(1 0)"/><path d="M165.35,84.06a1.48,1.48,0,0,1,1.52-1,4.9,4.9,0,0,1,1.28.21c.39.1.67.68.82,1.75,0,.18,0,.38.06.58s0,.51,0,.76,0,.23,0,.34c0,.52-.07.77-.14.77h0s0,0,0,.15,0,.21,0,.36c.06.53.18,1.5.37,2.93s.48,3.32.85,5.65q3.72-10.73,7.19-15.53c1.72,1.35,2.6,2.19,2.65,2.52v0s0,.08-.1.11q-.45.1-1.11,10.66c-.42,6-.62,9.77-.62,11.3,0,.16,0,.3,0,.41v0c0,.32-.11.47-.33.47-.58,0-1.5-.68-2.77-2a1.32,1.32,0,0,1-.18-.57l0-.36c0-.4-.05-.89-.05-1.45q0-2.58.42-7.68l-.5-.86a41,41,0,0,0-2.8,6.85,36.26,36.26,0,0,1-.77,4.07c-.25.67-.64,1-1.19,1a2.47,2.47,0,0,1-.44,0c-.88-.12-1.42-.89-1.61-2.3,0-.14,0-.31-.05-.51-.06-.7-.1-1.71-.1-3-.1-2-.19-3.58-.28-4.65l0-.26,0-.32a3.42,3.42,0,0,0,0-.44c-.14-1-.48-1.45-1-1.45q-.3,0-1.13,6.18c-.65,4.81-1,7.35-1.07,7.64s-.23.64-.44.64-.62-.37-1-1.09a8.08,8.08,0,0,1-.72-2.48,4.43,4.43,0,0,1-.06-.51q0-.31,0-.6v-.14a81.67,81.67,0,0,1,1.59-9.64Q165,85,165.35,84.06Z" transform="translate(1 0)"/><path d="M183.93,81.85c.73-.06,1.67-.09,2.83-.09s2.53,0,4.11.09a10.41,10.41,0,0,1,1,3.16c0,.25.07.49.1.7s0,.36,0,.53v.11a1,1,0,0,1-.15.68,3.41,3.41,0,0,1-2.26.58l-.53,0q-1.74,12.06-1.74,13.73v.17l0,0a.15.15,0,0,0,0,.07.5.5,0,0,0,.3.06,8.89,8.89,0,0,0,2.2-.49l0,.17c.06.51.1,1,.11,1.41v.62c-.07,1.49-.45,2.29-1.14,2.41q-1.53.26-7,1.26v-.26c0-.28,0-.56,0-.81q0-.77,0-1.41c.06-1.66.27-2.52.63-2.56h1a.87.87,0,0,0,.85-.47,43.32,43.32,0,0,0,.93-5.77c.45-3.53.75-6.3.88-8.3v0c0-.16-.28-.24-.77-.24a17.62,17.62,0,0,0-3.11.41c.1-1.13.21-2.24.33-3.35C182.71,82.7,183.2,81.91,183.93,81.85Z" transform="translate(1 0)"/><path d="M196.58,83.07a1.5,1.5,0,0,0,.54-.44c.25-.26.44-.4.58-.4s.31.14.47.41A34.62,34.62,0,0,1,200.33,89c.87,3,1.65,6.06,2.32,9q0,.12.06.12c.14,0,.48-2.73,1-8.21s.9-8.23,1.09-8.27a1.5,1.5,0,0,1,.37,0,2.71,2.71,0,0,1,1.07.27,1.76,1.76,0,0,1,1.13,1.3v.09q0,1.06-1.43,11c-.89,6.13-1.33,9.6-1.33,10.43v.19a.24.24,0,0,1,0,.15v.09a.68.68,0,0,1-.19.44.71.71,0,0,1-.59.3c-.65,0-1.24-.7-1.75-2.11-.12-.33-.8-2.61-2-6.87Q198.64,92,198.24,92h0c-.27,0-.46.34-.57.88-.06.35-.12.71-.16,1.08s-.25,2.34-.56,6.25c-.27,3.43-.41,5.5-.41,6.23v.28c0,.2-.16.3-.47.3a1.9,1.9,0,0,1-1.34-.64,4,4,0,0,1-1-2.22l0-.15c.31-3.49.62-7,.93-10.43Q195.74,83.26,196.58,83.07Z" transform="translate(1 0)"/><path d="M215.53,93.11c.27-.16.58-.32.94-.49a13.77,13.77,0,0,0,5.57-2,.53.53,0,0,1,.3-.11c.23,0,.55,1,1,3a7.8,7.8,0,0,1-.53,2.79q-.61.35-1.17,2.76a26.2,26.2,0,0,1-1.38,4.67q-1.49,3.2-4.08,3.2a5.67,5.67,0,0,1-3.12-1.09,7.46,7.46,0,0,1-2.07-2,11.76,11.76,0,0,1-1.57-4.75c-.06-.39-.1-.78-.13-1.17-.06-.67-.09-1.38-.09-2.12a31.71,31.71,0,0,1,.22-3.66,24.68,24.68,0,0,1,.8-4.53,10.65,10.65,0,0,1,3.65-5.65,5.92,5.92,0,0,1,3.55-1.34l.33,0c1,0,2,.8,3,2.26A15.78,15.78,0,0,1,222,85.22l-.39,1c-.3.75-.54,1.33-.71,1.73l-.33.51v0a.14.14,0,0,0,0-.07c-.06-.47-.79-1.41-2.19-2.83a6.18,6.18,0,0,0-2.07.53,7,7,0,0,0-1.51,1.3A10.62,10.62,0,0,0,213,89.72a21.38,21.38,0,0,0-1.15,2.9,10.67,10.67,0,0,0-.48,3.16q0,.42,0,.87c0,.19,0,.38.07.6a7.79,7.79,0,0,0,1.63,4,3.78,3.78,0,0,0,3,1.6c.89,0,1.68-.93,2.38-2.79a9.79,9.79,0,0,0,.79-3.39c0-.11,0-.22,0-.32s0-.14,0-.19a8.35,8.35,0,0,0-2.34.55,2,2,0,0,1-.48.07,1.61,1.61,0,0,1-1.32-.79,3,3,0,0,1-.58-1.41.31.31,0,0,1,0-.13v-.06a.44.44,0,0,1,0-.19C214.57,93.86,214.91,93.51,215.53,93.11Z" transform="translate(1 0)"/><path d="M249.4,86.05a2.91,2.91,0,0,0,0,.32c0,.14,0,.27,0,.38a3.49,3.49,0,0,1-.29,1.46c-.29.61-.64.91-1,.91-.61,0-1-.64-1.3-1.94a2.21,2.21,0,0,0-1.06-1.34,3.37,3.37,0,0,0-1.88-.6,1.77,1.77,0,0,0-1.47.66l-1.62,1.69a3.17,3.17,0,0,0-.86,2V90l0,.15c.13.67.82,1,2.07,1,.23,0,1-.06,2.41-.17h.46q3.91,0,4.75,6.07c0,.36.1.81.14,1.35l0,.42a3.83,3.83,0,0,1,0,.47,8.94,8.94,0,0,1-1.62,4.91c-1.26,1.9-2.71,2.86-4.36,2.86-2.81,0-5-1.45-6.52-4.33a.41.41,0,0,1-.08-.22v-.15a3.33,3.33,0,0,1,.65-1.66c.49-.77.9-1.15,1.24-1.15.18,0,.3.13.36.38q.57,2.33,4.77,2.8l.32,0a1.86,1.86,0,0,0,1.82-1.26,8.68,8.68,0,0,0,.47-3.31c0-.28,0-.58,0-.89v-.17c-.1-.7-.65-1.23-1.64-1.6a9.15,9.15,0,0,0-3.06-.45,4,4,0,0,0-1.88.26.75.75,0,0,1-.37.08,2.72,2.72,0,0,1-1.67-.72,2.81,2.81,0,0,1-1.11-1.84l0-.06c0-.22,0-.42-.06-.62,0-.53-.07-1-.07-1.54a12.05,12.05,0,0,1,.25-2.51,8.21,8.21,0,0,1,1.13-2.8c.49-.62,1-1.25,1.43-1.87a4.12,4.12,0,0,1,1.74-1.2,7,7,0,0,1,2.86-.64,4.72,4.72,0,0,1,4.65,3.22A5.77,5.77,0,0,1,249.4,86.05Z" transform="translate(1 0)"/><path d="M265.74,90.25c0,.26.06.52.08.79,0,.48.06,1,.06,1.52a36.29,36.29,0,0,1-1.7,9.91,6,6,0,0,1-2.79,3.48,7.2,7.2,0,0,1-3.7,1.07,5,5,0,0,1-3.51-1.31,8.06,8.06,0,0,1-2.27-5q-.1-.81-.18-1.62c-.06-.78-.1-1.56-.1-2.33a27.37,27.37,0,0,1,.47-5,19,19,0,0,1,2.7-7.21c1.32-1.94,2.81-2.92,4.49-2.92,1.44,0,2.79.8,4,2.41A13.11,13.11,0,0,1,265.74,90.25Zm-9.67,11.56a3,3,0,0,0,2.06.81q2,0,3.85-4.6a18,18,0,0,0,1.45-6.57c0-.34,0-.66,0-1a5,5,0,0,0-.07-.6,4.54,4.54,0,0,0-1.47-2.9,3.21,3.21,0,0,0-2.12-.87q-2.7,0-4.2,4a16.53,16.53,0,0,0-1.06,6c0,.54,0,1.1.07,1.68,0,.38.07.78.13,1.2A4.45,4.45,0,0,0,256.07,101.81Z" transform="translate(1 0)"/><path d="M281.77,90.25c0,.26.06.52.08.79,0,.48.06,1,.06,1.52a35.91,35.91,0,0,1-1.7,9.91,6,6,0,0,1-2.78,3.48,7.23,7.23,0,0,1-3.7,1.07,5.05,5.05,0,0,1-3.52-1.31,8.17,8.17,0,0,1-2.27-5q-.1-.81-.18-1.62c-.06-.78-.09-1.56-.09-2.33a27.36,27.36,0,0,1,.46-5,19,19,0,0,1,2.7-7.21c1.32-1.94,2.82-2.92,4.49-2.92q2.16,0,4,2.41A13.1,13.1,0,0,1,281.77,90.25Zm-9.66,11.56a3,3,0,0,0,2.06.81q2,0,3.84-4.6a17.77,17.77,0,0,0,1.45-6.57q0-.51,0-1c0-.22,0-.42-.07-.6a4.55,4.55,0,0,0-1.48-2.9,3.19,3.19,0,0,0-2.12-.87q-2.68,0-4.2,4a16.53,16.53,0,0,0-1.06,6c0,.54,0,1.1.07,1.68,0,.38.08.78.13,1.2A4.41,4.41,0,0,0,272.11,101.81Z" transform="translate(1 0)"/><path d="M286.54,83.07a1.59,1.59,0,0,0,.55-.44c.24-.26.43-.4.57-.4s.32.14.47.41A33.82,33.82,0,0,1,290.29,89c.88,3,1.65,6.06,2.33,9,0,.08,0,.12.05.12s.48-2.73,1-8.21.89-8.23,1.08-8.27a1.5,1.5,0,0,1,.37,0,2.67,2.67,0,0,1,1.07.27,1.76,1.76,0,0,1,1.13,1.3v.09q0,1.06-1.43,11c-.89,6.13-1.33,9.6-1.33,10.43v.19a.25.25,0,0,1,.05.15v.09a.74.74,0,0,1-.19.44.71.71,0,0,1-.6.3c-.65,0-1.23-.7-1.75-2.11-.12-.33-.8-2.61-2-6.87Q288.6,92,288.2,92h0c-.28,0-.47.34-.57.88-.07.35-.12.71-.17,1.08s-.24,2.34-.56,6.25c-.27,3.43-.41,5.5-.41,6.23v.28c0,.2-.15.3-.47.3a1.88,1.88,0,0,1-1.33-.64,4,4,0,0,1-1-2.22l0-.15c.31-3.49.62-7,.93-10.43Q285.69,83.26,286.54,83.07Z" transform="translate(1 0)"/><path d="M302,98.93a4.08,4.08,0,0,1,1.69,3v.17c0,.13,0,.26,0,.4a7.37,7.37,0,0,1-.09,1.09l-.23.85a10.07,10.07,0,0,1-.83,1.73,1.84,1.84,0,0,1-1.28.88,1.27,1.27,0,0,1-.83-.32,4.66,4.66,0,0,1-1.2-2.67c0-.14,0-.28-.05-.41a4.78,4.78,0,0,1,0-.53,4.51,4.51,0,0,1,.29-1.66l.67-1.52.07-.17c.36-.59.74-.9,1.13-.91A2.16,2.16,0,0,1,302,98.93ZM301.51,86q.08-.8.69-9.22c.13-.66.75-1,1.85-1,.3,0,.92,0,1.88.13.56,0,1,.06,1.42.06a3.78,3.78,0,0,0,.5,0h.06c.52,0,.83.34.93,1v.18c0,.11,0,.23,0,.36,0,1.78-.91,4.87-2.72,9.3a71.31,71.31,0,0,0-1.69,8.66v.14a.3.3,0,0,0,0,.11s0,0,0,0-.29.13-.86.13-1.15,0-2-.08l-1.09-.09a11.89,11.89,0,0,0,.44-3.28Q301.4,87.07,301.51,86Z" transform="translate(1 0)"/><rect x="1.5" y="423.5" width="1797" height="88"/><path class="cls-3" d="M1797,424v87H1V424H1797m1-1H0v89H1798V423Z" transform="translate(1 0)"/><rect x="656.5" y="291.5" width="43" height="135"/><path d="M698,292V426H656V292h42m1-1H655V427h44V291Z" transform="translate(1 0)"/><rect x="625.5" y="359.5" width="334" height="67"/><path d="M958,360v66H625V360H958m1-1H624v68H959V359Z" transform="translate(1 0)"/><rect x="642.5" y="302.5" width="65" height="124"/><path d="M706,303V426H642V303h64m1-1H641V427h66V302Z" transform="translate(1 0)"/><rect x="717.5" y="258.5" width="59" height="168"/><path d="M775,259V426H717V259h58m1-1H716V427h60V258Z" transform="translate(1 0)"/><rect x="760.5" y="230.5" width="104" height="196"/><path d="M863,231V426H760V231H863m1-1H759V427H864V230Z" transform="translate(1 0)"/><rect x="809.5" y="107.5" width="48" height="319"/><path d="M856,108V426H809V108h47m1-1H808V427h49V107Z" transform="translate(1 0)"/><rect x="858.5" y="279.5" width="22" height="164"/><path d="M879,280V443H858V280h21m1-1H857V444h23V279Z" transform="translate(1 0)"/><rect x="865.5" y="322.5" width="112" height="112"/><path d="M976,323V434H865V323H976m1-1H864V435H977V322Z" transform="translate(1 0)"/><rect x="887.5" y="250.5" width="79" height="127"/><path d="M965,251V377H887V251h78m1-1H886V378h80V250Z" transform="translate(1 0)"/><rect x="912.5" y="161.5" width="54" height="113"/><path d="M965,162V274H912V162h53m1-1H911V275h55V161Z" transform="translate(1 0)"/><rect x="978.5" y="224.5" width="59" height="210"/><path d="M1036,225V434H978V225h58m1-1H977V435h60V224Z" transform="translate(1 0)"/><rect x="991.5" y="204.5" width="35" height="25"/><path d="M1025,205v24H991V205h34m1-1H990v26h36V204Z" transform="translate(1 0)"/><rect x="1008.5" y="250.5" width="73" height="188"/><path d="M1080,251V438h-72V251h72m1-1h-74V439h74V250Z" transform="translate(1 0)"/><rect x="1087.5" y="161.5" width="69" height="273"/><path d="M1155,162V434h-68V162h68m1-1h-70V435h70V161Z" transform="translate(1 0)"/><rect x="1069.5" y="334.5" width="221" height="92"/><path d="M1289,335v91H1069V335h220m1-1H1068v93h222V334Z" transform="translate(1 0)"/><rect x="1166.5" y="302.5" width="124" height="62"/><path d="M1289,303v61H1166V303h123m1-1H1165v63h125V302Z" transform="translate(1 0)"/><rect x="1212.5" y="204.5" width="90" height="222"/><path d="M1301,205V426h-89V205h89m1-1h-91V427h91V204Z" transform="translate(1 0)"/><rect x="1343.5" y="230.5" width="50" height="213"/><path d="M1392,231V443h-49V231h49m1-1h-51V444h51V230Z" transform="translate(1 0)"/><rect x="1291.5" y="359.5" width="507" height="152"/><path d="M1797,360V511H1291V360h506m1-1H1290V512h508V359Z" transform="translate(1 0)"/><rect x="1400.5" y="250.5" width="52" height="127"/><path d="M1451,251V377h-51V251h51m1-1h-53V378h53V250Z" transform="translate(1 0)"/><rect x="1531.5" y="127.5" width="54" height="316"/><path d="M1584,128V443h-53V128h53m1-1h-55V444h55V127Z" transform="translate(1 0)"/><rect x="1506.5" y="239.5" width="51" height="153"/><path d="M1556,240V392h-50V240h50m1-1h-52V393h52V239Z" transform="translate(1 0)"/><rect x="1564.5" y="286.5" width="57" height="106"/><path d="M1620,287V392h-56V287h56m1-1h-58V393h58V286Z" transform="translate(1 0)"/><rect x="1713.5" y="314.5" width="69" height="78"/><path d="M1781,315v77h-68V315h68m1-1h-70v79h70V314Z" transform="translate(1 0)"/><polygon points="964.05 162.63 939.52 162.66 914.98 162.69 927.22 141.43 939.47 120.17 951.76 141.4 964.05 162.63"/><rect x="1316" y="258" width="100" height="135" rx="12"/><rect x="1435" y="217" width="63" height="164"/><rect x="1637" y="239" width="98" height="142"/><ellipse cx="1257.5" cy="208" rx="45.5" ry="22"/><line class="cls-4" x1="939.5" y1="100.5" x2="939.5" y2="153.5"/><line class="cls-4" x1="1517.5" y1="216.5" x2="1517.5" y2="249.5"/><rect class="cls-5" x="469.5" y="313.5" width="134" height="113"/><rect class="cls-5" x="517.5" y="274.5" width="64" height="164"/><rect class="cls-5" x="595.5" y="397.5" width="46" height="46"/><path d="M150.67,277.55a119.34,119.34,0,0,0-8,21.82c-.53,2.08,0,5.32,2.09,4.92,1.75-.69,1.51-3.16,1.55-5,.09-3.25,2-6.15,3.77-8.86l13.35-20c2.23,4,.76,8.95-.41,13.38-7.15,27-1.31,56.26-9.41,83-1.15,3.79-2.58,7.5-4,11.2l.23.38c1,1.66,3.67,1.57,5.18.32s2.17-3.23,2.74-5.11c5.12-16.86,8.43-34.2,11.74-51.51l6.29,14.7c1.61,3.79,3.56,7.92,7.35,9.54,1.51.65,3.24.85,4.55,1.84a8.55,8.55,0,0,1,2.55,4.39c2.81,8.6,4.32,18,9.85,25.13a4.62,4.62,0,0,0,1.6,1.45c1.92.89,4.15-1.09,4.4-3.19s-.78-4.11-1.68-6a61,61,0,0,1-5.61-21.12,17.45,17.45,0,0,1,.57-7.16c1.65-4.74,6.47-7.57,11.16-9.36,8.35-3.19,17.31-4.39,26.19-5.41,4.17-.49,8.54-1,11.93-3.47l.06-1.06c2.38-6.34-1-13.55-6-18.19s-11.21-7.55-16.7-11.5a52.49,52.49,0,0,1-17.62-22.14c-2.71-6.45-4.62-14.08-10.69-17.57a31.17,31.17,0,0,0-6.55-2.42c-4.08-1.26-8.36-3.33-10.07-7.24-2.17-5,.25-12-4-15.39-3.38-2.71-9-.39-10.54,3.64s0,8.71,2.8,12l-.26-.16c1.81,2,.85,5.5-1.32,7.15s-5.05,1.94-7.77,2c-1.29,0-2.74,0-3.63,1a4.3,4.3,0,0,0-.92,2c-2,7.51-1.72,15.86-5.84,22.45" transform="translate(1 0)"/><path d="M149.38,276.79a124,124,0,0,0-6,14.81,68,68,0,0,0-2.22,7.64,7.17,7.17,0,0,0,.57,5,3,3,0,0,0,4.27,1.1c1.62-1.09,1.77-3.2,1.79-5a12.9,12.9,0,0,1,2-6.66c1.33-2.27,2.88-4.43,4.34-6.62l10.63-15.92h-2.59c1.29,2.46,1.06,5.26.51,7.89-.58,2.81-1.43,5.54-2,8.34a131.7,131.7,0,0,0-2.47,17.33c-1,11.84-.83,23.73-1.64,35.57a138.64,138.64,0,0,1-2.15,17.23,107.32,107.32,0,0,1-5.17,17.37c-.42,1.13-1.4,2.63-.86,3.82a4.1,4.1,0,0,0,1.86,1.89,5.56,5.56,0,0,0,6-1c2-1.78,2.67-4.58,3.4-7q1.31-4.41,2.47-8.87c3.56-13.61,6.21-27.44,8.85-41.25l-2.74.36,4,9.41c1.19,2.78,2.28,5.62,3.64,8.31a16.56,16.56,0,0,0,4.37,5.74,11.24,11.24,0,0,0,3.27,1.76c1.26.44,2.69.65,3.66,1.65a8.23,8.23,0,0,1,1.63,3.23c.45,1.38.86,2.77,1.26,4.16.79,2.72,1.52,5.46,2.38,8.16a57.79,57.79,0,0,0,3,7.62,23.36,23.36,0,0,0,4.34,6.68,4.32,4.32,0,0,0,6.32-.3c1.93-2.09,1.81-4.89.84-7.4-1.08-2.8-2.49-5.43-3.47-8.27a60.64,60.64,0,0,1-2.35-8.84c-1-5.53-2.16-12.19,2.26-16.53,3.83-3.76,9.56-5.42,14.61-6.73a138.29,138.29,0,0,1,18.76-3.13,43.49,43.49,0,0,0,8-1.43,18.23,18.23,0,0,0,3.66-1.58c1.08-.64,1.69-1.1,1.78-2.38.06-.92.48-1.81.63-2.79a15.14,15.14,0,0,0,.07-3.92,19.65,19.65,0,0,0-2.51-7.39c-2.74-4.83-7.13-8.26-11.72-11.22-4.88-3.15-9.93-5.95-14.23-9.89a51.34,51.34,0,0,1-10-12.59c-4.7-8.29-6-20.37-15.81-24.46-4.64-1.93-10.85-2.45-13.67-7.23-2.3-3.9-.81-8.85-2.28-13a7.53,7.53,0,0,0-10.31-4.56c-4.72,2-6.56,6.9-5.54,11.72a16.77,16.77,0,0,0,3.55,7l1.81-2.36-.25-.15c-1.54-1-2.84,1.1-1.82,2.35s.5,2.79-.22,3.88a6.57,6.57,0,0,1-4.51,2.44c-1.82.32-3.68.07-5.49.41a4.6,4.6,0,0,0-3.65,3.34c-2.46,7.46-1.63,15.73-5.84,22.63-1,1.65,1.58,3.16,2.59,1.51a33.58,33.58,0,0,0,4-12.07c.36-2.08.65-4.17,1-6.24.2-1.1.42-2.2.68-3.29.18-.78.3-2,1-2.6A4.05,4.05,0,0,1,160,254a27.65,27.65,0,0,0,3.28-.22,11.12,11.12,0,0,0,5.56-2.19c2.77-2.25,3.64-6.41,1.31-9.27l-1.81,2.36.25.15c1.55,1,2.83-1.1,1.82-2.35-2.8-3.46-4.74-9.6-.61-12.88a5.73,5.73,0,0,1,5.18-1.2c1.91.64,2.76,2.51,3.12,4.35.85,4.32-.1,9,2.57,12.82,2.88,4.15,7.8,5.65,12.39,7.07a14.63,14.63,0,0,1,6.58,3.68,21,21,0,0,1,3.61,5.5c2.11,4.4,3.46,9.1,5.74,13.43a53.68,53.68,0,0,0,9.24,12.65,65,65,0,0,0,12.64,9.68C236,300.7,241.55,303.86,245,309a17,17,0,0,1,3,7.77c.2,2.32-.66,4.32-.79,6.57l.75-1.29c-4.4,3.07-10.17,3.1-15.31,3.75a116.22,116.22,0,0,0-17,3.17c-4.78,1.35-9.74,3.08-13.57,6.34a13.64,13.64,0,0,0-4,5.53,18.76,18.76,0,0,0-.71,8.36A62,62,0,0,0,201,365.61c1,2.63,2.46,5.12,3.29,7.79a3.92,3.92,0,0,1-.07,3.3c-.55.87-1.5,1.45-2.36.68-1.8-1.59-3-4.31-4.05-6.44a56.46,56.46,0,0,1-2.67-7.12c-.78-2.52-1.47-5.05-2.2-7.58a35.24,35.24,0,0,0-2.38-6.93,7.05,7.05,0,0,0-2.81-2.94,34.52,34.52,0,0,0-3.84-1.4c-2.39-1-3.93-3.12-5.11-5.32-1.47-2.73-2.57-5.67-3.79-8.51l-4.22-9.88a1.51,1.51,0,0,0-2.74.36c-3.24,16.9-6.47,33.85-11.4,50.35-.54,1.81-1,4.18-2.53,5.46-1,.84-2.52,1-3.22-.25l.15,1.16A121.26,121.26,0,0,0,157.5,357a163.24,163.24,0,0,0,2.27-21.27c.73-14.5.39-29.15,2.94-43.5.7-4,1.82-7.81,2.7-11.73.82-3.65,1.11-7.41-.68-10.83a1.52,1.52,0,0,0-2.59,0L154,281.88,149.87,288a51,51,0,0,0-3.52,5.67,13.75,13.75,0,0,0-1.54,5.89,18,18,0,0,1-.07,2.2c-.05.32-.21.61-.27.9,0,.08-.11.12-.14.17s.15.06.11,0a4,4,0,0,1-.32-3.07c.52-2.26,1.23-4.5,1.95-6.7a116.73,116.73,0,0,1,5.9-14.76c.83-1.73-1.75-3.26-2.59-1.52Z" transform="translate(1 0)"/><path d="M171.26,226.38c-1.35-.17-2.6-1.23-3.93-.91a2,2,0,1,0,1.82.48,1.91,1.91,0,0,0-2.86.4,1.66,1.66,0,0,0,1.42,2.34,1.61,1.61,0,0,0,.71-2.81,1.75,1.75,0,0,0-2.54,1.64,1.91,1.91,0,0,0,2.92,1.16" transform="translate(1 0)"/><path d="M171.26,224.88l-.08,0,.4.06a14.45,14.45,0,0,1-2.22-.74,4.1,4.1,0,0,0-3,.08,3.55,3.55,0,0,0-1.77,2.05,3.43,3.43,0,0,0,.19,2.72,3.61,3.61,0,0,0,4.78,1.38,3.57,3.57,0,0,0,1.2-4.88,3.43,3.43,0,0,0-4.93-.85,2.93,2.93,0,0,0-1.15,2.47,3.38,3.38,0,0,0,1.43,2.55,2.75,2.75,0,0,0,2.82.18,3.06,3.06,0,0,0,1.47-1.88,3.17,3.17,0,0,0-.25-2.43,2.81,2.81,0,0,0-2.4-1.41,3.39,3.39,0,0,0-2.43,1,3,3,0,0,0,.66,4.8,3.61,3.61,0,0,0,2.57.43,2.66,2.66,0,0,0,1.05-.45,1.61,1.61,0,0,0,.69-.89,1.5,1.5,0,0,0-2.2-1.7l-.16.11c-.27.16.22-.06.11,0a2.36,2.36,0,0,1-.38.1l.4-.06a2,2,0,0,1-.49,0l.4,0-.27,0c-.08,0-.35-.13-.09,0s0,0-.09-.06l-.11-.07c-.19-.11.26.23.14.11l-.18-.17c-.1-.1-.07-.2.11.14a.86.86,0,0,1-.07-.1l-.06-.1c-.09-.17.09.17.08.19a1.18,1.18,0,0,0-.07-.3l.06.4a1.21,1.21,0,0,1,0-.38l0,.4a1.83,1.83,0,0,1,.06-.25c.06-.23-.2.38,0,.07a.61.61,0,0,1,.07-.1q.12-.18-.12.15l.18-.19c.17-.17-.35.24-.05,0,.07,0,.15-.08.23-.13l-.19.08.13,0,.24,0-.4,0h.38l-.4-.06.24.06c.23.05-.34-.19-.13-.06s.17.17-.1-.1l.14.13c.08.07-.24-.37-.09-.11s0,.25-.06-.16c0,.12.07.24.09.37l-.05-.4a2,2,0,0,1,0,.49l.06-.4a3,3,0,0,1-.12.43c.15-.47.11-.24,0-.11s-.19.27,0,0,0,0,0,0c-.21.23.29-.16.1-.07l-.09.05.21-.09a2.09,2.09,0,0,0-.21,0l.4,0h-.37l.4,0a2.1,2.1,0,0,1-.24-.06c.37.07.28.13.13.05-.3-.18.22.21,0,.05l-.15-.16c-.08-.07.23.35.06.07,0-.06-.16-.33,0-.05s0,0,0-.06,0-.17,0-.26l.06.4a1.61,1.61,0,0,1,0-.38l0,.4a2.21,2.21,0,0,1,0-.25c.06-.24-.18.33,0,.12l.06-.11-.12.15a.61.61,0,0,0,.16-.16c.07-.07-.35.24-.07.07,0,0,.32-.16,0,0s0,0,.07,0L168,227l-.4.05a1.88,1.88,0,0,1,.58,0l-.4-.06.26.05.12,0c.14.05.08,0-.18-.08.07.05.16.09.23.13s-.31-.28-.05,0-.15-.24,0,0,.09.16.13.24c-.1-.26-.13-.32-.07-.18s0,.09,0,.13a2.56,2.56,0,0,1,0,.27l0-.4a3.11,3.11,0,0,1,0,.61l0-.4a2,2,0,0,1,0,.26c-.05.16-.2.35,0,0,0,.08-.07.16-.12.24-.2.31.2-.2,0,0a.47.47,0,0,1-.1.1c-.11.1-.06.06.15-.11l-.23.14c-.2.12.41-.13.06,0l-.26.06.4-.06a1.94,1.94,0,0,1-.59,0l.39.06-.26-.05c-.07,0-.4-.15-.13,0s0,0-.09-.06l-.11-.07c-.12-.06.29.26.12.09,0,0-.19-.17-.18-.19s.22.33.12.15l-.07-.11a.67.67,0,0,1-.06-.12c.2.31.1.28.06.14s-.05-.2-.06-.3l.05.4a2.46,2.46,0,0,1,0-.47l-.06.4c0-.1,0-.2.06-.3s.14-.37,0-.11,0-.05.08-.12a.41.41,0,0,1,.07-.11s-.28.32-.09.12l.2-.19c.08-.1-.33.21-.12.09l.11-.07s.11-.07.12-.06-.38.13-.17.08a2.62,2.62,0,0,1,.38-.09l-.4.06a2.35,2.35,0,0,1,.65,0l-.39-.05a7.25,7.25,0,0,1,1.54.49,7.56,7.56,0,0,0,1.88.5,1.57,1.57,0,0,0,1.07-.44,1.51,1.51,0,0,0,.43-1.06,1.49,1.49,0,0,0-.43-1.06,1.76,1.76,0,0,0-1.07-.44Z" transform="translate(1 0)"/><rect class="cls-6" x="39.5" y="369.5" width="341" height="106"/></g></svg>