<svg id="Layer_1" data-name="Layer 1" xmlns="http://www.w3.org/2000/svg" viewBox="0 0 432.19 537.51"><defs><style>.cls-1{fill:#fff301;}.cls-1,.cls-2{stroke:#000;stroke-miterlimit:10;stroke-width:2px;}.cls-2{fill:#fc1321;}</style></defs><rect class="cls-1" x="1" y="28.64" width="430.19" height="507.87"/><path class="cls-2" d="M57.74,68.17c-1.49,0-3.28,1.07-3.28-20,0-27.81,3.1-26.79,4.11-26.79H68.71C76.29,21.34,90,29.16,90,50.27c0,9.74-4.72,17.9-16.76,17.9Zm6-21.33C63.76,59.5,67.7,61,71,61s9.24-2.87,9.24-13c0-13.9-7.63-20-11.51-20-4.17,0-5,7.26-5,10.81Z" transform="translate(-18 -19.49)"/><path class="cls-2" d="M109.69,69c-12,0-16.76-8.17-16.76-17.9,0-14.47,8.59-30.63,19.75-30.63s19.74,16.16,19.74,30.63c0,9.73-4.71,17.9-16.76,17.9Zm13.07-19.14c0-12.44-6.09-20.27-10.08-20.27S102.6,37.44,102.6,49.88c0,6.58,3.75,9.12,10.08,9.12S122.76,56.46,122.76,49.88Z" transform="translate(-18 -19.49)"/><path class="cls-2" d="M163.68,68.17c-4.12,0-.42-3.49-9.73-21.28-.77-1.52-6-11-7.93-11-1.49,0-1.07,6.13-1.07,7.26,0,15.87,2.44,21.61,2.44,24.48,0,.74-1.13.51-1.67.51h-5.54c-1.5,0-3.28,1.07-3.28-20,0-27.81,3.1-26.79,4.11-26.79h4.71c2.27,0,6.8,4.5,18,24,.17.28.47,1,1,1s.48-2.42.48-3.21c0-10.52-3-19.87-3-21.16,0-.79,1.31-.62,2.44-.62h4.53c1.32,0,4.12-1,4.12,26.79,0,21.11-1.79,20-3.28,20Z" transform="translate(-18 -19.49)"/><path class="cls-2" d="M185.33,21.56a4.22,4.22,0,0,1,2.27-1.07c3.34,0,5.9,3.44,5.9,6.36,0,6.48-7.27,9.18-10.73,9.18-.18,0-.48-.11-.48-.28s1.55-2,1.55-4.28c0-4.73-4.65-4.5-4.65-5.07,0-.28,1-.95,1.19-1.07Z" transform="translate(-18 -19.49)"/><path class="cls-2" d="M212.35,68.17c-1.13,0-3.75,2.25-3.75-14.07,0-12.55,2.62-20.55,2.62-22.63,0-1.69.3-2.7-1.19-2.7-4.24,0-11.69,6.47-12.71,6.47-.53,0-.83.23-.83-1.35,0-1.74,1.61-8.72,2.5-10.3.6-1.07,8.65-3.1,16.7-3.1,9.61,0,18.14,2.42,18.14,5.07,0,2.48-2.93,7.82-3.58,7.82-1,0-3.46-4.67-7.76-4.67-3.64,0-4.23,10.75-4.23,15.93,0,14.47,3.28,21.56,3.28,22.57,0,1.24-2.15,1-2.92,1Z" transform="translate(-18 -19.49)"/><path class="cls-2" d="M257.39,68.17c-1.49,0-3.28,1.07-3.28-20,0-27.81,3.1-26.79,4.12-26.79h5.48c2.33,0,3.16,0,6.09,3.77,5.6,7.26,6,11.37,7.15,11.37.9,0,1.26-4.11,7.58-11.37,3.34-3.83,4.23-3.77,6.56-3.77h4.65c1,0,4.12-1,4.12,26.79,0,21.11-1.79,20-3.28,20h-7.64c-.71,0-2.14.17-2.14-.84a102.66,102.66,0,0,0,3.4-25.62c0-1.18.17-8.1-1.79-8.1-1.73,0-4,5.57-4.6,6.92-5,11.54-3,16.83-7,16.83-5,0-3-5.29-8.35-16.83-.59-1.24-2.56-6.92-4.41-6.92s-1.91,6.92-1.91,8.1a93.6,93.6,0,0,0,3.76,25.62c0,1-1.43.84-2.15.84Z" transform="translate(-18 -19.49)"/><path class="cls-2" d="M309.82,68.17c-1.49,0-3.28,1.07-3.28-20,0-27.81,3.1-26.79,4.12-26.79h6.44c.77,0,2.27-.17,2.27.9,0,.56-3.17,10-3.17,20.83a102.46,102.46,0,0,0,3,24.48c0,.56-.36.62-.9.62h-8.47Z" transform="translate(-18 -19.49)"/><path class="cls-2" d="M341.44,28.09c-3,0-6.8,1.41-6.8,4.67,0,4.06,5.9,5.63,9.18,6.7,12.53,3.94,15.09,9.63,15.09,15C358.91,61,354,69,341.38,69c-8.47,0-17.06-4.28-17.06-13.23,0-4.79,3-7.6,3.64-7.6,1,0,0,11.42,12.82,11.42,4.53,0,8.47-1.85,8.47-5.34,0-4.11-5.37-5.8-8.83-6.81-13.06-3.83-14.49-9.4-14.49-14.19s3.4-12.78,15.51-12.78c8.65,0,14.79,4.34,14.79,6s-3.1,6.7-4.77,6.7C350,33.16,347.64,28.09,341.44,28.09Z" transform="translate(-18 -19.49)"/><path class="cls-2" d="M380,28.09c-3,0-6.8,1.41-6.8,4.67,0,4.06,5.91,5.63,9.19,6.7,12.52,3.94,15.09,9.63,15.09,15C397.45,61,392.5,69,379.91,69c-8.47,0-17.06-4.28-17.06-13.23,0-4.79,3-7.6,3.64-7.6,1,0,0,11.42,12.83,11.42,4.53,0,8.47-1.85,8.47-5.34,0-4.11-5.37-5.8-8.83-6.81-13.07-3.83-14.5-9.4-14.5-14.19s3.4-12.78,15.51-12.78c8.65,0,14.79,4.34,14.79,6s-3.1,6.7-4.77,6.7C388.5,33.16,386.17,28.09,380,28.09Z" transform="translate(-18 -19.49)"/><path class="cls-2" d="M172.42,135.71c-1.14,0-3.76,2.25-3.76-14.07,0-12.55,2.62-20.55,2.62-22.63,0-1.69.3-2.7-1.19-2.7-4.24,0-11.69,6.47-12.71,6.47-.53,0-.83.23-.83-1.35,0-1.74,1.61-8.72,2.51-10.3.59-1.07,8.64-3.1,16.7-3.1,9.6,0,18.13,2.42,18.13,5.07,0,2.48-2.92,7.82-3.58,7.82-1,0-3.46-4.67-7.75-4.67-3.64,0-4.24,10.75-4.24,15.93,0,14.47,3.28,21.56,3.28,22.57,0,1.24-2.15,1-2.92,1Z" transform="translate(-18 -19.49)"/><path class="cls-2" d="M222.82,135.71c-.6,0-2.21.06-2.21-.84a1.7,1.7,0,0,1,.18-.79c2.09-5.18,3.82-10.47,3.82-16,0-3.83-1.61-5.13-5.61-5.13-6,0-12.46,2.71-12.46,9.24A30.36,30.36,0,0,0,209,134.3a2.27,2.27,0,0,1,.24.85c0,.79-1.43.56-1.91.56h-8.77c-1.67,0-1.67-16.21-1.67-18.63,0-4.11,1.2-28.2,4.06-28.2H209c.36,0,1.79-.17,1.79.51s-4.06,8.89-4.06,14.86c0,1.4.54,2.75,1.44,2.75,1.85,0,1.85-1.69,10-1.69,2.92,0,5.25.62,5.25-1.74,0-5.35-5.25-13.4-5.25-14.13s1.79-.56,2.14-.56h7.82c2.27,0,5.19,16.21,5.19,28.2,0,2.7,0,18.63-1.91,18.63Z" transform="translate(-18 -19.49)"/><path class="cls-2" d="M243.28,135.71c-1.49,0-3.28,1.07-3.28-20,0-27.8,3.1-26.79,4.12-26.79h6.44c.77,0,2.27-.17,2.27.9,0,.56-3.17,10-3.17,20.83a102.46,102.46,0,0,0,3,24.48c0,.57-.36.62-.9.62h-8.47Z" transform="translate(-18 -19.49)"/><path class="cls-2" d="M274.9,95.63c-3,0-6.8,1.41-6.8,4.68,0,4,5.9,5.62,9.18,6.69,12.53,3.94,15.09,9.63,15.09,15,0,6.53-4.95,14.58-17.53,14.58-8.47,0-17.06-4.28-17.06-13.23,0-4.79,3-7.6,3.64-7.6,1,0,0,11.43,12.82,11.43,4.53,0,8.47-1.86,8.47-5.35,0-4.11-5.37-5.8-8.83-6.81-13.06-3.83-14.49-9.4-14.49-14.19S262.79,88,274.9,88c8.64,0,14.79,4.34,14.79,6s-3.1,6.7-4.77,6.7C283.43,100.7,281.1,95.63,274.9,95.63Z" transform="translate(-18 -19.49)"/><path class="cls-2" d="M296.31,105a6.4,6.4,0,0,1,6.56-6.14c3.76,0,6.8,2.7,6.8,6.19a6.7,6.7,0,0,1-13.36,0Zm0,25.33a6.4,6.4,0,0,1,6.56-6.14c3.76,0,6.8,2.7,6.8,6.19a6.7,6.7,0,0,1-13.36-.05Z" transform="translate(-18 -19.49)"/><path d="M60.89,201.17c.3,1.52-1.27,2.7-1.77,2.91s-.63-.15-.58-.43a1.61,1.61,0,0,0,.05-.83c-.06-.32-.46-.67-1.24-.52-2.26.45-4.81,3.29-6.32,6.16-1.79,3.68-3.15,8.37-2.36,12.41.49,2.47,2,3.43,4,3,5-1,10-6.88,11-8,.66-.78,1.08-.32.88.6s-2.19,3.81-5.52,6.6a15.64,15.64,0,0,1-7.2,3.87c-3.57.71-5.57-2.23-6.22-5.54-1.23-6.2,2.15-15.65,8.35-20.2a8.46,8.46,0,0,1,3.69-1.76C59,199.2,60.58,199.59,60.89,201.17Z" transform="translate(-18 -19.49)"/><path d="M65.2,215.54a30.11,30.11,0,0,1,4.74-9.72c1.77-2.37,3.19-2.92,3.77-3a2.08,2.08,0,0,1,1.62.77c.1.2.32.21.55,0a.72.72,0,0,1,.93-.24,1,1,0,0,1,.78,1.43,28.51,28.51,0,0,0-.9,10.11c.22,2.25.62,4,1.72,3.75,1.52-.3,4.76-6,8.37-13.44.42-.95,1.12-1,1.25-.3a7.57,7.57,0,0,1-1,4c-2.84,5.8-6,12.21-9.41,12.88-1.42.28-2.64-1.17-3-3.55-.2-1-.23-2.57-.38-3-.06-.31-.19-.39-.38,0a58.08,58.08,0,0,1-4,6.47,5.45,5.45,0,0,1-2.73,2.18,2.57,2.57,0,0,1-2.72-2.14C64.21,220.76,64.19,219,65.2,215.54Zm2.93,4.61c.42-.08,1.15-.78,1.91-1.91a40.25,40.25,0,0,0,3-5.55,23.68,23.68,0,0,0,1.26-3.86,3.5,3.5,0,0,0-.12-2c-.23-.61-.65-1.07-1.33-.94s-1.71,1.32-2.78,3.33-3.26,7.85-2.79,10.21C67.37,219.92,67.65,220.24,68.13,220.15Z" transform="translate(-18 -19.49)"/><path d="M96.27,212c.63-.67,1,.08.59.76a21.89,21.89,0,0,1-6.61,6.05,5,5,0,0,1-1.82.74A3,3,0,0,1,85,217.43a7.85,7.85,0,0,1,.12-2.7c.23-1.57.88-7.43,1.15-8.57.06-.51,0-.6-.48-.45s-1.79.57-2.31.72a1.5,1.5,0,0,1-1.16-.09.9.9,0,0,1-.15-1.29,2.22,2.22,0,0,1,1.28-1c.75-.31,1.67-.66,2.65-1a1.06,1.06,0,0,0,.75-.86c.17-.8.86-5.9,1.16-7.16a2.77,2.77,0,0,1,1.73-2,.89.89,0,0,1,1,.41,1.79,1.79,0,0,1,.36,1.84c-.87,3.06-1.26,5.76-1.38,6.28s.19.4.61.31c1.56-.36,5.86-1.54,8.8-2.12,1.11-.21.72.85-.14,1.23a80.77,80.77,0,0,1-9.14,3.44c-.56.22-.71.31-.81.87a56.53,56.53,0,0,0-1,8.76c.05,1.9.68,2.59,1.94,2.35C92.29,215.93,95.22,213.06,96.27,212Z" transform="translate(-18 -19.49)"/><path d="M109.67,197.77a2.94,2.94,0,0,1-1.12,2.62c-.52.43-.93.56-1.23.41a.87.87,0,0,1-.41-1,.75.75,0,0,0-1-.74c-1.11.22-2.77,2.29-3.67,4.38a12.74,12.74,0,0,0-1,7.68c.42,2.11,1.74,3,3.21,2.7,3.88-.76,8.86-6.28,11.18-10,.32-.55.69-.62.92-.29a2.27,2.27,0,0,1-.26,1.74c-2.45,5-8.2,10.41-12.62,11.28-2,.39-4.68-.22-5.46-4.16a15.88,15.88,0,0,1,2.07-10.29c1.67-2.89,4.49-5.47,6.64-5.89A2.21,2.21,0,0,1,109.67,197.77Z" transform="translate(-18 -19.49)"/><path d="M130.18,193.83A69.61,69.61,0,0,0,128.6,205c-.13,3.19.57,3.71,1.36,3.55,1.57-.31,3.54-2.5,4.42-4.14.35-.73.79-.71,1-.25a4.27,4.27,0,0,1-.31,2.29c-.71,1.94-4.26,5.26-6.26,5.66-1.26.25-2.6-1-2.7-6.51a62.7,62.7,0,0,1,.5-7.41c.12-1.06-.28-1.15-1-.29A41.86,41.86,0,0,0,118.43,209a9.27,9.27,0,0,0-.58,2.9,2,2,0,0,1-1.52,2.26c-.78.16-1.27-1.49-1.34-3.22-.08-1.24.6-9.95,1.3-15.81a72.16,72.16,0,0,1,2.72-13c.58-1.8,1.11-2.4,1.53-2.48a1.56,1.56,0,0,1,1.33.61,1.34,1.34,0,0,1,.41,1.83c-3,6.76-3.93,17.69-4.24,21.95,0,.77.23.89.6.27.94-1.61,4.92-7.14,6.64-9.22,1.35-1.47,2.14-2.45,3.71-2.76C129.89,192.09,130.47,192.57,130.18,193.83Z" transform="translate(-18 -19.49)"/><path d="M150,207q-4,.38-4.94-1.66c0-.07-.07-.15-.11-.24l-.09-.36a4.9,4.9,0,0,1-.07-.67q.09-4.58,5.62-15.78t7.81-11.51l.05,0a2.2,2.2,0,0,0,.36,0,6.77,6.77,0,0,0,.7-.2l.72-.21a4.78,4.78,0,0,1,3,1,6.62,6.62,0,0,1,1.83,2.73,40.36,40.36,0,0,1,1.69,4.12q1.28,3.59,2.63,8.63c.72,2.69,1.21,4.73,1.49,6.13s.34,2.2.18,2.33a4,4,0,0,1-1.93.81,2.72,2.72,0,0,1-2.34-.28,2.92,2.92,0,0,1-.46-.7c-.06-.13-.11-.28-.17-.45a8.61,8.61,0,0,1-.37-1.37c-.06-.32-.12-.67-.17-1a17.18,17.18,0,0,0-4.11.33,21,21,0,0,0-5.94,2.16,12.92,12.92,0,0,0-3.5,2.49Zm4.91-12,7.07-1.88c.9-.82,1.32-1.37,1.26-1.67v-.06s-.26-.78-.72-2.2c-.22-.72-.42-1.33-.6-1.81s-.32-.86-.44-1.12-.28-.52-.36-.53a2.3,2.3,0,0,0-1,0c-1.24.24-2.35,1.46-3.35,3.67A43.85,43.85,0,0,0,154.92,195Z" transform="translate(-18 -19.49)"/><path d="M179.13,201a7.48,7.48,0,0,1-1.55.5,3.08,3.08,0,0,1-3.74-1.87,3.38,3.38,0,0,1-.22-.52,3.58,3.58,0,0,1-.19-.66,1.09,1.09,0,0,1,0-.26q-.9-16.55-.63-16.6.24-1.36,3.54-2.92a16,16,0,0,1,3.25-1.32.68.68,0,0,1,.2,0,26.66,26.66,0,0,1,7.94.14q3.42.78,4.54,3.18a3.22,3.22,0,0,1,.21.46,5.81,5.81,0,0,1,.22.8,6.38,6.38,0,0,1,.11,1q.24,5.06-3.7,11.25a12.22,12.22,0,0,1-3.46,3.41A49.63,49.63,0,0,1,179.13,201Zm9.27-18.53a3.93,3.93,0,0,0-2.73-2,4.87,4.87,0,0,0-1.94,0,3.12,3.12,0,0,0-.5.14c-2.09.62-3.21,1-3.34,1a3.44,3.44,0,0,0-2,2.35c-.17.72-.1,4.3.2,10.76l.1.24c.21.44.7.59,1.46.44a5.54,5.54,0,0,0,.75-.23q1-.39,4.35-4.53a20.93,20.93,0,0,0,3-4.86,6.19,6.19,0,0,0,.76-3.08.57.57,0,0,0,0-.14Z" transform="translate(-18 -19.49)"/><path d="M202.17,196.66c-2.11.2-3.43-.24-3.95-1.33l-.08-.18a2,2,0,0,1-.08-.29,4.87,4.87,0,0,1-.06-.55q.08-3.65,4.49-12.6t6.26-9.23h0l.3,0a3.14,3.14,0,0,0,.55-.17l.59-.16a3.88,3.88,0,0,1,2.36.78,5.53,5.53,0,0,1,1.46,2.2c.45.93.9,2,1.37,3.29.67,1.91,1.36,4.22,2.08,6.91q.88,3.22,1.21,4.9c.22,1.13.27,1.76.13,1.86a3.12,3.12,0,0,1-1.54.65,2.19,2.19,0,0,1-1.87-.22,2.46,2.46,0,0,1-.37-.56l-.13-.36a6.28,6.28,0,0,1-.3-1.09c-.05-.25-.09-.54-.13-.85a13.45,13.45,0,0,0-3.3.27,16.44,16.44,0,0,0-4.74,1.71,10.69,10.69,0,0,0-2.81,2Zm3.93-9.59,5.67-1.49c.71-.67,1-1.11,1-1.34v-.06s-.21-.62-.57-1.76c-.18-.58-.34-1.06-.49-1.45s-.26-.68-.35-.89-.22-.41-.29-.43a2,2,0,0,0-.81,0c-1,.2-1.88,1.18-2.69,2.94A41.48,41.48,0,0,0,206.1,187.07Z" transform="translate(-18 -19.49)"/><path d="M223.67,170.82a3,3,0,0,1,2.3-1.35,15.25,15.25,0,0,1,2.11-.22c.66,0,1.21.41,1.64,1.33.07.16.14.32.2.5a4.07,4.07,0,0,1,.2.68c0,.11,0,.21,0,.32.05.47,0,.71-.1.74h0s0,.06,0,.15l.09.32c.18.46.55,1.3,1.12,2.53s1.37,2.85,2.38,4.85q4.13-10.9,8.9-16.37c3,.68,4.62,1.15,4.75,1.43v0s0,.08-.14.13q-.7.24.09,10c.41,5.57.74,9,1,10.43,0,.15.06.27.09.37v0c0,.28-.1.46-.46.53q-1.41.27-4.85-1a1,1,0,0,1-.39-.47,1.43,1.43,0,0,1-.12-.31,8.61,8.61,0,0,1-.34-1.3,52.23,52.23,0,0,1-.69-7.09l-1-.61c-2.14,3.88-3.24,6.25-3.32,7.09a20.52,20.52,0,0,1-.52,3.94,2.17,2.17,0,0,1-1.76,1.29,5.69,5.69,0,0,1-.72.1,2.67,2.67,0,0,1-3-1.57,2.51,2.51,0,0,1-.17-.45,20.93,20.93,0,0,1-.72-2.73c-.51-1.81-.94-3.18-1.27-4.12l-.09-.22-.09-.29a2.93,2.93,0,0,0-.16-.39,1.59,1.59,0,0,0-1.92-1c-.33.06-.58,2-.73,6q-.3,6.84-.37,7.26a.75.75,0,0,1-.61.72,2.35,2.35,0,0,1-1.77-.67,5.27,5.27,0,0,1-1.62-2,4.17,4.17,0,0,1-.19-.44,4.44,4.44,0,0,1-.15-.54l0-.13q-.28-1.63.84-9.24C222.84,174.24,223.36,171.47,223.67,170.82Z" transform="translate(-18 -19.49)"/><path d="M272,166.57c-1.09,2.5-2.48,9.27-2.17,12.21.08.7.35,1.24.66,1.18a3,3,0,0,0,1.32-.8c3.58-3.44,7.24-9.51,9.78-14.87.27-.6.62-.45.76.24a6.59,6.59,0,0,1-.79,3.21,53,53,0,0,1-9.52,14c-1.32,1.3-2.39,2.27-3.33,2.46a1.72,1.72,0,0,1-1.45-.43,1.37,1.37,0,0,1-.28-1.41,20.83,20.83,0,0,0,0-2.58c.16-3,.49-6.1.71-7.45a4.9,4.9,0,0,0,.16-1.12,8.41,8.41,0,0,1,0-1.48,15.68,15.68,0,0,1,.58-2,14,14,0,0,1,1.62-3.16c.51-.7.94-.73,1.3-.31A2.14,2.14,0,0,1,272,166.57Zm2.12-11.94a10.93,10.93,0,0,0,.23,4.21c.18.62-.15.91-.85.66a2.49,2.49,0,0,1-1.51-1.28,8.13,8.13,0,0,1-.8-2.41c-.3-1.79.39-2.15,1.08-2.29C273.62,153.27,274.31,153.73,274.16,154.63Z" transform="translate(-18 -19.49)"/><path d="M285.29,162.64a.48.48,0,0,1-.37.62c-.5.21-.77.76-1.08,1.69a39.84,39.84,0,0,0-1,7.5c0,.55.29.66.57.11a53.64,53.64,0,0,1,6-9.21,12.37,12.37,0,0,1,2.1-2.11,2.23,2.23,0,0,0,.81-1.14c.23-.48.47-.91.84-1a1.35,1.35,0,0,1,1.19.47c.63.48.65,1.13.45,2a29,29,0,0,0-1.06,2.94,45.73,45.73,0,0,0-1.08,7.52c-.18,4.08,1.14,5.24,2.56,5,1.58-.32,3.14-2.1,4-4.07.24-.48.61-.5.82,0a3,3,0,0,1-.23,2.4c-.58,1.26-2.79,3.88-5.31,4.37-2.31.46-4.47-1.9-4.36-7.16a45.6,45.6,0,0,1,.48-5.88c.14-1,.14-1.23-.05-1.35s-.51.15-1,.86a44.8,44.8,0,0,0-6.89,12.92c-.25.71-.69,1.78-1.27,1.89a1.47,1.47,0,0,1-1.12-.43,4,4,0,0,1-.35-2.34c.15-7.23.85-12.83,1.44-14.85s1.15-2.46,1.78-2.59C284.13,160.63,285.16,162,285.29,162.64Z" transform="translate(-18 -19.49)"/><path d="M324.05,167.11c.63-.67,1,.08.59.76a21.89,21.89,0,0,1-6.61,6,5.06,5.06,0,0,1-1.82.75,3.05,3.05,0,0,1-3.48-2.16,7.78,7.78,0,0,1,.12-2.69c.24-1.58.88-7.44,1.15-8.58.06-.5,0-.6-.47-.45-.62.17-1.8.57-2.32.73a1.49,1.49,0,0,1-1.16-.1.88.88,0,0,1-.14-1.28,2.14,2.14,0,0,1,1.27-1c.76-.31,1.67-.66,2.65-1a1.09,1.09,0,0,0,.76-.86c.17-.79.85-5.9,1.15-7.15a2.77,2.77,0,0,1,1.73-2,.9.9,0,0,1,.95.41,1.79,1.79,0,0,1,.36,1.84c-.87,3.07-1.26,5.76-1.38,6.28s.19.4.61.32c1.57-.37,5.86-1.54,8.81-2.12,1.1-.22.71.84-.14,1.22a82.07,82.07,0,0,1-9.15,3.44c-.56.22-.7.31-.81.88a56.29,56.29,0,0,0-1,8.75c.05,1.9.68,2.6,1.94,2.35C320.07,171,323,168.14,324.05,167.11Z" transform="translate(-18 -19.49)"/><path d="M332.89,138.58a1.33,1.33,0,0,1,.41,1.83c-3,6.76-3.93,17.69-4.24,22,0,.77.23.88.6.27a110.87,110.87,0,0,1,6.64-9.23c1.35-1.46,2.14-2.44,3.72-2.75.89-.18,1.48.31,1.18,1.57a66.24,66.24,0,0,0-1.58,11.11c-.13,3.2.52,3.72,1.2,3.59,1.74-.34,6-6.75,9.34-13.25.44-.85,1.21-1.06,1.38-.22s.06,1.68-1.06,3.76c-3.58,6.76-8.18,12.75-10.6,13.22-1.31.26-2.77-1-2.76-6.49a60.3,60.3,0,0,1,.51-7.42c.12-1.06-.28-1.14-1-.28a40.82,40.82,0,0,0-7.14,11.12,8.23,8.23,0,0,0-.58,2.9,2,2,0,0,1-1.51,2.26c-.79.16-1.33-1.48-1.4-3.22,0-1.25.66-10,1.35-15.82a78.27,78.27,0,0,1,2.67-13c.63-1.82,1.17-2.41,1.59-2.5A1.58,1.58,0,0,1,332.89,138.58Z" transform="translate(-18 -19.49)"/><path d="M350.16,153.62c.58-1.48,2.74-6,4.63-6.37a1.08,1.08,0,0,1,1.34.71c0,.16.23.34.68.36a2.32,2.32,0,0,1,2.65,2.1,7.19,7.19,0,0,1-.86,4.81,8.19,8.19,0,0,1-5.45,4.18,1.91,1.91,0,0,1-1.3-.23c-.24-.12-.34-.1-.43.3a8.46,8.46,0,0,0-.06,3,2.2,2.2,0,0,0,2.8,2c2-.41,4.13-2.57,5-3.56.35-.4.93-.78,1.2-.56a2.62,2.62,0,0,1-.38,1.71c-.82,1.63-3.81,4.73-6.65,5.29-1.89.38-4.22-.91-4.81-3.91C348.15,161.44,348.76,157.33,350.16,153.62Zm6.75-1.72c-.25-1.26-1.12-1.8-1.8-1.66-1.31.26-2.71,4.25-3.16,6.41-.08.4.05.53.74.4C355.31,156.53,357.33,154,356.91,151.9Z" transform="translate(-18 -19.49)"/><path d="M65.22,261a7,7,0,0,1-.73,2.39,26.68,26.68,0,0,0-1.42,7.75c0,.55.29.65.53.17a59.9,59.9,0,0,1,6.1-9.17A12.82,12.82,0,0,1,71.8,260a2.19,2.19,0,0,0,.81-1.14c.23-.48.47-.91.84-1a1.35,1.35,0,0,1,1.19.47c.64.48.65,1.13.45,2a24.18,24.18,0,0,0-1,3A43.57,43.57,0,0,0,73,270.83c-.18,4.08,1.14,5.24,2.51,5,2.47-.49,6.25-7.07,8.24-11.07.23-.48.54-.6.71-.3a2.11,2.11,0,0,1-.17,1.94C81,274.66,77.52,278,74.79,278.49c-2.31.46-4.47-1.9-4.36-7.16a41.94,41.94,0,0,1,.49-5.83c.13-1,.13-1.28-.06-1.4s-.5.21-1,.86a41.46,41.46,0,0,0-6.27,11.11c-.41.95-.61,2.41-1,3.14a1.57,1.57,0,0,1-.88.82,1.13,1.13,0,0,1-1.08-.49,5.14,5.14,0,0,1-.44-2.81,71.09,71.09,0,0,1,1-11.49c.16-1.13.07-1.6-.51-1.48a4.54,4.54,0,0,0-3.31,4,1,1,0,0,1-.68.73,1.84,1.84,0,0,1-2.1-1.28c-.23-1.15,1.23-2.59,2.3-3.29A32.14,32.14,0,0,1,61,261.35a3,3,0,0,0,1.22-1,1.35,1.35,0,0,1,1-.75A1.85,1.85,0,0,1,65.22,261Z" transform="translate(-18 -19.49)"/><path d="M122.9,242.92a4.33,4.33,0,0,0,1.59-.53.84.84,0,0,1,1.23.19c.77.83.53,1.86.33,3-.2,1.46-1,5.11-1.18,5.91,0,.38.13.63.55.54a51.9,51.9,0,0,0,9-2.74c.45-.2.68-.14.75.18s-.6,1.15-1.35,1.74a33.53,33.53,0,0,1-8.37,3.23,1.21,1.21,0,0,0-1.06,1c-.33,1.65-1.37,6.11-1.53,7.78,0,1.15.35,1.46.87,1.36,1.89-.38,5.84-4.43,6.57-5.17s1.21-.79,1.28-.42a2.49,2.49,0,0,1-.56,1.58c-2,3.18-7,7.33-9.54,7.83-.68.14-2.14-.88-2.07-1.66a3.63,3.63,0,0,1,.55-1.64,4.1,4.1,0,0,0,.39-1.33c.2-.91.87-5.85,1.07-7.31.1-.62-.08-1-.41-1a7.89,7.89,0,0,1-3.07-.11c-.54-.22-.56-.6-.26-1a2.61,2.61,0,0,1,1.61-1l1.9-.32c.63-.12.81-.6.94-1.06s.83-3.54,1-4.89c0-1.15-.36-1.51-.92-1.62a8.44,8.44,0,0,0-2.64.2c-3.2.63-5.91,3.24-5.55,5.07a4,4,0,0,0,.48,1.33,1.57,1.57,0,0,1,.09,1.56c-.26.33-.52.38-.74.1a1.67,1.67,0,0,0-2.25-.33c-1.6.76-3.81,4.74-4.88,6.81-.44.79-.55,1.36-.25,1.79a27.48,27.48,0,0,0,3.75,4.34,4.06,4.06,0,0,0,2.59,1.23c.79-.15,2.47-2.17,3.11-3.07.34-.5.5-.2.61.32a2.49,2.49,0,0,1-.41,1.55c-.5,1-2.48,3.71-4,4-.84.16-2.71-1.05-4-2.33s-2.41-2.8-3.16-3.57c-.29-.33-.7-.47-1,0a12.34,12.34,0,0,0-2.18,4.74,1.37,1.37,0,0,1-.74,1.24A6.42,6.42,0,0,0,99.6,272c-.68,1.23-1.6,2.66-2.28,2.8a1.73,1.73,0,0,1-1.16-.32,1.37,1.37,0,0,1-.22-1.7,23.75,23.75,0,0,1,1.33-2.94,3.37,3.37,0,0,1,1.57-1.46,2,2,0,0,0,1.14-1.1c1.2-2.25,2.14-3.85,2.39-4.5.18-.48.32-.88.15-1.18a25.76,25.76,0,0,0-2.42-3.12,1.64,1.64,0,0,0-2-.38c-2,.72-7.1,5.22-9.66,7.2a2.28,2.28,0,0,1-2.19.54c-.42-.19-.84-.11-1,.59a13.73,13.73,0,0,0,0,4.8,1.77,1.77,0,0,0,2.14,1.43c1-.2,3.77-2.76,4.92-4.41.47-.64.86-.6.94-.19a2.07,2.07,0,0,1-.2,1.46c-1.31,2.23-4.48,5.53-6.21,5.87a4.17,4.17,0,0,1-4.43-3.33c-.61-3.1.45-7.41,1.34-10.09.63-1.81,2.6-6.46,4.23-6.78a1.06,1.06,0,0,1,1.23,1c0,.21.25.17.51.11a3,3,0,0,1,3.36,1.53c.3.43.72.62,1.06.39a15.69,15.69,0,0,1,3-1.74c.54-.27.8-.38.88-.77.16-.58.67-1.88,1.56-2.06a2.78,2.78,0,0,1,2.09.63,1.22,1.22,0,0,1,.49,1.37c-.2,1.19.79,2.36,1.49,3.15.56.6,1.09.55,1.46-.07,2-3.23,2.92-4.83,3.71-5.81a7,7,0,0,1,2.32-2.37,1.57,1.57,0,0,0,.62-1c.75-2.55,2.63-4.94,8.46-6.09ZM86.1,262.78c-.24.71,0,1,.75.73A13.66,13.66,0,0,0,90.5,261c.65-.57.88-1.05.68-1.5a2,2,0,0,0-2.32-1.29C87.54,258.46,86.5,261.45,86.1,262.78Z" transform="translate(-18 -19.49)"/><path d="M144.3,263.42A1.31,1.31,0,0,1,144,262a12.1,12.1,0,0,0,.09-2.58c.22-3,.54-6.11.77-7.46.06-.51.1-.84.11-1.12a10.15,10.15,0,0,1,.08-1.49,10.58,10.58,0,0,1,.53-2,13.28,13.28,0,0,1,1.67-3.17c.52-.7.95-.73,1.25-.3a2.21,2.21,0,0,1,.63,2.33,33.58,33.58,0,0,0-2.16,11.23c.13.91.26,1.32.63,1.24s1.66-1.52,2.77-3.11c3.63-4.86,9.34-13.24,13.75-14.11.74-.15,1.24.19,1.3.5s-.36.62-.66.79c-4.47,2-8.81,8.18-13.82,15.17-1,1.4-3.9,5.68-4.84,5.86A2.59,2.59,0,0,1,144.3,263.42Zm7.1-29.07a10.62,10.62,0,0,0,.23,4.22c.17.62-.15.9-.86.65a2.52,2.52,0,0,1-1.51-1.28,8.75,8.75,0,0,1-.8-2.41c-.3-1.79.4-2.15,1.08-2.28C150.38,233.08,151.65,233.16,151.4,234.35Z" transform="translate(-18 -19.49)"/><path d="M166.79,241.58c.12.58-.56,1-1.45,1.21-2.78.55-5.52,3-5.18,4.73a6.34,6.34,0,0,0,1.32,2.53,34,34,0,0,1,2.35,3.08c.8-1.19,2-3.28,3.4-5.2q1.65-2,2.78-3.33a4.15,4.15,0,0,0,.76-1.4,9,9,0,0,1,6-5.06c1.36-.27,2.57,0,2.76,1,.1.53-.76,1.14-1.78,1.5-3.52,1.24-4.75,3.06-4.46,4.54a6.26,6.26,0,0,0,1.56,2.64,15.2,15.2,0,0,1,2.24,3.32,43.7,43.7,0,0,0,7.74-10c1.21-1.92,1.92-3.27,2.38-4,.25-.38.65-.29.75.23a3.73,3.73,0,0,1-.23,2.12c-1.33,3.81-6.36,10.7-9.87,14.17-.4.46-.64,1.22-1.27,1.89a12.52,12.52,0,0,1-5,3c-.74.14-1.77-.09-1.75-.86a3.91,3.91,0,0,1,1.8-2.48c.57-.44,1.34-1,2.26-1.54.48-.31.75-.64.64-1.16a5.79,5.79,0,0,0-1.06-1.81c-.7-.79-1.36-1.64-1.74-2.17a5.63,5.63,0,0,1-1-2.1,82.4,82.4,0,0,0-6.25,9.8,4.34,4.34,0,0,1-1.08,2,11.73,11.73,0,0,1-5,3.17c-.74.15-1.67-.16-1.67-1,0-.66.87-1.64,1.93-2.4.66-.51,1.38-1,2.34-1.66a1,1,0,0,0,.53-1.2,5.38,5.38,0,0,0-1.3-1.87,28.61,28.61,0,0,1-2-2.61,5.87,5.87,0,0,1-.94-2.32,7,7,0,0,1,1.81-4.89,8.5,8.5,0,0,1,4.57-2.87C164.71,240.41,166.58,240.48,166.79,241.58Z" transform="translate(-18 -19.49)"/><path d="M209.17,239c.34-.5.67-.51.81,0a2.61,2.61,0,0,1-.38,1.93,37.22,37.22,0,0,1-7.89,10.67,7.62,7.62,0,0,1-3.14,1.77c-1.21.23-2.44-1.05-2.41-4.77a34.48,34.48,0,0,1,.22-4.68c0-.61-.19-.67-.5-.06a39.24,39.24,0,0,1-7.53,10.54,4.36,4.36,0,0,1-2.1,1.23c-.74.15-1.84-1-2.17-2.68-.16-.79-.27-2.46.45-6.58a46.65,46.65,0,0,1,2.29-9.41c.2-.64.52-1,.94-1.05a1.65,1.65,0,0,1,1.89,1.26,10.79,10.79,0,0,1-1,3.58,9.56,9.56,0,0,0-.82,1.91,36.24,36.24,0,0,0-.9,5.41c-.42,2.6.15,3.52.94,3.37,1.36-.27,2.69-2.39,5.19-6.59a75.37,75.37,0,0,0,4.21-9.35c.58-1.53.93-1.93,1.35-2a1.61,1.61,0,0,1,1.66,1.75,10.55,10.55,0,0,1-.41,1.82,42.87,42.87,0,0,0-1.2,9.95c-.05,2.52.51,3.12,1.19,3C202,249.48,206.48,243.3,209.17,239Z" transform="translate(-18 -19.49)"/><path d="M209.45,236.77c.59-1.48,2.75-6,4.64-6.37a1.08,1.08,0,0,1,1.34.71c0,.16.23.34.67.36a2.31,2.31,0,0,1,2.65,2.1,7.13,7.13,0,0,1-.85,4.81,8.21,8.21,0,0,1-5.45,4.18,1.91,1.91,0,0,1-1.3-.23c-.24-.12-.35-.1-.43.3a8.46,8.46,0,0,0-.06,3,2.2,2.2,0,0,0,2.8,2c2-.41,4.13-2.56,5-3.56.36-.4.94-.78,1.2-.56a2.54,2.54,0,0,1-.37,1.71c-.82,1.63-3.81,4.73-6.65,5.29-1.89.38-4.22-.91-4.81-3.91C207.45,244.58,208.06,240.48,209.45,236.77Zm6.76-1.72c-.25-1.26-1.12-1.8-1.8-1.66-1.32.26-2.71,4.24-3.16,6.41-.08.4.05.53.74.4C214.61,239.68,216.62,237.15,216.21,235.05Z" transform="translate(-18 -19.49)"/><path d="M260.1,222.09c.42.19.87,0,1.47-.29,1.39-.71,5.89-5,8.06-8.09a29.11,29.11,0,0,0,1.93-3.81c.88-1.87,2.33-4,3.64-4.22a1.54,1.54,0,0,1,1.81,1.17,1.26,1.26,0,0,1-.41,1.23,23.38,23.38,0,0,0-3.77,5.49,50.23,50.23,0,0,0-1.65,8.24,47.33,47.33,0,0,0-.86,7.54c-.07.78.23.88.54.27,1-1.61,4.93-7.13,6.69-9.23,1.34-1.52,2-2.41,3.72-2.75.89-.18,1.48.31,1.18,1.57a66.42,66.42,0,0,0-1.57,11.11c-.14,3.2.57,3.71,1.2,3.59,2.67-.53,7.94-8.45,9.17-11,.32-.61.6-.56.78-.21a2.35,2.35,0,0,1-.15,1.72c-1.47,4.71-8,12.48-10.85,13.05-1.21.24-2.66-1-2.65-6.52a60.61,60.61,0,0,1,.5-7.41c.07-1-.34-1.18-1.1-.33a44.11,44.11,0,0,0-7.08,11.17,6.87,6.87,0,0,0-.57,2.9,2,2,0,0,1-1.52,2.26c-.74.14-1.31-1.11-1.39-2.34s0-1.86,0-2.68c.23-3.81,1.3-13.3,2-17a36,36,0,0,1-7.68,7.3c-.29.16-.26.32-.19.69l.08.69c1.12,5.68-2.55,11.69-5.69,14.6a7.15,7.15,0,0,1-3.12,1.88c-1.52.3-3.37-1-4.16-5.9-.17-1.11-.28-3.33-.32-4.08,0-.6-.45-.62-1,0a74.17,74.17,0,0,0-4.79,6.94,25.54,25.54,0,0,0-2,4.05c-.3,1-.54,1.69-1.07,1.8a2.11,2.11,0,0,1-1.67-.49,2,2,0,0,1-.57-1.75c.12-.78.28-2.73.39-4.11s.62-7.93.56-8.79c.05-.61-.13-1-.57-.71a18.83,18.83,0,0,0-3.12,3,5.28,5.28,0,0,0-.71,2.49.93.93,0,0,1-.89,1.05,1.65,1.65,0,0,1-1.79-1.34,5.5,5.5,0,0,1,1.36-3.38,75.22,75.22,0,0,1,6.6-5.56,5.47,5.47,0,0,1,1.54-1c.53-.11,1.19.75,1.37,1.42.14.41.13.63-.25,1.19a9.82,9.82,0,0,0-.86,2.85c-.47,2.6-.44,6.36-.58,7.59-.06.78.45.62.83.05,1.35-2,4.87-7.12,6-8.76a9.1,9.1,0,0,0,1.55-3.74,1.83,1.83,0,0,1,1.25-1.45,1.52,1.52,0,0,1,1.8,1.12,5.34,5.34,0,0,1-.18,1.56,30.5,30.5,0,0,0-.12,9.36c.51,3.44,1.63,3.55,2.26,3.43.84-.17,2.09-1,3.94-4.06a13.86,13.86,0,0,0,1.7-8.57c-.18-.89-.41-1.23-1.08-1.32-.39,0-.66,0-.95-.08s-.76-.56-.85-1a2.74,2.74,0,0,1,2.19-3C258.9,221.29,259.55,221.81,260.1,222.09Z" transform="translate(-18 -19.49)"/><path d="M293.94,215.47a3.52,3.52,0,0,1,1.79-1.45c.79-.15,1.2.53,1.52,1.07a1.15,1.15,0,0,0,1.17.64c1.23.14,1.59.61,1.7,1.19a7.8,7.8,0,0,1-.84,3.72c-.26.37.08.42.52.17a36.66,36.66,0,0,0,9.53-7.83c.22-.32.48-.37.58.16a2.92,2.92,0,0,1-.46,2.11c-3.26,4.46-11.17,9.19-13.63,10.27a2.13,2.13,0,0,1-2.53-.1c-.19-.13-.33,0-.38.29a11.7,11.7,0,0,0-.21,4.47,1.69,1.69,0,0,0,2.16,1.53c2.52-.49,5.51-3.32,6.88-5.5.3-.39.53-.33.62.1a2.71,2.71,0,0,1,0,1.26c-.33,1.1-3.71,6.08-8.12,7-1.58.31-3.64-.76-4.15-3.33C289.21,226.88,291.39,218.59,293.94,215.47Zm2.41,1.7c-1.36.27-2.61,3.9-3,6.11-.05.33.08.42.55.33,2.52-.5,3.9-3.5,3.53-5.34C297.32,217.64,296.93,217.06,296.35,217.17Z" transform="translate(-18 -19.49)"/><path d="M320.52,211.32a4.19,4.19,0,0,1-.62,2.09c-.33.55-.79.7-1.16.5a2.3,2.3,0,0,0-1.3-.24c-.73.15-1.56,1.51-2.49,3.17a53.59,53.59,0,0,0-4.75,13.27c-.17.79-.53,1.14-1,1.23a1.51,1.51,0,0,1-1.35-.5c-.46-.39-.52-1-.36-1.83.49-2.5.41-9.8.33-12.4-.1-1.89,0-2.72.34-3.29s1-1.61,1.52-1.72c.73-.14,1.41.82,1.48,1.46a3,3,0,0,1-.2,1.46,28,28,0,0,0-.6,6.66c0,.76.25.72.6,0a51.26,51.26,0,0,1,4.39-8.45c1.14-1.7,2.14-2.71,3.25-2.93A1.53,1.53,0,0,1,320.52,211.32Z" transform="translate(-18 -19.49)"/><path d="M323.56,214.27c.58-1.48,2.75-6,4.64-6.38a1.09,1.09,0,0,1,1.34.72c0,.16.23.34.67.36a2.31,2.31,0,0,1,2.65,2.1,7.1,7.1,0,0,1-.85,4.8,8.19,8.19,0,0,1-5.45,4.19,2,2,0,0,1-1.3-.24c-.24-.11-.35-.09-.43.31a8.45,8.45,0,0,0-.06,3,2.2,2.2,0,0,0,2.79,2c2.05-.41,4.14-2.57,5-3.56.36-.4.94-.79,1.2-.57a2.53,2.53,0,0,1-.37,1.71c-.82,1.64-3.81,4.74-6.65,5.3-1.89.37-4.22-.91-4.81-3.91C321.56,222.08,322.17,218,323.56,214.27Zm6.76-1.72c-.25-1.26-1.12-1.8-1.8-1.66-1.32.26-2.71,4.24-3.16,6.4-.09.4.05.54.73.41C328.72,217.18,330.73,214.65,330.32,212.55Z" transform="translate(-18 -19.49)"/><path d="M353.74,189.87a1.34,1.34,0,0,1,.41,1.83c-3,6.76-3.93,17.69-4.24,22,0,.77.23.89.6.27a110.87,110.87,0,0,1,6.64-9.23c1.35-1.46,2.14-2.44,3.71-2.75.9-.17,1.48.31,1.19,1.57a66.22,66.22,0,0,0-1.58,11.12c-.13,3.19.52,3.72,1.2,3.58,1.74-.34,6-6.75,9.34-13.25.43-.85,1.21-1.05,1.38-.21.13.68.06,1.68-1.06,3.75-3.58,6.77-8.19,12.75-10.6,13.23-1.32.26-2.77-1-2.76-6.5a60.27,60.27,0,0,1,.51-7.41c.11-1.06-.28-1.15-1-.29a40.57,40.57,0,0,0-7.14,11.12,7.83,7.83,0,0,0-.58,2.9,2,2,0,0,1-1.51,2.26c-.79.16-1.33-1.48-1.4-3.21,0-1.25.65-10,1.35-15.83a77.24,77.24,0,0,1,2.67-13c.63-1.81,1.16-2.41,1.59-2.49S353.19,189.32,353.74,189.87Z" transform="translate(-18 -19.49)"/><path d="M371,204.91c.58-1.48,2.75-6,4.64-6.37a1.08,1.08,0,0,1,1.34.72c0,.15.23.33.67.35a2.31,2.31,0,0,1,2.65,2.1,7.13,7.13,0,0,1-.85,4.81A8.18,8.18,0,0,1,374,210.7a1.91,1.91,0,0,1-1.3-.23c-.24-.12-.35-.1-.43.3a8.51,8.51,0,0,0-.06,3,2.19,2.19,0,0,0,2.8,2c2.05-.4,4.13-2.56,5-3.56.35-.4.93-.78,1.19-.56a2.54,2.54,0,0,1-.37,1.71c-.82,1.63-3.81,4.74-6.65,5.29-1.89.38-4.22-.91-4.81-3.9C369,212.73,369.61,208.62,371,204.91Zm6.76-1.71c-.25-1.27-1.12-1.8-1.8-1.67-1.31.26-2.71,4.25-3.16,6.41-.08.4.05.53.74.4C376.16,207.82,378.17,205.3,377.76,203.2Z" transform="translate(-18 -19.49)"/><path d="M108.23,308.86a2.92,2.92,0,0,1-1.12,2.62c-.51.43-.92.56-1.23.41a.86.86,0,0,1-.4-1,.75.75,0,0,0-1-.74c-1.1.22-2.77,2.29-3.66,4.38a12.66,12.66,0,0,0-1,7.68c.41,2.11,1.73,3,3.2,2.7,3.89-.76,8.86-6.28,11.18-10,.33-.55.7-.63.93-.29a2.32,2.32,0,0,1-.26,1.74c-2.45,5-8.21,10.41-12.62,11.28-2,.39-4.68-.22-5.46-4.16a15.86,15.86,0,0,1,2.06-10.29c1.67-2.89,4.49-5.47,6.65-5.89A2.19,2.19,0,0,1,108.23,308.86Z" transform="translate(-18 -19.49)"/><path d="M126.83,304.92a4.29,4.29,0,0,1-.62,2.09c-.33.55-.79.7-1.16.5a2.32,2.32,0,0,0-1.3-.24c-.74.15-1.56,1.51-2.49,3.17a53,53,0,0,0-4.75,13.27c-.17.79-.54,1.14-1,1.23a1.52,1.52,0,0,1-1.35-.49,1.8,1.8,0,0,1-.37-1.84c.49-2.5.42-9.8.34-12.4-.1-1.89,0-2.72.34-3.29s1-1.61,1.51-1.72c.74-.14,1.42.81,1.49,1.46a3.2,3.2,0,0,1-.2,1.45,28.17,28.17,0,0,0-.6,6.67c0,.76.25.72.6,0a49.77,49.77,0,0,1,4.39-8.45c1.14-1.7,2.14-2.71,3.24-2.93A1.54,1.54,0,0,1,126.83,304.92Z" transform="translate(-18 -19.49)"/><path d="M129.4,308c.69-1.72,2.9-6,4.79-6.41a1.09,1.09,0,0,1,1.34.72c0,.16.23.34.68.36a2.32,2.32,0,0,1,2.65,2.1,7.15,7.15,0,0,1-.86,4.8,8.11,8.11,0,0,1-5.29,4.16,2.35,2.35,0,0,1-1.51-.19c-.24-.12-.4-.09-.49.31a7.56,7.56,0,0,0,.09,2.38c.42,2.11,1.73,2.94,3.25,2.64,3.89-.77,9-6.3,11.34-10.31.25-.38.51-.43.74-.1a2.39,2.39,0,0,1-.24,1.8c-2.44,5.06-7.89,10.39-12.56,11.31-2.05.41-4.68-.22-5.45-4.1C127.41,315.06,128,311.28,129.4,308Zm6.91-1.75c-.25-1.26-1.12-1.8-1.8-1.66-1.37.27-3,4.31-3.32,6.44-.08.4.21.5.9.37C134.66,310.85,136.67,308.32,136.31,306.21Z" transform="translate(-18 -19.49)"/><path d="M143.93,310.82a30.14,30.14,0,0,1,4.75-9.72c1.77-2.37,3.18-2.92,3.76-3a2.1,2.1,0,0,1,1.63.77c.09.2.31.21.54,0a.73.73,0,0,1,.94-.24,1,1,0,0,1,.77,1.43,28.75,28.75,0,0,0-.9,10.11c.23,2.25.62,4,1.73,3.75,1.52-.3,4.76-6,8.37-13.44.41-.95,1.12-1,1.25-.3a7.62,7.62,0,0,1-1,4c-2.84,5.8-6.05,12.21-9.41,12.88-1.42.28-2.63-1.18-3-3.55-.2-1-.24-2.57-.38-3-.07-.31-.19-.39-.38,0a58.08,58.08,0,0,1-4,6.47,5.53,5.53,0,0,1-2.74,2.18,2.55,2.55,0,0,1-2.71-2.14C142.94,316,142.93,314.29,143.93,310.82Zm2.93,4.61c.42-.08,1.16-.78,1.92-1.91a41.37,41.37,0,0,0,3-5.55,24.71,24.71,0,0,0,1.26-3.86,3.59,3.59,0,0,0-.13-2c-.22-.61-.64-1.07-1.33-.94s-1.7,1.32-2.78,3.33-3.25,7.85-2.79,10.21C146.11,315.2,146.39,315.52,146.86,315.43Z" transform="translate(-18 -19.49)"/><path d="M175,307.31c.63-.67,1,.08.58.76a21.76,21.76,0,0,1-6.61,6.05,4.87,4.87,0,0,1-1.82.74,3,3,0,0,1-3.48-2.15,7.9,7.9,0,0,1,.13-2.7c.23-1.57.88-7.43,1.14-8.57.07-.51,0-.6-.47-.45-.62.17-1.8.57-2.31.72a1.53,1.53,0,0,1-1.17-.09.89.89,0,0,1-.14-1.29,2.2,2.2,0,0,1,1.27-1c.76-.31,1.67-.66,2.65-1a1.07,1.07,0,0,0,.76-.86c.17-.8.86-5.9,1.15-7.16a2.77,2.77,0,0,1,1.73-2,.9.9,0,0,1,1,.41,1.83,1.83,0,0,1,.36,1.84,63.3,63.3,0,0,0-1.38,6.28c-.08.45.18.4.6.31,1.57-.36,5.87-1.53,8.81-2.11,1.1-.22.71.84-.14,1.22a81.24,81.24,0,0,1-9.15,3.44c-.55.22-.7.31-.81.87a56.42,56.42,0,0,0-.94,8.76c0,1.9.67,2.59,1.93,2.35C171,311.21,174,308.34,175,307.31Z" transform="translate(-18 -19.49)"/><path d="M202.44,288.7a1.49,1.49,0,0,1,1.07,1c.13.63-.6,1.1-1.49,1.27-2.73.54-5.88,3.4-5.51,5.29.17.84.67,1.72,2.18,3.28a9.29,9.29,0,0,1,2.63,4,3.81,3.81,0,0,1-.93,3,11.72,11.72,0,0,1-5.21,3.48c-.73.15-1.86,0-2-.91s.95-2.09,1.71-2.68a1.06,1.06,0,0,1,1.06-.15,2.45,2.45,0,0,0,1.67-.12c.61-.22,1.32-1,1.2-1.65a5.28,5.28,0,0,0-1.3-2.15,34.11,34.11,0,0,1-2.81-3.21,4.14,4.14,0,0,1-.7-3.24A66.33,66.33,0,0,1,183.59,303a2.47,2.47,0,0,1-2.65-.14c-.24-.11-.42.09-.47.37a11.81,11.81,0,0,0-.24,4.58,1.69,1.69,0,0,0,2.15,1.54c2.74-.54,5.92-3.79,7.28-6,.29-.44.59-.34.67.08a2.61,2.61,0,0,1-.09,1.22c-.35,1-3.72,6.58-8.5,7.52-1.58.31-3.65-.76-4.15-3.33-.85-4.31,1.28-12.59,3.83-15.71a3.34,3.34,0,0,1,1.84-1.45c.79-.16,1.21.58,1.52,1.06a1.14,1.14,0,0,0,1.16.64c1.23.14,1.6.62,1.71,1.2.22,1.1-.65,3.07-.88,3.55s.08.42.46.13a62.5,62.5,0,0,0,7.87-5.75c.28-.28.54-.6.76-.86a9.7,9.7,0,0,1,4.57-2.87A4.11,4.11,0,0,1,202.44,288.7Zm-18.91,11.2a5,5,0,0,0,1.45-4c-.13-.68-.57-1.25-1.19-1.07-1.42.28-2.67,4.73-2.88,5.86,0,.34.09.48.61.37A3.83,3.83,0,0,0,183.53,299.9Z" transform="translate(-18 -19.49)"/><path d="M226.25,284.6a6.49,6.49,0,0,1-.73,2.38,27.15,27.15,0,0,0-1.42,7.76c0,.55.3.65.53.17a59.41,59.41,0,0,1,6.1-9.17,12.78,12.78,0,0,1,2.1-2.11,2.17,2.17,0,0,0,.81-1.14c.23-.48.48-.91.84-1a1.39,1.39,0,0,1,1.19.48c.64.47.66,1.13.46,2a20.42,20.42,0,0,0-1,3,43.28,43.28,0,0,0-1.09,7.47c-.18,4.08,1.14,5.23,2.5,5,2.47-.48,6.25-7.07,8.25-11.06.23-.48.53-.6.7-.3a2.13,2.13,0,0,1-.16,1.94c-3.28,8.28-6.72,11.58-9.46,12.12-2.31.46-4.46-1.9-4.35-7.16a40.57,40.57,0,0,1,.48-5.83c.13-1,.13-1.28-.06-1.4s-.5.2-1,.85a41.5,41.5,0,0,0-6.26,11.12c-.42.95-.62,2.41-1,3.13a1.55,1.55,0,0,1-.87.83,1.16,1.16,0,0,1-1.08-.49,5.21,5.21,0,0,1-.45-2.81,71.26,71.26,0,0,1,1-11.5c.16-1.12.07-1.59-.51-1.48a4.54,4.54,0,0,0-3.31,4,.93.93,0,0,1-.67.74,1.86,1.86,0,0,1-2.11-1.28c-.23-1.15,1.24-2.59,2.3-3.29A32.14,32.14,0,0,1,222,285a3,3,0,0,0,1.22-1,1.36,1.36,0,0,1,1-.74A1.84,1.84,0,0,1,226.25,284.6Z" transform="translate(-18 -19.49)"/><path d="M247.41,280.05a3.44,3.44,0,0,1,1.79-1.45c.78-.15,1.19.53,1.51,1.07a1.16,1.16,0,0,0,1.17.64c1.23.14,1.59.61,1.71,1.19a7.8,7.8,0,0,1-.85,3.72c-.26.38.08.42.52.17a36.83,36.83,0,0,0,9.54-7.83c.21-.32.47-.37.57.16a2.91,2.91,0,0,1-.45,2.11c-3.27,4.46-11.18,9.19-13.64,10.27a2.13,2.13,0,0,1-2.53-.1c-.19-.13-.33,0-.38.29a11.71,11.71,0,0,0-.21,4.47,1.7,1.7,0,0,0,2.16,1.54c2.52-.5,5.51-3.33,6.88-5.51.31-.39.54-.32.62.1a2.84,2.84,0,0,1,0,1.26c-.33,1.1-3.72,6.08-8.13,7-1.58.31-3.64-.76-4.15-3.33C242.67,291.46,244.86,283.17,247.41,280.05Zm2.41,1.7c-1.37.27-2.62,3.9-3,6.11,0,.33.08.42.55.33,2.53-.5,3.9-3.5,3.54-5.34C250.78,282.22,250.39,281.64,249.82,281.75Z" transform="translate(-18 -19.49)"/><path d="M280.54,282.85a10.82,10.82,0,0,0,.94-4.39,4.56,4.56,0,0,0-1.17-2.06c-.68-.69-.52-1.26-.09-2.11a3.75,3.75,0,0,1,1.89-2c1.05-.21,1.71,1.19,2,2.71.73,4.22-2.61,11.1-4.56,13.94a28.57,28.57,0,0,1-3.1,3.67,7.3,7.3,0,0,1-2.26,1.26c-.94.19-2.42-.94-2.87-3.47a27.83,27.83,0,0,1-.22-3.34c0-.48-.28-.6-.61,0-1,1.51-3.94,5.74-4.73,6.72a8.06,8.06,0,0,1-3.19,2.37c-1.1.22-2-1.14-2.12-2.2a8.61,8.61,0,0,1-.19-2,43.2,43.2,0,0,1,.86-8.35,10.25,10.25,0,0,0,.21-1.19c0-.61,0-1,.1-1.71a10.1,10.1,0,0,1,1-3.36,2.51,2.51,0,0,1,1.49-1.33c.57-.11,1.54.63,1.77,1s.22.83-.31,1.48a11.09,11.09,0,0,0-1.57,3.69,32.41,32.41,0,0,0-.82,7.15c0,1.81.32,2.72.75,2.69s.91-.34,1.64-1.08a72,72,0,0,0,4.91-7.47,10.47,10.47,0,0,0,1-2.76A29.26,29.26,0,0,1,272,277a4,4,0,0,1,2.24-2.19c.68-.13,1.21.58,1.32,1.44.07.36-.09.67-.42,1.44a15.63,15.63,0,0,0-1.58,6.43,25.17,25.17,0,0,0,.26,4.36c.25,1.54,1.07,1.81,1.6,1.71C276.9,289.84,279.41,285.42,280.54,282.85Z" transform="translate(-18 -19.49)"/><path d="M297.87,280.47a30.05,30.05,0,0,1,4.74-9.73c1.77-2.36,3.19-2.92,3.77-3a2.11,2.11,0,0,1,1.62.77c.1.2.32.21.55,0a.73.73,0,0,1,.93-.24,1,1,0,0,1,.78,1.43,28.53,28.53,0,0,0-.9,10.11c.22,2.25.62,4,1.72,3.76,1.52-.3,4.76-6,8.37-13.44.42-1,1.12-1,1.25-.3a7.54,7.54,0,0,1-1,3.95c-2.84,5.8-6.05,12.22-9.41,12.88-1.42.28-2.64-1.17-3.05-3.54-.2-1-.24-2.58-.38-3s-.19-.4-.38,0a60,60,0,0,1-4,6.47,5.42,5.42,0,0,1-2.73,2.17,2.55,2.55,0,0,1-2.72-2.13C296.88,285.68,296.86,283.94,297.87,280.47Zm2.92,4.6c.43-.08,1.16-.77,1.92-1.9a41.13,41.13,0,0,0,3-5.56,23.62,23.62,0,0,0,1.26-3.85,3.52,3.52,0,0,0-.12-2c-.23-.61-.65-1.07-1.33-.93s-1.71,1.31-2.78,3.33c-1.22,2.15-3.26,7.84-2.79,10.21C300,284.84,300.32,285.17,300.79,285.07Z" transform="translate(-18 -19.49)"/><path d="M323.7,265.88a.51.51,0,0,1-.37.62c-.51.2-.78.75-1.09,1.68a40,40,0,0,0-1,7.51c0,.54.29.65.56.1a55.05,55.05,0,0,1,6-9.21,12.5,12.5,0,0,1,2.1-2.1,2.16,2.16,0,0,0,.81-1.15c.23-.48.48-.91.84-1a1.41,1.41,0,0,1,1.19.47c.64.48.66,1.13.46,2a22.07,22.07,0,0,0-1,3,43.54,43.54,0,0,0-1.09,7.48c-.18,4.07,1.14,5.23,2.5,5,2.47-.49,6.25-7.07,8.24-11.07.24-.48.54-.6.71-.3s.23.88-.18,1.84c-3.26,8.39-6.7,11.69-9.43,12.23-2.32.45-4.47-1.91-4.37-7.22a40.71,40.71,0,0,1,.48-5.83c.14-.95.14-1.22,0-1.35s-.52.16-1,.86a44,44,0,0,0-6.92,13c-.24.7-.64,1.76-1.21,1.88a1.39,1.39,0,0,1-1.14-.49,4,4,0,0,1-.4-2.32c.19-7.35.9-12.89,1.48-14.92s1.15-2.46,1.78-2.59C322.54,263.87,323.55,265.14,323.7,265.88Z" transform="translate(-18 -19.49)"/><path d="M352.43,273.74a17.79,17.79,0,0,1-.37-4.62c0-.49-.23-.33-.42.09a41.31,41.31,0,0,1-4.9,7.79c-1.78,2-3.71,3.35-4.44,3.49s-2.06-.19-2.51-2.51c-.5-2.52.48-8.06,3-12.22,2.24-3.61,4.76-5.47,6.71-5.85a4,4,0,0,1,1.93.11c.34.09.6,0,.64-.35,1.14-6.12,2.35-12.14,2.75-13.75.16-.84.39-1.06.65-1.11s.61.05,1.16.65a1.62,1.62,0,0,1,.69,1.83c-.28,1.63-1.53,5.81-2.35,11-.7,4.45-.91,10.05-.33,13.27.37,2.16,1.05,3.12,2.05,2.92,1.58-.31,2.58-2.14,3.09-3.44.36-.67.93-.79,1.11-.17a4,4,0,0,1-.26,2.29c-.67,1.55-2.72,3.92-4.92,4.36C354,277.92,352.8,275.91,352.43,273.74Zm-9,3.19c.79-.15,2.19-1.36,3.74-3.74,1.89-2.88,3.9-7.37,4.07-9.26a1.18,1.18,0,0,0-.34-1.18,2.28,2.28,0,0,0-1.88-.4c-1.68.33-3.71,3.35-5.11,6.74-1.56,3.75-1.72,6-1.54,6.91C342.54,276.73,343,277,343.45,276.93Z" transform="translate(-18 -19.49)"/><path d="M82.9,368.76a1.12,1.12,0,0,1,.48,1.33c-.11,1.38.32,1.9,1.35,3.22a.79.79,0,0,0,1.46-.07c2.09-3.24,3.11-4.7,3.92-5.84a4,4,0,0,1,2.36-1.89,1.41,1.41,0,0,1,1.58.56,5.39,5.39,0,0,1,1.47,2.72c.14.73,0,1.47-.41,1.55a1.8,1.8,0,0,1-1.4-.76,1.8,1.8,0,0,0-1.57-.73c-1,.2-3.31,3.93-4.43,6-.45.79-.61,1.37-.3,1.8A25.76,25.76,0,0,0,91,381a3.8,3.8,0,0,0,2.54,1.24c.78-.15,2.52-2.13,3.15-3.08.34-.5.51-.2.61.32a2.82,2.82,0,0,1-.45,1.56c-.56,1-2.44,3.7-4.12,4-.89.18-2.66-1.05-3.9-2.34s-2.36-2.81-3.06-3.6a.61.61,0,0,0-1,0,13.25,13.25,0,0,0-2.28,4.76,1.37,1.37,0,0,1-.79,1.25,4.76,4.76,0,0,0-1.34,1.52c-.47.64-1.65,2.67-2.49,2.84a1.32,1.32,0,0,1-1-.35,1.26,1.26,0,0,1-.17-1.71c.39-1.06,1.52-3.91,2.95-4.41a2.13,2.13,0,0,0,1.19-1.16c1.26-2.21,2.24-3.88,2.49-4.53.24-.43.38-.84.21-1.13A27.64,27.64,0,0,0,81.23,373a1.5,1.5,0,0,0-1.47-.53c-2.44.87-7.74,5.3-10.33,7.39a1.94,1.94,0,0,1-2.09.47c-.31-.22-.66,0-.84.71a12.7,12.7,0,0,0,.1,4.67,1.65,1.65,0,0,0,1.93,1.48c1.16-.23,3.82-2.78,5-4.42.46-.69.86-.61,1-.19a1.69,1.69,0,0,1-.22,1.41c-1.3,2.27-4.47,5.57-6.25,5.92a4,4,0,0,1-4.37-3.34c-.61-3.1.45-7.4,1.4-10,.78-2.39,2.75-6.55,4.17-6.83a1,1,0,0,1,1.22,1c0,.21.26.17.52.12a3,3,0,0,1,3.41,1.51c.3.43.66.58,1,.4,1-.57,2.1-1.28,3.09-1.75.51-.21.7-.36.78-.76.22-.59.78-1.9,1.67-2.07A2.64,2.64,0,0,1,82.9,368.76Zm-15.56,8.53c-.19.69.1,1.07.69.74a17.63,17.63,0,0,0,3.49-2.49c.52-.43,1.1-1.09.88-1.65A2.61,2.61,0,0,0,70,372.73C68.73,373,67.71,375.85,67.34,377.29Z" transform="translate(-18 -19.49)"/><path d="M110,363.91a2.9,2.9,0,0,1-1.12,2.62c-.51.43-.92.57-1.23.41a.86.86,0,0,1-.4-1,.75.75,0,0,0-1-.74c-1.1.22-2.77,2.3-3.66,4.38a12.69,12.69,0,0,0-1.05,7.69c.41,2.1,1.73,3,3.2,2.69,3.89-.76,8.86-6.27,11.18-10,.33-.56.69-.63.92-.3a2.28,2.28,0,0,1-.25,1.75c-2.45,5-8.21,10.4-12.62,11.27-2,.39-4.68-.22-5.46-4.16a15.88,15.88,0,0,1,2.06-10.29c1.67-2.89,4.49-5.47,6.65-5.89A2.2,2.2,0,0,1,110,363.91Z" transform="translate(-18 -19.49)"/><path d="M120.19,362.72c-1.09,2.51-2.48,9.28-2.17,12.22.08.69.35,1.24.67,1.17a3,3,0,0,0,1.31-.8c3.58-3.44,7.24-9.51,9.79-14.86.26-.6.62-.45.75.23a6.54,6.54,0,0,1-.78,3.21,53,53,0,0,1-9.52,14c-1.33,1.3-2.39,2.27-3.34,2.46a1.77,1.77,0,0,1-1.45-.42,1.41,1.41,0,0,1-.28-1.42,20.71,20.71,0,0,0,0-2.57c.17-3,.49-6.1.71-7.46a5.73,5.73,0,0,0,.17-1.12,8.34,8.34,0,0,1,0-1.48,16.15,16.15,0,0,1,.58-2,14.37,14.37,0,0,1,1.62-3.15c.51-.7,1-.73,1.3-.31A2.11,2.11,0,0,1,120.19,362.72Zm2.12-11.93a11,11,0,0,0,.23,4.21c.18.62-.14.9-.85.66a2.53,2.53,0,0,1-1.51-1.29,8.75,8.75,0,0,1-.8-2.41c-.3-1.79.4-2.15,1.08-2.28C121.77,349.42,122.46,349.88,122.31,350.79Z" transform="translate(-18 -19.49)"/><path d="M130.2,354.52a8.67,8.67,0,0,1,.75-2.87,1.62,1.62,0,0,1,1.35-1.14c.53-.11,1,.52,1.14,1.36a6.3,6.3,0,0,1-.61,2.95,14.72,14.72,0,0,0-.7,2.82,18.57,18.57,0,0,0-.27,2c-.11.84.11,1.12.58,1,3.31-.65,9.66-3.05,11.27-4.57.28-.27.46-.2.5,0a2.18,2.18,0,0,1-.32,1.43c-1.51,2-7.39,4.35-11.78,5.6a1.24,1.24,0,0,0-.9,1.21c-.11,1.12-.89,5.2-1.12,7.65-.07,1.26.52,2.08,1,2,.89-.17,3-1.74,4.66-3.76.62-.72,1.16-1,1.27-.46.14.41-.41,1.5-.74,2.05-1.2,1.93-4.92,5.5-6.86,5.88-1,.2-2.2-1.2-2.29-1.62a3.49,3.49,0,0,1,.3-1.8,3.93,3.93,0,0,0,.18-1.62,8.75,8.75,0,0,1,0-2c.1-.9.66-4.67.76-5.83,0-.55-.14-.74-.72-.62l-.32.06a3.29,3.29,0,0,1-2.21-.16,2.37,2.37,0,0,1-.73-1.22.65.65,0,0,1,.71-.8,23.65,23.65,0,0,0,3-.42,1.22,1.22,0,0,0,1-.86,20.72,20.72,0,0,0,.4-2.1,21.13,21.13,0,0,1,.45-2.43C130.08,355.86,130.09,355,130.2,354.52Z" transform="translate(-18 -19.49)"/><path d="M145.31,357.77c-1.09,2.5-2.49,9.27-2.18,12.21.08.7.35,1.24.67,1.18a3,3,0,0,0,1.32-.8c3.57-3.44,7.23-9.51,9.78-14.87.26-.6.62-.45.75.24a6.54,6.54,0,0,1-.78,3.21,53,53,0,0,1-9.52,14c-1.33,1.3-2.39,2.27-3.34,2.46a1.71,1.71,0,0,1-1.44-.43,1.37,1.37,0,0,1-.28-1.41,19.47,19.47,0,0,0,0-2.58c.17-3,.49-6.1.72-7.45a5.55,5.55,0,0,0,.16-1.12,9.4,9.4,0,0,1,0-1.48,15.67,15.67,0,0,1,.59-2,14.13,14.13,0,0,1,1.61-3.15c.52-.71.95-.74,1.31-.32A2.16,2.16,0,0,1,145.31,357.77Zm2.12-11.94a10.56,10.56,0,0,0,.23,4.21c.17.63-.15.91-.85.66a2.46,2.46,0,0,1-1.51-1.28,8.13,8.13,0,0,1-.8-2.41c-.3-1.79.39-2.15,1.07-2.28C146.89,344.47,147.58,344.93,147.43,345.83Z" transform="translate(-18 -19.49)"/><path d="M158.56,353.84a.5.5,0,0,1-.37.62c-.5.21-.78.76-1.09,1.69a40.73,40.73,0,0,0-1,7.51c0,.54.29.65.56.1a53.63,53.63,0,0,1,6.05-9.21,13,13,0,0,1,2.09-2.11,2.13,2.13,0,0,0,.81-1.14c.24-.48.48-.91.85-1a1.34,1.34,0,0,1,1.18.47c.64.48.66,1.13.46,2a23,23,0,0,0-1,3,43.42,43.42,0,0,0-1.09,7.47c-.18,4.08,1.14,5.24,2.51,5,2.46-.49,6.24-7.08,8.24-11.07.23-.48.53-.6.7-.3s.23.88-.18,1.83c-3.26,8.4-6.7,11.7-9.43,12.23-2.31.46-4.47-1.9-4.37-7.21a38.9,38.9,0,0,1,.49-5.83c.13-1,.13-1.23,0-1.35s-.52.15-1,.86a44.09,44.09,0,0,0-6.93,13c-.24.7-.63,1.76-1.21,1.88a1.37,1.37,0,0,1-1.13-.49c-.33-.26-.44-1.39-.41-2.32.19-7.35.9-12.9,1.48-14.92s1.15-2.46,1.78-2.59C157.4,351.84,158.41,353.11,158.56,353.84Z" transform="translate(-18 -19.49)"/><path d="M189.49,349.05a3.25,3.25,0,0,1-1.19,2.86c-.26.32-.24.43-.09.62a2.14,2.14,0,0,1,.23,1.15c0,2.51-.13,10.45-.14,12-.21,6.42-1.53,11.87-4.59,16.29a13.06,13.06,0,0,1-6.42,4.54,12.25,12.25,0,0,1-2.08.25,4.84,4.84,0,0,0-1.78.08c-1.06.2-2.8-.33-3-1.22s1-2.39,2-2.59a3,3,0,0,1,1.83.68,4.08,4.08,0,0,0,3.1.53c2.21-.43,4.67-2.88,6.27-6.69,1.52-3.63,1.82-7.4,1.91-11.89a47.84,47.84,0,0,0-.17-6.95c0-.76-.33-.32-.75.36a50.32,50.32,0,0,1-3.85,5.89c-.67.79-2.43,2.94-3.69,3.19s-2.19-1.15-2.49-2.68c-.48-2.42.26-5.62,1.87-9.05a22.68,22.68,0,0,1,5.78-7.52,10.94,10.94,0,0,1,3.61-2.13A3,3,0,0,1,189.49,349.05Zm-11,15.22c1.37-.27,4-4.77,4.68-5.89a40,40,0,0,0,2.36-4.94,2.08,2.08,0,0,1,1.05-1,1.18,1.18,0,0,0,.61-.5,1.55,1.55,0,0,0,.29-1c-.17-.84-1.16-1.14-2.15-.95-2.21.44-4.77,3.24-6.07,5.78-1,2.06-1.91,5.51-1.52,7.51C177.85,363.9,178.15,364.33,178.46,364.27Z" transform="translate(-18 -19.49)"/><path d="M203.34,354.51a30.11,30.11,0,0,1,4.74-9.72c1.77-2.37,3.19-2.92,3.77-3a2.15,2.15,0,0,1,1.62.77c.1.2.32.22.55,0a.72.72,0,0,1,.93-.24,1,1,0,0,1,.78,1.43,28.49,28.49,0,0,0-.9,10.11c.22,2.24.62,4,1.72,3.75,1.52-.3,4.76-6,8.37-13.44.42-.95,1.12-1,1.25-.3a7.54,7.54,0,0,1-1,4c-2.84,5.8-6.05,12.22-9.41,12.88-1.42.28-2.64-1.17-3.05-3.54-.2-1-.23-2.57-.38-3-.06-.31-.19-.4-.38,0a59,59,0,0,1-4,6.47,5.51,5.51,0,0,1-2.73,2.18,2.57,2.57,0,0,1-2.72-2.14C202.35,359.73,202.33,358,203.34,354.51Zm2.93,4.61c.42-.09,1.15-.78,1.91-1.91a40.5,40.5,0,0,0,3-5.56,23.32,23.32,0,0,0,1.26-3.85,3.5,3.5,0,0,0-.12-2c-.23-.61-.65-1.08-1.33-.94s-1.71,1.32-2.78,3.33c-1.22,2.15-3.26,7.85-2.79,10.21C205.51,358.88,205.79,359.21,206.27,359.12Z" transform="translate(-18 -19.49)"/><path d="M255.69,345.17c-.23.48,0,.61.43.24a37.45,37.45,0,0,0,8.46-8.54c.38-.57.71-.58.78-.21a2.77,2.77,0,0,1-.31,1.75c-1.82,3.74-7.16,8.78-10.13,10.62a13.33,13.33,0,0,0-2.47,2.13,33.68,33.68,0,0,1-4.76,3.28,1.84,1.84,0,0,1-2.16-.17c-.31-.22-.39,0-.53.64-.22,1.09-1.79,9.75-1.76,12.36,0,.94.46,1,1.28.4a25.72,25.72,0,0,1,3.34-1.59c1.07-.37,1,.51.42,1-1.87,1.57-3.38,3.07-5,4.15a4.35,4.35,0,0,1-1.63.87,1.51,1.51,0,0,1-.76,0c-.55-.27-1.18-.69-1.27-1.17a2.17,2.17,0,0,1,.39-1.33c.53-.65.5-1.35.58-2.57s1.19-7.55,1.71-11.58c.57-4.58.82-9.11,1.29-13.9a48.88,48.88,0,0,1-10.09,11.38,3.81,3.81,0,0,0-1.29,1.46,40.52,40.52,0,0,1-2.53,3.22,2.28,2.28,0,0,1-1.2.84,1.62,1.62,0,0,1-1.76-.91c-.2-1,.91-2.58,1.63-3.32.41-.41,1.71-1.59,2.73-2.5a13.07,13.07,0,0,0,3.3-3.76,9.89,9.89,0,0,0,.75-5.88,1.28,1.28,0,0,0-1.54-1.17c-2,.38-5.2,6-6,7.89-1.27,2.7-1.65,6-2,9.57-.82,7.75-2,11.91-2.88,14.16-.22.58-.05.88.23.88a7.92,7.92,0,0,0,2.3-.78c.9-.4,1.1.05.5.88a13.31,13.31,0,0,1-4,3.09,10.31,10.31,0,0,1-2.15.75c-1.36.27-1.92-.33-2-.86s.4-1.28,1.7-1.91c.4-.19.83-.49,1.34-1.74a79.57,79.57,0,0,0,2.31-12.41c.46-4,.74-7.57.88-11,.14-4.23.2-5.61.35-7.06s.27-4.2,2-4.53a2.17,2.17,0,0,1,1.7.59c.38.31.25.72.05,1.09-.53.92-1.15,2.51-1.42,6.39,0,.71.28.87.58.43,1.22-2.37,3.26-5.61,5.68-7.45a5.88,5.88,0,0,1,2.37-1.24c1.16-.22,2.52,1.69,2.78,3a15.58,15.58,0,0,1-.27,5c-.14.36-.06.51.25.17a35,35,0,0,0,6-7.84,9.81,9.81,0,0,1,.4-2.09,2.78,2.78,0,0,1,1.9-2,1.94,1.94,0,0,1,1.49.36c.5.34.46.68.17,1.12-.92,1.16-1.37,2.78-1.65,6.33-.13.73.24.66.54.22a26.26,26.26,0,0,1,5.62-6.9,5.2,5.2,0,0,1,1.91-1.14c1.57-.31,2.75,2.35,2.94,3.3C257.67,340.25,256.18,344,255.69,345.17Zm-2.84-7.74c-.26.05-1.07.38-2.47,2.13-3.23,4.07-4.62,7.29-5,11.19,0,.83.14,1.23,1,1.06a13.63,13.63,0,0,0,3.78-2.11,6.82,6.82,0,0,0,2.43-2.93c.93-1.93,2.23-5.85,1.81-8.22A1.22,1.22,0,0,0,252.85,337.43Z" transform="translate(-18 -19.49)"/><path d="M269.34,317.53c1.17.92,1.05,2,.57,3.44a112.72,112.72,0,0,0-4.47,22.71c-.21,3.65.56,4.2,1.24,4.07,1.42-.28,6.53-6.75,10.71-13.79.44-.8,1.07-.92,1.25,0a4.7,4.7,0,0,1-.83,3c-4.37,7.19-9.21,13.33-12.47,14-1,.21-2.15-1.21-2.51-3-.22-1.1-.32-6.32,1.35-15,1.94-10.09,3.2-14,3.62-14.85a1.23,1.23,0,0,1,.8-.65A.88.88,0,0,1,269.34,317.53Z" transform="translate(-18 -19.49)"/><path d="M276.69,348.12a1.31,1.31,0,0,1-.34-1.41,12.62,12.62,0,0,0,.1-2.58c.22-3.05.54-6.11.76-7.46a8.74,8.74,0,0,0,.11-1.12,9,9,0,0,1,.09-1.49,9.88,9.88,0,0,1,.53-2,12.6,12.6,0,0,1,1.67-3.17c.51-.7.94-.73,1.25-.3a2.23,2.23,0,0,1,.62,2.33,33.56,33.56,0,0,0-2.15,11.23c.12.91.26,1.32.63,1.24s1.66-1.52,2.77-3.11c3.62-4.86,9.34-13.24,13.75-14.11.73-.15,1.24.19,1.3.5s-.37.62-.66.79c-4.47,2-8.82,8.18-13.82,15.17-1,1.4-3.9,5.68-4.85,5.86A2.56,2.56,0,0,1,276.69,348.12Zm7.09-29.07a11,11,0,0,0,.23,4.22c.18.62-.15.9-.85.65a2.49,2.49,0,0,1-1.51-1.28,8.13,8.13,0,0,1-.8-2.41c-.3-1.79.39-2.15,1.08-2.28S284,317.86,283.78,319.05Z" transform="translate(-18 -19.49)"/><path d="M300.13,326.42A2.92,2.92,0,0,1,299,329c-.51.43-.92.56-1.23.4a.84.84,0,0,1-.4-.95.75.75,0,0,0-1-.74c-1.1.22-2.77,2.29-3.66,4.38a12.66,12.66,0,0,0-1.05,7.68c.41,2.11,1.73,3,3.2,2.7,3.89-.77,8.86-6.28,11.18-10,.33-.55.7-.62.93-.29a2.32,2.32,0,0,1-.26,1.74c-2.45,5-8.21,10.41-12.62,11.28-2,.39-4.68-.23-5.46-4.16a15.86,15.86,0,0,1,2.06-10.29c1.67-2.89,4.49-5.47,6.65-5.89A2.19,2.19,0,0,1,300.13,326.42Z" transform="translate(-18 -19.49)"/><path d="M305.21,334.42A29.91,29.91,0,0,1,310,324.7c1.77-2.37,3.19-2.92,3.76-3a2.14,2.14,0,0,1,1.63.78c.09.2.31.21.55,0a.72.72,0,0,1,.93-.24,1,1,0,0,1,.77,1.43,28.49,28.49,0,0,0-.89,10.11c.22,2.25.61,4,1.72,3.75,1.52-.3,4.76-6,8.37-13.44.41-.95,1.12-1,1.25-.3a7.67,7.67,0,0,1-1,4c-2.84,5.8-6.05,12.21-9.42,12.88-1.41.28-2.63-1.17-3-3.55-.2-1-.24-2.57-.38-3-.07-.31-.19-.39-.38,0a59,59,0,0,1-4,6.47,5.48,5.48,0,0,1-2.74,2.18,2.56,2.56,0,0,1-2.71-2.14C304.21,339.64,304.2,337.89,305.21,334.42Zm2.92,4.61c.42-.08,1.16-.78,1.92-1.91a40.25,40.25,0,0,0,3-5.55,24.71,24.71,0,0,0,1.26-3.86,3.5,3.5,0,0,0-.12-2c-.23-.61-.65-1.07-1.34-.94s-1.7,1.32-2.78,3.33-3.25,7.85-2.79,10.21C307.38,338.79,307.66,339.12,308.13,339Z" transform="translate(-18 -19.49)"/><path d="M328,315.52a8.72,8.72,0,0,1,.75-2.88,1.62,1.62,0,0,1,1.35-1.14c.53-.1,1,.52,1.14,1.36a6.31,6.31,0,0,1-.61,3,14.61,14.61,0,0,0-.7,2.81,18.57,18.57,0,0,0-.27,2c-.11.84.11,1.13.58,1,3.31-.65,9.66-3.05,11.27-4.56.28-.28.45-.2.5,0a2.22,2.22,0,0,1-.32,1.42c-1.51,2.05-7.39,4.35-11.78,5.6a1.25,1.25,0,0,0-.9,1.22c-.11,1.11-.89,5.19-1.12,7.64-.07,1.27.52,2.08,1.05,2,.89-.18,3-1.75,4.66-3.76.62-.72,1.16-1.05,1.27-.47.14.41-.41,1.5-.74,2.05-1.2,1.93-4.92,5.5-6.86,5.89-1,.19-2.2-1.2-2.29-1.63a3.49,3.49,0,0,1,.3-1.8,3.91,3.91,0,0,0,.18-1.62,8.75,8.75,0,0,1,0-2c.1-.89.66-4.66.76-5.83,0-.54-.14-.73-.72-.62l-.32.06a3.24,3.24,0,0,1-2.21-.16,2.33,2.33,0,0,1-.73-1.22.65.65,0,0,1,.71-.8,22.35,22.35,0,0,0,3-.42,1.19,1.19,0,0,0,1-.86,20.21,20.21,0,0,0,.4-2.1,22.05,22.05,0,0,1,.45-2.43C327.88,316.85,327.89,316,328,315.52Z" transform="translate(-18 -19.49)"/><path d="M338.82,334.67a4.15,4.15,0,0,1-.83-3.11c.1-1.17.54-5,.8-6.71a6.61,6.61,0,0,0,.08-1.27A5.28,5.28,0,0,1,339,322c.46-1.83,2-5.63,3.1-5.85a.83.83,0,0,1,.71.25,1.76,1.76,0,0,1,.46,2.09,57.86,57.86,0,0,0-2.58,12.08c-.14,2,.46,2.58,1.3,2.41,2.83-.56,7.49-7.09,10.2-11.34.38-.57.76-.59.86-.06a2.91,2.91,0,0,1-.26,1.69c-1.63,3.92-6.15,9.51-8.83,11.4a7,7,0,0,1-2.61,1.44C340.65,336.22,339.83,335.89,338.82,334.67Zm5.38-27a14.89,14.89,0,0,0,.4,4c.18.67-.27.87-1,.63a2.58,2.58,0,0,1-1.72-1.51,8.12,8.12,0,0,1-.62-2c-.22-1.7.29-2.13,1.13-2.3C343.42,306.26,344.27,306.69,344.2,307.69Z" transform="translate(-18 -19.49)"/><path d="M357.69,331.82a8.94,8.94,0,0,1-3.09,1.76,4.61,4.61,0,0,1-3.93-3.87c-.58-2.94.32-6.66,2-11a17.92,17.92,0,0,1,2.57-4.71,4.81,4.81,0,0,1,2.35-1.61c.9-.17,2,.91,2.75,1.48a2.24,2.24,0,0,0,1,.41,9.56,9.56,0,0,0,4.07-.09,17.13,17.13,0,0,0,5.76-2.34c.38-.29.7-.3.78.07.1.52-.28,1.36-1.28,2.1a19.7,19.7,0,0,1-5.41,2.44,15.56,15.56,0,0,1-2.35.29c-.27,0-.28.22-.11.52a8.52,8.52,0,0,1,.53,1.86C364,323,360.51,329.52,357.69,331.82Zm.05-3.34c1.59-2.17,3.57-6.81,3-9.81a4.85,4.85,0,0,0-.45-1.44,1.37,1.37,0,0,0-1-.46,7,7,0,0,1-1.77-.64c-.24-.11-.51-.11-.82.27-.78,1-1.58,2.77-2.6,6.19a16.13,16.13,0,0,0-.59,6.39c.23,1.16.83,2,1.25,1.94A6.06,6.06,0,0,0,357.74,328.48Z" transform="translate(-18 -19.49)"/><path d="M373.65,311.48c.09.42-.1.57-.37.62-.5.21-.83.77-1,1.68a48.52,48.52,0,0,0-1,6.75c-.09.89.31,1,.63.42a56.69,56.69,0,0,1,6-8.88,10.5,10.5,0,0,1,2.09-2.16,2.28,2.28,0,0,0,.86-1.15c.23-.48.48-.91.79-1a1.51,1.51,0,0,1,1.24.46c.64.48.66,1.13.46,2s-.79,1.85-1.05,3a43,43,0,0,0-1.07,7.58c-.2,4,.78,4.81,1.52,4.66,1-.19,2.85-2.69,4.67-5.39s3.44-5.48,5.67-9.42c.4-.73,1-.79,1.2.26a4.73,4.73,0,0,1-.86,3.12,90.53,90.53,0,0,1-5.89,9.45c-2.47,3.49-4.27,4.61-5.48,4.85-1.68.33-3.51-1.76-3.36-7.09,0-2.4.23-4.63.36-5.91a1.68,1.68,0,0,0-.1-1.07c-.24-.11-.52.16-1.05.81a35.9,35.9,0,0,0-6.81,13.29c-.19.75-.61,1.38-1.08,1.47a1.42,1.42,0,0,1-1.13-.49,4.44,4.44,0,0,1-.41-2.32,86.86,86.86,0,0,1,1.33-14.88c.53-2,1.2-2.48,1.78-2.59C372.48,309.42,373.47,310.54,373.65,311.48Z" transform="translate(-18 -19.49)"/><path d="M401,304.94a1.53,1.53,0,0,1,1.07,1c.12.63-.55,1.09-1.45,1.27-2.94.58-6,3.75-5.61,5.85a5.25,5.25,0,0,0,1.93,2.84c1.35,1.32,2.57,2.82,2.83,4.14a3.69,3.69,0,0,1-.81,2.83,16.53,16.53,0,0,1-3.13,2.64,5.25,5.25,0,0,1-1.71.77c-.73.14-2.08-.08-2.36-.9a1.61,1.61,0,0,1,.33-1.1,5.53,5.53,0,0,1,1.34-1.52,1.09,1.09,0,0,1,1.06-.16,2.34,2.34,0,0,0,1.67-.11c.56-.22,1.15-.82,1-1.4a5.62,5.62,0,0,0-1.5-2.38,27.77,27.77,0,0,1-2.44-2.68,5,5,0,0,1-.94-2c-.36-1.84.78-4.36,2.14-6a8.74,8.74,0,0,1,4.58-3A3.93,3.93,0,0,1,401,304.94Z" transform="translate(-18 -19.49)"/><path d="M412.61,312.53c-2.23,1.15-5,2.46-6.95,3.5-.4.19-.72.2-.92,0s-.19-.67,0-1.21a4.63,4.63,0,0,1,2.52-2.46,46.63,46.63,0,0,1,6.4-2.95c.37-.08.72,0,.78.33A3.05,3.05,0,0,1,412.61,312.53Z" transform="translate(-18 -19.49)"/><path d="M112.4,417.47a9.9,9.9,0,0,1,4.45.7,3.64,3.64,0,0,1,2,2.65,1.51,1.51,0,0,1,0,.32,3.91,3.91,0,0,1,0,.49q0,2.58-2.49,6.12a10.33,10.33,0,0,1,1.85,3.09,25.49,25.49,0,0,1,1.62,5.28v.09a2,2,0,0,1,0,.24v.34c0,1.79-1.33,3.6-4,5.45a18.7,18.7,0,0,1-7.25,3.18,2.39,2.39,0,0,1-.66.09,4.1,4.1,0,0,1-3-1.33,6.51,6.51,0,0,1-1.71-3.62c0-.23-.07-.46-.11-.67s0-.47,0-.7q1.26-9.68,2.55-18.44Q106.72,417.47,112.4,417.47Zm-2.21,22.86a6.7,6.7,0,0,0,3.06-1.44,5.41,5.41,0,0,0,1.53-1.75,4.68,4.68,0,0,0,.78-2.35v-.25l0-.19a2.43,2.43,0,0,0-1.27-1.72,2.23,2.23,0,0,0-1.26-.32,10.84,10.84,0,0,0-5,1.69,18.22,18.22,0,0,0-.39,3.31c0,.23,0,.44,0,.65s0,.18,0,.28a2.36,2.36,0,0,0,.21.65A2.7,2.7,0,0,0,110.19,440.33Zm2.23-14.14a4.57,4.57,0,0,0,2.14-4v-.05l0-.16c-.1-.59-.63-.89-1.59-.89a7.07,7.07,0,0,0-3.45,1.05l-.76,5.44A8.76,8.76,0,0,0,112.42,426.19Z" transform="translate(-18 -19.49)"/><path d="M140.93,427.1c0,.28.08.56.11.86a14.59,14.59,0,0,1,.08,1.65,33.42,33.42,0,0,1-2.24,10.81,7,7,0,0,1-3.68,3.79,11,11,0,0,1-4.89,1.17,7.52,7.52,0,0,1-4.63-1.42,8.32,8.32,0,0,1-3-5.51c-.1-.59-.17-1.18-.24-1.77-.08-.85-.12-1.7-.12-2.54a24.9,24.9,0,0,1,.61-5.49,18.56,18.56,0,0,1,3.57-7.86,7.55,7.55,0,0,1,5.92-3.18,7.24,7.24,0,0,1,5.33,2.63A12.94,12.94,0,0,1,140.93,427.1Zm-12.75,12.6a4.47,4.47,0,0,0,2.72.88c1.74,0,3.44-1.67,5.07-5a16.54,16.54,0,0,0,1.92-7.16c0-.37,0-.72,0-1a6,6,0,0,0-.09-.65,4.78,4.78,0,0,0-1.95-3.16,4.69,4.69,0,0,0-2.8-1q-3.56,0-5.55,4.38a15.31,15.31,0,0,0-1.39,6.51c0,.59,0,1.2.09,1.84,0,.41.1.85.17,1.3A4.6,4.6,0,0,0,128.18,439.7Z" transform="translate(-18 -19.49)"/><path d="M162.1,427.1c0,.28.07.56.11.86,0,.52.07,1.08.07,1.65A33.15,33.15,0,0,1,160,440.42a6.91,6.91,0,0,1-3.68,3.79,11,11,0,0,1-4.88,1.17,7.53,7.53,0,0,1-4.64-1.42,8.32,8.32,0,0,1-3-5.51q-.14-.88-.24-1.77c-.08-.85-.12-1.7-.12-2.54a24.9,24.9,0,0,1,.61-5.49,18.56,18.56,0,0,1,3.57-7.86,7.57,7.57,0,0,1,5.92-3.18,7.24,7.24,0,0,1,5.33,2.63A13,13,0,0,1,162.1,427.1Zm-12.76,12.6a4.49,4.49,0,0,0,2.72.88q2.63,0,5.07-5a16.54,16.54,0,0,0,1.92-7.16c0-.37,0-.72-.05-1a6,6,0,0,0-.09-.65,4.74,4.74,0,0,0-1.95-3.16,4.67,4.67,0,0,0-2.8-1c-2.37,0-4.21,1.46-5.54,4.38a15.17,15.17,0,0,0-1.4,6.51c0,.59,0,1.2.09,1.84,0,.41.1.85.18,1.3A4.59,4.59,0,0,0,149.34,439.7Z" transform="translate(-18 -19.49)"/><path d="M181,422.52a3.07,3.07,0,0,0,.05.34c0,.16,0,.3,0,.42a3.06,3.06,0,0,1-.39,1.58,1.61,1.61,0,0,1-1.37,1c-.8,0-1.37-.7-1.71-2.11a2.54,2.54,0,0,0-1.4-1.47,5.19,5.19,0,0,0-2.48-.65,2.57,2.57,0,0,0-1.95.72l-2.13,1.84a3.15,3.15,0,0,0-1.13,2.21v.37l0,.16c.18.73,1.09,1.1,2.74,1.1.3,0,1.36-.07,3.19-.19h.59q5.18,0,6.27,6.63c.07.39.14.87.19,1.46l.05.47a4.36,4.36,0,0,1,0,.51,8.61,8.61,0,0,1-2.14,5.35,7.25,7.25,0,0,1-5.75,3.12,9.68,9.68,0,0,1-8.61-4.73.38.38,0,0,1-.11-.23v-.16a3.28,3.28,0,0,1,.87-1.81c.64-.84,1.18-1.26,1.63-1.26a.47.47,0,0,1,.47.42q.75,2.53,6.3,3a3,3,0,0,0,.43,0,2.49,2.49,0,0,0,2.4-1.37,8,8,0,0,0,.61-3.61c0-.31,0-.63,0-1v-.18c-.14-.76-.86-1.34-2.17-1.75a14.68,14.68,0,0,0-4-.48,6.81,6.81,0,0,0-2.49.27.9.9,0,0,1-.48.1,4,4,0,0,1-2.2-.79,3.08,3.08,0,0,1-1.48-2l0-.07c0-.24-.05-.46-.07-.68a13.71,13.71,0,0,1-.1-1.67,10.69,10.69,0,0,1,.33-2.75,8,8,0,0,1,1.49-3c.64-.68,1.27-1.37,1.89-2.05a5.46,5.46,0,0,1,2.29-1.3,10.65,10.65,0,0,1,3.77-.7q4.38,0,6.15,3.51A5.07,5.07,0,0,1,181,422.52Z" transform="translate(-18 -19.49)"/><path d="M198.43,418c.43.08.81,1,1.12,2.86.08.47.14.86.17,1.19a4.13,4.13,0,0,1,.05.55.73.73,0,0,1-.09.45q-.23.25-5.27,1a6.4,6.4,0,0,0-.88,1.63l0,.05q-1,1.35-1.9,9.16-.41,4.18-.8,8.37-.92,2.1-1.68,2.1t-1.62-2.1a1.36,1.36,0,0,1-.08-.28.75.75,0,0,1,0-.23,6,6,0,0,1,0-.79,70.79,70.79,0,0,1,.84-8.35c.77-5.46,1.28-8.18,1.53-8.18h0l.08-.12a2.25,2.25,0,0,0-.28-.42,1.23,1.23,0,0,1-.22-.23c-.65.08-1.22.15-1.7.23a3.86,3.86,0,0,0-2.13.84c-.06,0-.1.07-.13.07-.41,0-.85-1.4-1.34-4.21q-.07-.54-.09-.75l0-.14,5.74-1.44a39.49,39.49,0,0,1,8-1.35A5.56,5.56,0,0,1,198.43,418Z" transform="translate(-18 -19.49)"/><path d="M205.05,417.93c1-.06,2.21-.09,3.74-.09s3.33,0,5.42.09a10,10,0,0,1,1.27,3.45c0,.28.08.53.13.76s0,.4,0,.58v.12c0,.39-.07.64-.21.74a5.23,5.23,0,0,1-3,.63c-.22,0-.45,0-.69,0q-2.3,13.15-2.3,15v.18l0,0a.15.15,0,0,0,0,.07.89.89,0,0,0,.4.06,13.68,13.68,0,0,0,2.9-.53l0,.19a11.11,11.11,0,0,1,.15,1.53v.68c-.1,1.62-.6,2.5-1.51,2.62l-9.3,1.38,0-.28c0-.31,0-.61,0-.89,0-.56,0-1.07,0-1.53.09-1.82.36-2.75.84-2.79h1.28a1.23,1.23,0,0,0,1.13-.51,40.16,40.16,0,0,0,1.22-6.3q.9-5.77,1.17-9.05v0c0-.17-.37-.25-1-.25a28.26,28.26,0,0,0-4.1.44c.13-1.23.27-2.44.43-3.65C203.44,418.86,204.08,418,205.05,417.93Z" transform="translate(-18 -19.49)"/><path d="M221.75,419.26a1.86,1.86,0,0,0,.71-.48,1.4,1.4,0,0,1,.77-.43c.2,0,.41.15.61.44q.94,1.26,2.86,6.91,1.73,5,3.06,9.86c0,.09.06.14.08.14q.28,0,1.33-8.95c.71-6,1.18-9,1.43-9a2.63,2.63,0,0,1,.49,0,4.16,4.16,0,0,1,1.42.3c.89.34,1.38.81,1.49,1.42v.09q0,1.17-1.89,12-1.76,10-1.76,11.37V443a.24.24,0,0,1,.07.16v.09a.72.72,0,0,1-.26.49,1,1,0,0,1-.78.33q-1.29,0-2.31-2.31c-.16-.35-1.06-2.85-2.7-7.48q-1.91-5.31-2.44-5.31h0c-.37.05-.62.37-.76,1-.08.38-.15.78-.22,1.18s-.32,2.55-.74,6.82c-.35,3.73-.53,6-.53,6.79v.3q0,.33-.63.33a2.74,2.74,0,0,1-1.76-.7,4,4,0,0,1-1.26-2.42l0-.16,1.23-11.38Q220.63,419.47,221.75,419.26Z" transform="translate(-18 -19.49)"/><path d="M246.76,430.21c.36-.17.77-.35,1.24-.53a20.61,20.61,0,0,0,7.35-2.14.75.75,0,0,1,.4-.12c.3,0,.72,1.11,1.27,3.33-.26,1.92-.5,2.94-.71,3-.54.25-1.06,1.25-1.54,3a26.13,26.13,0,0,1-1.82,5.1c-1.31,2.32-3.11,3.49-5.39,3.49a8.53,8.53,0,0,1-4.12-1.19,9.5,9.5,0,0,1-2.73-2.16,11.43,11.43,0,0,1-2.07-5.19c-.08-.42-.13-.84-.18-1.28-.07-.73-.11-1.49-.11-2.3a30,30,0,0,1,.29-4,23.4,23.4,0,0,1,1.05-4.93,11.74,11.74,0,0,1,4.82-6.16,8.79,8.79,0,0,1,4.68-1.47l.44,0q1.92.07,4,2.47a15.67,15.67,0,0,1,1.67,2.42c-.21.43-.38.78-.5,1.05-.4.82-.72,1.44-.95,1.88l-.44.56v-.05a.15.15,0,0,0,0-.07c-.09-.51-1-1.54-2.89-3.09a10,10,0,0,0-2.74.58,8.71,8.71,0,0,0-2,1.42,11.68,11.68,0,0,0-2.36,2.63,22.25,22.25,0,0,0-1.51,3.16,9.83,9.83,0,0,0-.64,3.44c0,.31,0,.63.05.95s.05.42.09.65a7.73,7.73,0,0,0,2.15,4.33,5.39,5.39,0,0,0,3.95,1.74q1.75,0,3.14-3a9.29,9.29,0,0,0,1-3.7c0-.12,0-.24,0-.35s0-.15,0-.21a13.37,13.37,0,0,0-3.1.61,3.27,3.27,0,0,1-.62.07,2.25,2.25,0,0,1-1.75-.86,3.09,3.09,0,0,1-.77-1.54.35.35,0,0,1,0-.14v-.07a.58.58,0,0,1,0-.21C245.49,431,245.94,430.65,246.76,430.21Z" transform="translate(-18 -19.49)"/><path d="M280.35,433c-.17,1.34-.35,2.77-.54,4.31a28.72,28.72,0,0,1-1,6.76c-.34.87-.63,1.31-.86,1.31a2.82,2.82,0,0,1-1.59-.52,2.61,2.61,0,0,1-1.19-1.81c0-.08,0-.16-.05-.23a3,3,0,0,1,0-.42v-.14a6.78,6.78,0,0,1,0-.77c.11-.91.72-4.88,1.8-11.91q1.89-10.95,2.39-12a.53.53,0,0,1,.49-.32c.42,0,1,.45,1.68,1.34a5.57,5.57,0,0,1,1.07,1.82v0s0,.05,0,.05h-.05q-.39,0-1.54,8.21h0a48.21,48.21,0,0,1,5.69-.65c.17-1.93.32-3.85.47-5.77,0-2.09.19-3.2.5-3.33a4.62,4.62,0,0,1,1.5-.3,1.43,1.43,0,0,1,1.6,1.23,1.81,1.81,0,0,0,.05.31c0,.4.05.79.06,1.18s0,.71,0,1c0,.71,0,1.43-.06,2.14a9.33,9.33,0,0,1-.27,2q-.45,3.46-.91,6.93-1,7.27-1,9v.21c-.21.58-.43,1.16-.66,1.75s-.47.72-.86.72a.74.74,0,0,1-.25-.05c-.69-.14-1.18-.85-1.46-2.14q.44-5.21.88-10.51l-1.9.21C282.64,432.87,281.28,433,280.35,433Z" transform="translate(-18 -19.49)"/><path d="M296.15,417.93c1-.06,2.21-.09,3.74-.09s3.34,0,5.42.09a9.79,9.79,0,0,1,1.27,3.45c.05.28.09.53.13.76s0,.4,0,.58v.12c0,.39-.07.64-.2.74a5.27,5.27,0,0,1-3,.63c-.22,0-.45,0-.69,0q-2.3,13.15-2.29,15v.21a.14.14,0,0,0,0,.07.81.81,0,0,0,.39.06,13.74,13.74,0,0,0,2.91-.53l0,.19a12.78,12.78,0,0,1,.14,1.53v.68c-.09,1.62-.6,2.5-1.51,2.62l-9.3,1.38v-.28c0-.31,0-.61,0-.89,0-.56,0-1.07,0-1.53.08-1.82.36-2.75.83-2.79h1.29a1.22,1.22,0,0,0,1.12-.51,38.17,38.17,0,0,0,1.23-6.3q.9-5.77,1.17-9.05v0c0-.17-.37-.25-1-.25a28.12,28.12,0,0,0-4.1.44c.12-1.23.26-2.44.42-3.65C294.54,418.86,295.19,418,296.15,417.93Z" transform="translate(-18 -19.49)"/><path d="M325.47,422.52a1.74,1.74,0,0,0,0,.34c0,.16,0,.3,0,.42a3.06,3.06,0,0,1-.39,1.58,1.61,1.61,0,0,1-1.37,1c-.81,0-1.38-.7-1.71-2.11a2.59,2.59,0,0,0-1.41-1.47,5.15,5.15,0,0,0-2.47-.65,2.57,2.57,0,0,0-1.95.72l-2.14,1.84A3.19,3.19,0,0,0,313,426.4v.23l0,.14,0,.16c.18.73,1.09,1.1,2.73,1.1.31,0,1.37-.07,3.19-.19h.6c3.45,0,5.53,2.21,6.27,6.63.07.39.13.87.19,1.46l0,.47a4.38,4.38,0,0,1,0,.51,8.67,8.67,0,0,1-2.14,5.35,7.27,7.27,0,0,1-5.75,3.12,9.68,9.68,0,0,1-8.61-4.73.38.38,0,0,1-.11-.23v-.16a3.32,3.32,0,0,1,.86-1.81c.64-.84,1.19-1.26,1.64-1.26a.47.47,0,0,1,.47.42q.75,2.53,6.3,3a2.86,2.86,0,0,0,.42,0,2.51,2.51,0,0,0,2.41-1.37,8.14,8.14,0,0,0,.61-3.61c0-.31,0-.63,0-1v-.18c-.14-.76-.86-1.34-2.17-1.75a14.76,14.76,0,0,0-4-.48,6.74,6.74,0,0,0-2.48.27,1,1,0,0,1-.49.1,4,4,0,0,1-2.2-.79,3,3,0,0,1-1.47-2l0-.07c0-.24-.06-.46-.08-.68a16,16,0,0,1-.09-1.67,10.69,10.69,0,0,1,.33-2.75,8,8,0,0,1,1.49-3c.64-.68,1.27-1.37,1.89-2.05a5.4,5.4,0,0,1,2.29-1.3,10.61,10.61,0,0,1,3.77-.7q4.38,0,6.14,3.51A5.46,5.46,0,0,1,325.47,422.52Z" transform="translate(-18 -19.49)"/><path d="M358.6,418c.43.08.8,1,1.12,2.86.08.47.14.86.17,1.19a4.13,4.13,0,0,1,.05.55.65.65,0,0,1-.1.45c-.14.17-1.9.52-5.26,1a6,6,0,0,0-.88,1.63l0,.05q-1,1.35-1.9,9.16-.4,4.18-.8,8.37-.91,2.1-1.68,2.1t-1.62-2.1a1.36,1.36,0,0,1-.08-.28.75.75,0,0,1,0-.23,5.83,5.83,0,0,1-.05-.79,71.47,71.47,0,0,1,.85-8.35c.77-5.46,1.27-8.18,1.53-8.18h0l.08-.12a2.94,2.94,0,0,0-.28-.42,1,1,0,0,1-.22-.23c-.65.08-1.22.15-1.7.23a3.9,3.9,0,0,0-2.14.84.26.26,0,0,1-.12.07c-.41,0-.86-1.4-1.34-4.21q-.08-.54-.09-.75l0-.14,5.74-1.44a39.49,39.49,0,0,1,7.95-1.35A5.56,5.56,0,0,1,358.6,418Z" transform="translate(-18 -19.49)"/><path d="M362.29,442.17q.16-3.92,1.13-12.38,1.29-10.91,2.38-11.41a24.4,24.4,0,0,1,4.14-1.31,22.67,22.67,0,0,1,4.84-.83c.58,0,.91.1,1,.32a8.74,8.74,0,0,1,.76,2.35c0,.14,0,.27,0,.4s0,.31,0,.44a1.57,1.57,0,0,1-.3,1.07c-.23.26-1.63.6-4.19,1s-3.7.75-3.71.94-.1,1-.25,2.29l-.22,1.7.08.14a21.3,21.3,0,0,1,2.21-.65,15.66,15.66,0,0,1,3.44-.65c.42,0,.66.08.72.23a7.74,7.74,0,0,0,.77,1.22,4,4,0,0,1,.77,1.5v.19a.67.67,0,0,1-.33.6q-.61.42-4.52,2.21c-2.5,1.15-3.76,1.74-3.77,1.77s-.34,2.07-.85,5.93c3.79-2.67,6.32-4,7.57-4a.67.67,0,0,1,.54.21,6.83,6.83,0,0,1,1.19,1.81,7.84,7.84,0,0,1,.71,2c0,.1,0,.18,0,.26s0,.14,0,.18a.69.69,0,0,1-.13.45,31.13,31.13,0,0,1-5.26,2.93q-4.58,2.28-5.39,2.28a.2.2,0,0,1-.11,0q-3-1.16-3.29-2.79v-.09A2.83,2.83,0,0,1,362.29,442.17Z" transform="translate(-18 -19.49)"/><path d="M381.88,445.38c-1.68-.25-2.65-1.07-2.89-2.45l0-.23c0-.11,0-.22,0-.35s0-.43,0-.65q.63-4.21,5.47-13.58t6.31-9.26h0l.24,0a1.83,1.83,0,0,0,.45-.07l.49-.05c.43,0,1,.48,1.73,1.44a8.33,8.33,0,0,1,.8,2.89q.31,1.77.57,4.11.33,3.56.56,8.49c.13,2.62.19,4.61.19,5.95a5.53,5.53,0,0,1-.19,2.19,1.87,1.87,0,0,1-1.3.4,1.45,1.45,0,0,1-1.43-.68,4.32,4.32,0,0,1-.21-.74c0-.13,0-.27,0-.44a10.58,10.58,0,0,1-.07-1.33q0-.46,0-1a7.59,7.59,0,0,0-2.62-.45,9.46,9.46,0,0,0-4,.91,7.44,7.44,0,0,0-2.52,1.68Zm4.56-10.21,4.67-.45q1-.9,1-1.32v-.07c0-.05-.07-.77-.18-2.16-.05-.72-.1-1.31-.15-1.79s-.1-.86-.15-1.12-.1-.53-.15-.56a1.13,1.13,0,0,0-.63-.21c-.81,0-1.66.93-2.56,2.79C387.81,431.31,387.19,432.93,386.44,435.17Z" transform="translate(-18 -19.49)"/><path d="M402.83,420.34a2,2,0,0,1,2-1,7.25,7.25,0,0,1,1.68.23c.52.11.88.74,1.08,1.91,0,.2.06.41.08.62a7.89,7.89,0,0,1,.05.84c0,.13,0,.25,0,.37,0,.56-.09.84-.19.84h0s0,.05,0,.16,0,.23,0,.4q.11.85.48,3.18c.26,1.57.64,3.62,1.12,6.17q4.92-11.7,9.49-16.93,3.4,2.2,3.5,2.74v.05s0,.08-.12.11q-.6.12-1.48,11.63-.83,9.81-.82,12.33c0,.17,0,.31,0,.44v0c0,.35-.15.52-.44.52-.77,0-2-.75-3.65-2.24a1.3,1.3,0,0,1-.23-.62c0-.13,0-.26-.05-.4,0-.43-.06-1-.06-1.58q0-2.82.55-8.37l-.66-.93q-3.42,6-3.69,7.46a32,32,0,0,1-1,4.44,1.63,1.63,0,0,1-1.57,1.1,4.54,4.54,0,0,1-.58-.05c-1.16-.14-1.87-1-2.12-2.51a4,4,0,0,1-.06-.56,33,33,0,0,1-.14-3.32q-.19-3.33-.36-5.07l0-.28c0-.13,0-.24,0-.35a4.36,4.36,0,0,0-.06-.49c-.18-1.05-.63-1.58-1.35-1.58q-.41,0-1.49,6.74-1.29,7.86-1.42,8.33c-.1.46-.3.7-.58.7s-.82-.4-1.29-1.19a7.74,7.74,0,0,1-1-2.7c0-.18-.05-.37-.07-.56a5,5,0,0,1,0-.65v-.16q0-2,2.09-10.51A82.57,82.57,0,0,1,402.83,420.34Z" transform="translate(-18 -19.49)"/><path d="M267.78,458.52c.32.06.6.77.84,2.15.06.34.1.64.13.89a3.43,3.43,0,0,1,0,.41.52.52,0,0,1-.07.34,21.14,21.14,0,0,1-3.94.78,4.58,4.58,0,0,0-.66,1.22l0,0c-.49.67-1,3-1.43,6.87l-.6,6.28c-.45,1-.87,1.57-1.26,1.57s-.82-.53-1.21-1.57a.65.65,0,0,1-.06-.21.5.5,0,0,1,0-.18,3.34,3.34,0,0,1,0-.59,51.41,51.41,0,0,1,.64-6.26q.86-6.13,1.14-6.14h0a.7.7,0,0,1,.06-.09,1.66,1.66,0,0,0-.21-.31,1.56,1.56,0,0,1-.17-.18l-1.27.18a2.87,2.87,0,0,0-1.6.63.19.19,0,0,1-.1,0c-.3,0-.64-1-1-3.16,0-.27-.06-.45-.07-.56v-.1l4.3-1.08a29.18,29.18,0,0,1,6-1A4.8,4.8,0,0,1,267.78,458.52Z" transform="translate(-18 -19.49)"/><path d="M284.51,465.36l.09.64c0,.4,0,.81,0,1.24a25,25,0,0,1-1.68,8.11,5.12,5.12,0,0,1-2.76,2.84,8.15,8.15,0,0,1-3.66.88,5.63,5.63,0,0,1-3.48-1.07,6.25,6.25,0,0,1-2.25-4.13c-.07-.44-.13-.88-.17-1.33a17.41,17.41,0,0,1-.1-1.9,18.43,18.43,0,0,1,.46-4.11,13.83,13.83,0,0,1,2.68-5.9,5.67,5.67,0,0,1,4.44-2.39,5.44,5.44,0,0,1,4,2A9.73,9.73,0,0,1,284.51,465.36ZM275,474.81a3.35,3.35,0,0,0,2,.66c1.32,0,2.58-1.25,3.81-3.76a12.44,12.44,0,0,0,1.44-5.38,6.46,6.46,0,0,0,0-.78,3.61,3.61,0,0,0-.07-.49,3.71,3.71,0,0,0-3.56-3.09c-1.77,0-3.16,1.1-4.16,3.28a11.48,11.48,0,0,0-1,4.89,13,13,0,0,0,.08,1.37c0,.32.07.64.13,1A3.45,3.45,0,0,0,275,474.81Z" transform="translate(-18 -19.49)"/><path d="M152.94,484.18c0,.15.05.3.07.44a5,5,0,0,1,0,.53,3.88,3.88,0,0,1-.5,2,2,2,0,0,1-1.72,1.23c-1,0-1.71-.88-2.13-2.65a3.17,3.17,0,0,0-1.75-1.81,6.44,6.44,0,0,0-3.09-.82,3.24,3.24,0,0,0-2.44.91l-2.68,2.28a4,4,0,0,0-1.42,2.77c0,.09,0,.18,0,.28v.18l0,.21c.22.92,1.36,1.37,3.42,1.37.38,0,1.71-.07,4-.23l.74,0q6.45,0,7.84,8.3c.08.48.16,1.09.23,1.81l.07.59c0,.21,0,.43,0,.65a10.72,10.72,0,0,1-2.67,6.67q-3.14,3.91-7.18,3.91a12.13,12.13,0,0,1-10.78-5.91.49.49,0,0,1-.12-.28v-.21a4.29,4.29,0,0,1,1.06-2.28c.81-1,1.5-1.55,2.06-1.55a.58.58,0,0,1,.58.51c.63,2.12,3.26,3.39,7.87,3.81a4.87,4.87,0,0,0,.54,0,3.11,3.11,0,0,0,3-1.69,10,10,0,0,0,.77-4.51c0-.39,0-.8,0-1.24l0-.23q-.25-1.43-2.7-2.16a18,18,0,0,0-5-.61,8.58,8.58,0,0,0-3.11.33,1.21,1.21,0,0,1-.62.14,5,5,0,0,1-2.75-1,3.81,3.81,0,0,1-1.83-2.51l0-.07c0-.3-.08-.58-.11-.86-.07-.72-.11-1.41-.11-2.07a13.6,13.6,0,0,1,.41-3.45,10.12,10.12,0,0,1,1.87-3.81c.79-.85,1.58-1.7,2.35-2.56A6.85,6.85,0,0,1,140,479a13.35,13.35,0,0,1,4.71-.87q5.47,0,7.67,4.38A6.65,6.65,0,0,1,152.94,484.18Z" transform="translate(-18 -19.49)"/><path d="M161,477.43a2.94,2.94,0,0,1,1.82.84,2.91,2.91,0,0,1,.94,1.4v.11a.27.27,0,0,1,0,.17q-.51.44-1.9,9.23a72.36,72.36,0,0,0-1.07,10.51,15.2,15.2,0,0,0,.08,1.74c0,.24.06.45.09.65.21,1.28.88,1.91,2,1.91a9.33,9.33,0,0,0,4.7-1.63c1.67-1,2.51-1.84,2.51-2.51v-.3A83.32,83.32,0,0,1,172,489.39q2-9,2.63-10.77a.79.79,0,0,1,.8-.54,3.6,3.6,0,0,1,2.18,1.2,4.27,4.27,0,0,1,1.42,1.94v.14a.34.34,0,0,1-.16.31q-1.47.81-3.06,13.46A118.34,118.34,0,0,0,174.78,508c0,.77,0,1.43.08,2,0,.22,0,.42.08.61l0,.18a6.32,6.32,0,0,1-2.06.35c-1.54,0-2.44-.62-2.72-1.86a.77.77,0,0,0-.88-.62c-1.1,0-3.54,1.28-7.32,3.86a1.17,1.17,0,0,1-.69.23c-.92,0-1.92-.79-3-2.36a12.73,12.73,0,0,1-2.09-5.15,5.88,5.88,0,0,1-.1-.68,3,3,0,0,1,0-.42c0-.09,0-.21,0-.35a108.93,108.93,0,0,1,1.33-11.23q.39-2.81,2-13C159.61,478.15,160.15,477.43,161,477.43Z" transform="translate(-18 -19.49)"/><path d="M192.49,477a5.92,5.92,0,0,1,1.71-.19,11.32,11.32,0,0,1,5.29,1.28,10,10,0,0,1,4.78,5.4,5.2,5.2,0,0,1,.21.72,2.36,2.36,0,0,1,0,.28,3.64,3.64,0,0,1,0,.48,11.59,11.59,0,0,1-2.15,5.84,28.25,28.25,0,0,1-6.05,6.91c-2.6,2.15-4.95,3.38-7,3.67-.14,0-.52,1.48-1.15,4.33a50.64,50.64,0,0,1-1.36,5.39c-.48,1.07-1.08,1.61-1.81,1.61a3.17,3.17,0,0,1-2.31-1.56,5.86,5.86,0,0,1-1.24-2.53v-.24a.45.45,0,0,1,.09-.32q1.83-1.59,3.43-10.77l1.44-10a4.09,4.09,0,0,0,.05-.65c0-.31,0-.67-.06-1.07s-.08-.69-.14-1.09c-.12-.75-.2-1.38-.26-1.89s-.06-.73-.06-1v-.24Q186,479.23,192.49,477Zm-2,17.39a7.48,7.48,0,0,0,3.06-1.11,9.75,9.75,0,0,0,2.91-2.19,38.16,38.16,0,0,0,2.43-3.37,8.14,8.14,0,0,0,1.56-3.47v-.21a.67.67,0,0,0-.07-.18c-.36-.79-1.67-1.19-3.92-1.19s-4,.65-4.7,2a37.4,37.4,0,0,0-1.09,4.62,31.7,31.7,0,0,0-.67,4.56v.35C190,494.36,190.18,494.43,190.45,494.43Z" transform="translate(-18 -19.49)"/><path d="M206.91,508.73q.19-4.85,1.41-15.44,1.6-13.65,3-14.28a32.12,32.12,0,0,1,5.19-1.62,27.52,27.52,0,0,1,6.05-1.05c.72,0,1.13.13,1.24.4a10.58,10.58,0,0,1,.92,2.95,2.89,2.89,0,0,1,.07.49c0,.2,0,.39,0,.56a1.94,1.94,0,0,1-.38,1.32c-.29.33-2,.75-5.25,1.28s-4.62.93-4.63,1.17-.12,1.2-.32,2.88l-.28,2.11.11.19a21.7,21.7,0,0,1,2.77-.81,19,19,0,0,1,4.3-.82c.53,0,.82.1.9.29a10.93,10.93,0,0,0,1,1.53,5.48,5.48,0,0,1,1,1.86V492a.89.89,0,0,1-.42.77q-.79.51-5.64,2.76c-3.14,1.43-4.71,2.16-4.73,2.19s-.42,2.6-1.06,7.42q7.13-5,9.46-5a.85.85,0,0,1,.68.25,9.35,9.35,0,0,1,1.49,2.29,9.8,9.8,0,0,1,.88,2.5c0,.11,0,.21.05.31a2,2,0,0,1,0,.23.89.89,0,0,1-.15.56q-.56.67-6.59,3.67-5.7,2.83-6.72,2.84a.26.26,0,0,1-.14,0c-2.52-1-3.89-2.14-4.12-3.48v-.12C206.92,509,206.91,508.87,206.91,508.73Z" transform="translate(-18 -19.49)"/><path d="M241.21,498.48q7.84,4.81,8.87,9.67l0,.14,0,.17a2.45,2.45,0,0,1,0,.27,3.48,3.48,0,0,1-.62,1.84c-.56.85-1.1,1.28-1.62,1.28-.27,0-.46-.18-.58-.56q-1.16-4.49-9.34-10.81a9.88,9.88,0,0,1-3,.95c-.14,0-.52,1.48-1.15,4.33a46.86,46.86,0,0,1-1.37,5.39c-.47,1.07-1.07,1.61-1.8,1.61a3.17,3.17,0,0,1-2.31-1.56,5.75,5.75,0,0,1-1.24-2.53v-.24a.45.45,0,0,1,.09-.32c1.21-1.06,2.36-4.65,3.42-10.77.49-3.33,1-6.67,1.45-10a4.09,4.09,0,0,0,0-.65,8.68,8.68,0,0,0-.07-1.07c0-.33-.07-.69-.14-1.09-.11-.75-.2-1.38-.25-1.89s-.06-.73-.06-1v-.24q.06-2.21,6.57-4.39a5.83,5.83,0,0,1,1.71-.19,11.35,11.35,0,0,1,5.29,1.28,10,10,0,0,1,4.78,5.4,4.14,4.14,0,0,1,.2.72,2.33,2.33,0,0,1,.05.28,3.64,3.64,0,0,1,0,.48q0,2.57-2.43,6.33A29.27,29.27,0,0,1,241.21,498.48Zm-5.52-4.28c.05.16.21.23.47.23a7.56,7.56,0,0,0,3.07-1.11,9.55,9.55,0,0,0,2.9-2.19,36.24,36.24,0,0,0,2.44-3.37,8.21,8.21,0,0,0,1.55-3.47v-.21a.64.64,0,0,0-.06-.18c-.37-.79-1.68-1.19-3.93-1.19q-3.6,0-4.69,2a37.4,37.4,0,0,0-1.09,4.62,31.7,31.7,0,0,0-.67,4.56v.35Z" transform="translate(-18 -19.49)"/><path d="M273.6,500.39c-.17,1.33-.35,2.76-.53,4.3a30,30,0,0,1-1,6.77c-.35.86-.64,1.3-.87,1.3a2.77,2.77,0,0,1-1.58-.51,2.67,2.67,0,0,1-1.2-1.82c0-.08,0-.15-.05-.23a3,3,0,0,1,0-.42v-.14a6.93,6.93,0,0,1,0-.77q.18-1.37,1.81-11.9,1.88-11,2.38-12a.54.54,0,0,1,.49-.33q.63,0,1.68,1.35a5.55,5.55,0,0,1,1.07,1.81v0s0,0,0,0h-.05q-.39,0-1.54,8.21h0a48.44,48.44,0,0,1,5.69-.65c.17-1.92.33-3.85.47-5.77,0-2.09.19-3.2.51-3.32a4.56,4.56,0,0,1,1.49-.31,1.44,1.44,0,0,1,1.6,1.24c0,.09,0,.19.05.3,0,.4.05.8.06,1.19s0,.7,0,1c0,.72,0,1.43-.07,2.14a10.49,10.49,0,0,1-.26,2q-.46,3.46-.91,6.94c-.65,4.85-1,7.85-1,9v.16l0,.05q-.31.86-.66,1.74-.28.72-.87.72a.77.77,0,0,1-.25,0c-.69-.14-1.18-.86-1.46-2.14.29-3.48.59-7,.88-10.51l-1.9.2C275.89,500.25,274.53,500.36,273.6,500.39Z" transform="translate(-18 -19.49)"/><path d="M286.48,509.55q.16-3.92,1.13-12.37,1.29-10.9,2.38-11.42a24.6,24.6,0,0,1,4.14-1.3,22.21,22.21,0,0,1,4.84-.84q.87,0,1,.33a8.68,8.68,0,0,1,.76,2.34c0,.14,0,.28,0,.4s0,.32,0,.44a1.55,1.55,0,0,1-.3,1.07c-.23.26-1.63.61-4.19,1s-3.7.75-3.71.95-.1.95-.25,2.29l-.22,1.69.08.14s.73-.24,2.21-.65a15.66,15.66,0,0,1,3.44-.65c.42,0,.66.08.72.23a7.28,7.28,0,0,0,.77,1.22,4.19,4.19,0,0,1,.77,1.5v.19a.69.69,0,0,1-.33.61c-.42.27-1.92,1-4.52,2.2s-3.76,1.74-3.77,1.77-.34,2.07-.85,5.93c3.79-2.66,6.32-4,7.57-4a.67.67,0,0,1,.54.21,7.16,7.16,0,0,1,1.19,1.82,7.71,7.71,0,0,1,.71,2l0,.25a1.76,1.76,0,0,1,0,.19.66.66,0,0,1-.13.44c-.29.36-2.05,1.33-5.26,2.93q-4.57,2.28-5.39,2.28a.2.2,0,0,1-.11,0q-3-1.16-3.29-2.79v-.09A2.66,2.66,0,0,1,286.48,509.55Z" transform="translate(-18 -19.49)"/><path d="M306.06,485.32c1-.07,2.21-.1,3.74-.1s3.33,0,5.42.1a9.93,9.93,0,0,1,1.27,3.44c0,.28.08.53.13.77l0,.58v.11q0,.58-.21.75a5.23,5.23,0,0,1-3,.63l-.69,0q-2.29,13.17-2.3,15v.18l0,0a.15.15,0,0,0,0,.07.86.86,0,0,0,.4.07,13.9,13.9,0,0,0,2.9-.54l0,.19a11.26,11.26,0,0,1,.15,1.53v.68c-.1,1.63-.6,2.5-1.51,2.63q-2,.27-9.3,1.37l0-.28c0-.31,0-.61,0-.89,0-.55,0-1.06,0-1.53.09-1.81.36-2.74.84-2.79h1.28a1.23,1.23,0,0,0,1.13-.51,39.87,39.87,0,0,0,1.22-6.29q.9-5.78,1.17-9.06v0c0-.17-.37-.26-1-.26a28.26,28.26,0,0,0-4.1.44c.13-1.22.27-2.44.43-3.65C304.45,486.25,305.09,485.38,306.06,485.32Z" transform="translate(-18 -19.49)"/><path d="M327.41,497.6c.35-.18.77-.35,1.24-.54a20.61,20.61,0,0,0,7.35-2.14.75.75,0,0,1,.4-.12c.3,0,.72,1.11,1.27,3.33-.26,1.92-.5,2.94-.71,3.05-.54.24-1.06,1.24-1.54,3a25.73,25.73,0,0,1-1.82,5.09c-1.31,2.32-3.11,3.49-5.39,3.49a8.53,8.53,0,0,1-4.12-1.19,9.34,9.34,0,0,1-2.73-2.16,11.34,11.34,0,0,1-2.07-5.19c-.08-.42-.13-.84-.18-1.28-.07-.72-.11-1.49-.11-2.3a30.13,30.13,0,0,1,.29-4,23.54,23.54,0,0,1,1-4.93,11.73,11.73,0,0,1,4.82-6.16,8.79,8.79,0,0,1,4.68-1.47,3.15,3.15,0,0,1,.44,0c1.28,0,2.61.87,4,2.46a17,17,0,0,1,1.67,2.42c-.21.44-.38.78-.5,1.05-.4.82-.72,1.45-.95,1.88l-.44.56v-.05a.15.15,0,0,0,0-.07c-.09-.51-1.05-1.54-2.89-3.09a10,10,0,0,0-2.74.58,9,9,0,0,0-2,1.42,11.9,11.9,0,0,0-2.36,2.63,22.8,22.8,0,0,0-1.51,3.16,9.61,9.61,0,0,0-.64,3.44c0,.31,0,.63,0,1s.05.41.09.65a7.74,7.74,0,0,0,2.15,4.32,5.4,5.4,0,0,0,3.95,1.75q1.75,0,3.14-3.05a9.29,9.29,0,0,0,1-3.7c0-.12,0-.24,0-.35l0-.2a12.73,12.73,0,0,0-3.1.6,2.68,2.68,0,0,1-.62.07,2.24,2.24,0,0,1-1.75-.86,3.09,3.09,0,0,1-.77-1.54.32.32,0,0,1,0-.14v-.07a.49.49,0,0,1,0-.2C326.14,498.41,326.59,498,327.41,497.6Z" transform="translate(-18 -19.49)"/><path d="M345.29,500.39c-.17,1.33-.35,2.76-.54,4.3a28.89,28.89,0,0,1-1,6.77c-.34.86-.63,1.3-.86,1.3a2.78,2.78,0,0,1-1.59-.51,2.65,2.65,0,0,1-1.19-1.82,1.89,1.89,0,0,1-.05-.23,3,3,0,0,1,0-.42v-.14a6.93,6.93,0,0,1,0-.77q.17-1.37,1.8-11.9,1.89-11,2.39-12a.54.54,0,0,1,.49-.33q.63,0,1.68,1.35a5.75,5.75,0,0,1,1.07,1.81v0s0,0,0,0h-.05c-.26,0-.78,2.74-1.54,8.21h0a48.21,48.21,0,0,1,5.69-.65c.17-1.92.32-3.85.47-5.77,0-2.09.19-3.2.5-3.32a4.66,4.66,0,0,1,1.49-.31,1.44,1.44,0,0,1,1.61,1.24c0,.09,0,.19,0,.3,0,.4.06.8.07,1.19s0,.7,0,1c0,.72,0,1.43-.06,2.14a9.33,9.33,0,0,1-.27,2q-.45,3.46-.91,6.94c-.65,4.85-1,7.85-1,9v.21q-.32.86-.66,1.74c-.18.48-.47.72-.86.72a.73.73,0,0,1-.25,0c-.69-.14-1.18-.86-1.46-2.14q.44-5.22.88-10.51l-1.9.2C347.58,500.25,346.22,500.36,345.29,500.39Z" transform="translate(-18 -19.49)"/><path d="M372.64,485.36c.43.08.8,1,1.11,2.86.09.47.15.86.18,1.19a4.07,4.07,0,0,1,0,.56.7.7,0,0,1-.09.44q-.22.25-5.26,1a5.91,5.91,0,0,0-.88,1.62l0,.05q-1,1.35-1.9,9.16-.4,4.18-.8,8.38c-.61,1.39-1.17,2.09-1.68,2.09s-1.1-.7-1.62-2.09a1.87,1.87,0,0,1-.08-.28.83.83,0,0,1,0-.24,5.72,5.72,0,0,1-.05-.79,69.27,69.27,0,0,1,.85-8.35q1.14-8.17,1.52-8.18h0l.08-.12a3.27,3.27,0,0,0-.29-.42,1.23,1.23,0,0,1-.22-.23l-1.69.23a3.94,3.94,0,0,0-2.14.84.19.19,0,0,1-.13.07c-.4,0-.85-1.4-1.33-4.21,0-.36-.08-.6-.09-.74l0-.14,5.73-1.44a39.49,39.49,0,0,1,8-1.35A5.82,5.82,0,0,1,372.64,485.36Z" transform="translate(-18 -19.49)"/><path d="M392.7,489.9c0,.12,0,.24.05.35s0,.29,0,.42a3.11,3.11,0,0,1-.39,1.58,1.63,1.63,0,0,1-1.37,1c-.8,0-1.37-.71-1.71-2.12a2.5,2.5,0,0,0-1.4-1.46,5.12,5.12,0,0,0-2.48-.66,2.54,2.54,0,0,0-2,.73q-1.06.93-2.13,1.83a3.17,3.17,0,0,0-1.13,2.21v.37l0,.17c.18.73,1.09,1.09,2.74,1.09.3,0,1.36-.06,3.19-.19h.59q5.17,0,6.27,6.63c.07.39.14.88.19,1.47l0,.46a4.36,4.36,0,0,1,0,.51,8.61,8.61,0,0,1-2.14,5.35,7.25,7.25,0,0,1-5.75,3.12A9.69,9.69,0,0,1,376.8,508a.45.45,0,0,1-.11-.24v-.16a3.31,3.31,0,0,1,.87-1.81c.64-.84,1.18-1.26,1.63-1.26a.47.47,0,0,1,.47.42q.75,2.53,6.3,3.05l.43,0a2.49,2.49,0,0,0,2.4-1.37,8,8,0,0,0,.61-3.61c0-.31,0-.63,0-1v-.19c-.14-.76-.86-1.34-2.17-1.74a14.28,14.28,0,0,0-4-.49,6.51,6.51,0,0,0-2.49.28,1,1,0,0,1-.48.09,3.9,3.9,0,0,1-2.2-.79,3.06,3.06,0,0,1-1.48-2l0-.07c0-.23-.05-.46-.07-.67a14,14,0,0,1-.1-1.68,10.55,10.55,0,0,1,.33-2.74,8,8,0,0,1,1.49-3.05c.64-.68,1.27-1.36,1.89-2.05a5.46,5.46,0,0,1,2.29-1.3,10.88,10.88,0,0,1,3.77-.7,6.31,6.31,0,0,1,6.15,3.52A5,5,0,0,1,392.7,489.9Z" transform="translate(-18 -19.49)"/><path d="M399.38,503.94a4.35,4.35,0,0,1,2.23,3.24v.18c0,.14,0,.29,0,.44a5.84,5.84,0,0,1-.13,1.19l-.29.93a9.94,9.94,0,0,1-1.1,1.88,2.5,2.5,0,0,1-1.69,1,1.94,1.94,0,0,1-1.1-.35,4.8,4.8,0,0,1-1.58-2.91l-.06-.44c0-.2,0-.39,0-.58a4,4,0,0,1,.4-1.81l.88-1.66.09-.18a2,2,0,0,1,1.49-1A3.64,3.64,0,0,1,399.38,503.94Zm-.58-14.11c.07-.58.37-3.92.91-10.05.18-.73,1-1.09,2.45-1.09.39,0,1.21.05,2.48.14.73.05,1.36.07,1.87.07l.66,0h.08a1.15,1.15,0,0,1,1.22,1.09l0,.18c0,.13,0,.26,0,.4q0,2.91-3.6,10.14-2.24,8.12-2.23,9.44v.16a.19.19,0,0,0,.05.12.05.05,0,0,1,0,0c0,.09-.38.14-1.13.14s-1.52,0-2.61-.1l-1.43-.09a10.71,10.71,0,0,0,.58-3.58C398.5,493,398.7,490.62,398.8,489.83Z" transform="translate(-18 -19.49)"/><path d="M421.72,551.32c-1.17-.11-1.83-.49-2-1.14a.36.36,0,0,1,0-.11.91.91,0,0,1,0-.17c0-.09,0-.19,0-.29q.44-2,3.79-6.36t4.36-4.32h.19l.32,0,.33,0a2.12,2.12,0,0,1,1.2.68,3,3,0,0,1,.56,1.34c.14.55.27,1.2.38,1.93.16,1.11.29,2.43.4,4,.08,1.22.12,2.15.12,2.78s0,1-.12,1a1.8,1.8,0,0,1-.91.18,1.22,1.22,0,0,1-1-.32,1.59,1.59,0,0,1-.14-.34q0-.09,0-.21a3.8,3.8,0,0,1-.05-.62c0-.15,0-.31,0-.47a7.55,7.55,0,0,0-1.81-.21,9.32,9.32,0,0,0-2.75.42,5.52,5.52,0,0,0-1.73.79Zm3.15-4.77,3.23-.21c.46-.28.69-.49.69-.62v0s-.05-.37-.13-1c0-.33-.07-.61-.1-.84a4.86,4.86,0,0,0-.1-.52c0-.16-.07-.25-.11-.26a1.12,1.12,0,0,0-.43-.1c-.56,0-1.15.44-1.77,1.31A18.73,18.73,0,0,0,424.87,546.55Z" transform="translate(-18 -19.49)"/><path d="M438.79,538a5.51,5.51,0,0,1,.95-.07,8.78,8.78,0,0,1,2.93.48,4.68,4.68,0,0,1,2.64,2,.81.81,0,0,1,.11.27.38.38,0,0,1,0,.1,1.11,1.11,0,0,1,0,.19,3.63,3.63,0,0,1-1.19,2.18,13.63,13.63,0,0,1-3.35,2.58,10.08,10.08,0,0,1-3.91,1.38,6.42,6.42,0,0,0-.63,1.61,13.13,13.13,0,0,1-.76,2,1.16,1.16,0,0,1-1,.6,2,2,0,0,1-1.28-.58,2,2,0,0,1-.68-1v-.09a.13.13,0,0,1,.05-.12q1-.58,1.89-4c.27-1.25.54-2.5.8-3.74a.9.9,0,0,0,0-.25,3.15,3.15,0,0,0,0-.4c0-.12-.05-.26-.08-.41s-.11-.51-.14-.7a1.87,1.87,0,0,1,0-.37v-.08C435.18,539.06,436.39,538.51,438.79,538Zm-1.13,6.51a5.52,5.52,0,0,0,1.69-.42,5.45,5.45,0,0,0,1.61-.82,13.11,13.11,0,0,0,1.35-1.26c.57-.61.86-1,.86-1.29v-.08a.21.21,0,0,0,0-.07c-.21-.3-.93-.45-2.18-.45a3.37,3.37,0,0,0-2.6.74,10.59,10.59,0,0,0-.6,1.73,8.14,8.14,0,0,0-.37,1.7v.13C437.43,544.44,437.51,544.47,437.66,544.47Z" transform="translate(-18 -19.49)"/></svg>