<svg id="Layer_1" data-name="Layer 1" xmlns="http://www.w3.org/2000/svg" viewBox="0 0 876.97 625.72"><defs><style>.cls-1{fill:#fff;stroke:#000;stroke-miterlimit:10;stroke-width:6px;}</style></defs><path class="cls-1" d="M903,227V202.52C903,117,839.59,47,762.14,47H172.83C95.38,47,32,117,32,202.52V334c0,85.22,62.94,155,140,155.5l.41-.66-.41.66L67.26,661l289.6-171.47,1.14-.67-1.16.67h405.3c77.45,0,140.83-70,140.83-155.51V216" transform="translate(-29 -44)"/><path d="M220.91,158.59q-1,9.07-2.16,19.6a153.53,153.53,0,0,1-3.92,30.88c-1.4,4-2.56,5.94-3.46,5.94a10.13,10.13,0,0,1-6.33-2.29c-2.52-1.81-4.12-4.58-4.83-8.31q-.09-.51-.15-1.11a11.66,11.66,0,0,1-.15-1.86v-.68a33.56,33.56,0,0,1,.2-3.48q.7-6.28,7.24-54.3,7.53-50,9.54-54.82a2.09,2.09,0,0,1,1.91-1.52q2.56,0,6.73,6.19,3.83,5.78,4.27,8.23v.17c0,.11,0,.17-.1.17h-.2q-1.56,0-6.18,37.42h.15q15.27-2.72,22.76-3,.95-13.06,1.86-26.31.09-14.25,2-15.1a16.65,16.65,0,0,1,6-1.36q5.42,0,6.38,5.6c.06.4.13.85.2,1.36.13,1.81.21,3.62.25,5.43,0,1.59,0,3.17,0,4.75,0,3.23-.09,6.48-.25,9.76q-.56,8-1.06,9.25Q259.85,145,258,160.79q-3.91,33.18-3.91,41.15v.77l0,.17q-1.26,4-2.62,8-1.16,3.32-3.46,3.31a3,3,0,0,1-1-.17c-2.74-.68-4.69-3.93-5.82-9.75q1.76-23.85,3.51-48-3.36.51-7.58,1Q226.48,158.42,220.91,158.59Z" transform="translate(-29 -44)"/><path d="M270.49,203.3q.51-14.25,3.62-45.14,4.13-39.79,7.59-41.66,4-2.11,13.26-4.75,10.55-3.06,15.47-3c1.84,0,2.9.39,3.16,1.18a35.34,35.34,0,0,1,2.42,8.57c.06.51.11,1,.15,1.45,0,.62,0,1.16,0,1.61a6.23,6.23,0,0,1-1,3.9c-.73,1-5.21,2.21-13.41,3.73Q290,131.52,290,132.58c0,.71-.3,3.49-.8,8.36l-.7,6.19.25.51a67.48,67.48,0,0,1,7.08-2.37q7.74-2.39,11-2.38c1.34,0,2.1.28,2.29.85a33.43,33.43,0,0,0,2.48,4.45,16.26,16.26,0,0,1,2.47,5.48v.67a2.57,2.57,0,0,1-1.06,2.21q-2,1.53-14.47,8.06-12,6.28-12,6.45-.25.51-2.72,21.64,18.19-14.59,24.22-14.6a2,2,0,0,1,1.71.77,26.09,26.09,0,0,1,3.81,6.61,30.44,30.44,0,0,1,2.26,7.3c0,.34.07.65.1.93a5.21,5.21,0,0,1,.06.68,2.6,2.6,0,0,1-.41,1.62q-1.39,2-16.83,10.69Q284.06,215,281.44,215a.78.78,0,0,1-.35-.08q-9.64-4.25-10.5-10.19l0-.33C270.51,204.07,270.49,203.7,270.49,203.3Z" transform="translate(-29 -44)"/><path d="M338.16,112.34c1.37,0,3.21,1.65,5.53,4.93,2.14,3,3.34,5.26,3.61,6.61v.17c0,.06,0,.09-.05.09h-.15q-1.8,0-7.74,62.79c0,.51-.05,1-.05,1.52v.94a3.24,3.24,0,0,0,.11.76l.05.42c.23,1.08.77,1.62,1.6,1.62l4.22-.09c3-.56,5.28-.93,6.88-1.1,2.05-.23,3.15-2.09,3.32-5.6,0-.34.05-.71.05-1.1s0-.8-.05-1.19a18.83,18.83,0,0,0-.25-2.29l-.05-.43a8.78,8.78,0,0,1,4.72-1.27q4.92,0,6.83,2.89a2.35,2.35,0,0,1,.35,1l.1.43a6.61,6.61,0,0,1,.06.93c0,.4.05.85.05,1.36,0,1.7-.14,3.9-.41,6.62-.33,3.22-.65,6.45-.95,9.67q-.15,3.06-13.46,8.06a135.07,135.07,0,0,0-17.59,4.67,4.33,4.33,0,0,1-1.65.25,8,8,0,0,1-5.08-1.87,10.15,10.15,0,0,1-4.07-6.61c-.06-.29-.11-.57-.15-.85-.06-.51-.13-1-.2-1.53,0-.34-.05-.62-.05-.85a21.06,21.06,0,0,1,.15-2.46q.41-5,5.63-42.08,5.73-41.32,7.23-45.23A1.55,1.55,0,0,1,338.16,112.34Z" transform="translate(-29 -44)"/><path d="M403.11,110.73a14.69,14.69,0,0,1,4.37-.51A26.25,26.25,0,0,1,421.05,114q8.58,5.17,12.2,15.69a14.66,14.66,0,0,1,.56,2.12c0,.29.06.57.1.85a11.13,11.13,0,0,1,.1,1.45q0,6.94-5.53,17A81.34,81.34,0,0,1,413,171.23q-9.94,9.42-18,10.69-.54.17-3,12.64-2.65,13.83-3.47,15.78c-1.2,3.12-2.74,4.67-4.62,4.67s-3.88-1.53-5.92-4.58a17.86,17.86,0,0,1-3.17-7.38v-.68a1.3,1.3,0,0,1,.25-.93q4.68-4.59,8.74-31.4l3.72-29.19a16,16,0,0,0,.1-1.95c0-.9-.05-2-.15-3.14-.07-.9-.18-1.95-.35-3.14q-.45-3.3-.66-5.51c-.1-1.19-.15-2.15-.15-2.89v-.68Q386.5,117.1,403.11,110.73Zm-5.22,50.83q2.57,0,7.84-3.27t7.43-6.41a106.86,106.86,0,0,0,6.23-9.84q4-7.12,4-10.1v-.59a1.15,1.15,0,0,0-.15-.59q-1.41-3.48-10-3.48-9.2,0-12,5.77-.64,1.44-2.76,13.49a104.89,104.89,0,0,0-1.76,13.32v.51l.05.51C396.82,161.33,397.22,161.56,397.89,161.56Z" transform="translate(-29 -44)"/><path d="M507.55,86.13q2.67,0,5.83,3.05c1.77,2,2.78,3.68,3,5.09v.43a.89.89,0,0,1-.15.59q-1.61,1.62-6.08,33.69-3.41,24.95-3.41,38.35,0,3.55.25,6.36c.1.85.2,1.64.3,2.38q1,6.94,6.43,7,6.48,0,15-5.94,8-5.51,8-9.16v-.25l0-.34v-.51q0-5.43,6.13-37.08,6.33-32.84,8.39-39.29a2.57,2.57,0,0,1,2.56-2c1.91,0,4.23,1.46,7,4.37s4.25,5.28,4.52,7.09l0,.34v.17a1.24,1.24,0,0,1-.5,1.1q-4.73,3-9.8,49.13-3.41,31.82-3.41,47.09,0,4.25.25,7.21c.07.79.15,1.53.25,2.21l.1.67a18.51,18.51,0,0,1-6.58,1.28q-7.38,0-8.69-6.79a2.58,2.58,0,0,0-2.81-2.29q-5.28,0-23.41,14.08a3.34,3.34,0,0,1-2.21.85q-4.43,0-9.62-8.61a50.09,50.09,0,0,1-6.71-18.79c-.13-.85-.23-1.67-.3-2.47a11,11,0,0,1-.1-1.52,11.63,11.63,0,0,1-.05-1.28q0-8.22,4.27-41,1.24-10.26,6.33-47.43Q503.54,86.13,507.55,86.13Z" transform="translate(-29 -44)"/><path d="M625.25,131.61c0,.45.08.87.15,1.27,0,.56.05,1.07.05,1.53a12.57,12.57,0,0,1-1.25,5.76c-1.21,2.44-2.66,3.65-4.37,3.65q-3.87,0-5.48-7.72-.65-3-4.49-5.34a14.84,14.84,0,0,0-7.92-2.38,7.71,7.71,0,0,0-6.23,2.63q-3.4,3.39-6.83,6.7-3.61,4.08-3.61,8.06v.85l.05.51.1.6q.84,4,8.74,4,1.46,0,10.19-.67h1.91q16.53,0,20,24.18.35,2.11.6,5.34l.15,1.7a16.61,16.61,0,0,1,.1,1.87q0,9.66-6.83,19.51-8,11.37-18.39,11.37-17.78,0-27.53-17.22a1.69,1.69,0,0,1-.35-.85v-.6c0-1.69.92-3.9,2.77-6.61q3.06-4.59,5.22-4.59c.77,0,1.27.51,1.51,1.53q2.4,9.26,20.14,11.12a12,12,0,0,0,1.36.08,7.84,7.84,0,0,0,7.68-5q2-4.16,2-13.16c0-1.13,0-2.31-.1-3.56v-.68q-.65-4.16-6.93-6.36a40.89,40.89,0,0,0-12.91-1.78q-6.33,0-7.94,1a3,3,0,0,1-1.55.34c-2.22,0-4.56-1-7-2.88a11.19,11.19,0,0,1-4.72-7.3l0-.25c-.1-.85-.18-1.67-.25-2.46q-.3-3.14-.3-6.11a44.07,44.07,0,0,1,1.05-10,31.19,31.19,0,0,1,4.77-11.12q3.07-3.74,6-7.47,2-2.62,7.34-4.75a30.61,30.61,0,0,1,12-2.54q14,0,19.64,12.81A20.75,20.75,0,0,1,625.25,131.61Z" transform="translate(-29 -44)"/><path d="M212.52,362.7q-.15,2-.15,4c0,1.75.08,3.5.25,5.26.1,1.18.24,2.34.4,3.47A48.64,48.64,0,0,0,219.65,394a11.43,11.43,0,0,0,10.3,5.6,15,15,0,0,0,15-14.94,13.23,13.23,0,0,0-.1-1.61c0-.39-.08-.79-.15-1.19a12.68,12.68,0,0,0-.35-1.78l11.1-8.31a43.69,43.69,0,0,1,4.82,15.1c.11.79.19,1.56.26,2.29a27.13,27.13,0,0,1,.15,2.8,19.68,19.68,0,0,1-.41,4.16,34.11,34.11,0,0,1-12.1,19.77q-9.09,7.64-19.09,7.63a20.19,20.19,0,0,1-6.43-1q-7.69-2.81-13.66-15.45a96.86,96.86,0,0,1-7.79-27.32q-.55-3.81-.91-7.38c-.26-2.94-.4-5.74-.4-8.4a64.64,64.64,0,0,1,1.36-13.74q5-23.85,8.79-33.69,8.79-22.65,22-22.65,10.41,0,18.84,8.23,7.83,7.63,9.19,16.8v.17a17.91,17.91,0,0,1-3.86,11.2c-2.15,2.83-3.92,4.24-5.33,4.24a1.63,1.63,0,0,1-.9-.26q-6.09-20.36-15.73-20.36a9,9,0,0,0-1.71.17q-5.37.85-11.85,18.58A179.81,179.81,0,0,0,212.52,362.7Z" transform="translate(-29 -44)"/><path d="M327.71,356.84c.13,1,.25,2.07.35,3.14q.26,2.89.25,6,0,16.37-7.18,39.45-2.72,8.66-11.76,13.83a31.76,31.76,0,0,1-15.62,4.24,22,22,0,0,1-14.82-5.17q-7.59-6.54-9.59-20.11c-.3-2.15-.56-4.3-.76-6.45q-.4-4.67-.4-9.25a102.86,102.86,0,0,1,2-20q3.47-17.65,11.4-28.68,8.34-11.62,18.94-11.62,9.15,0,17,9.58T327.71,356.84Zm-40.79,46a13.24,13.24,0,0,0,8.69,3.23q8.38,0,16.23-18.33Q318,373.39,318,361.59c0-1.35,0-2.63-.15-3.81a20.59,20.59,0,0,0-.3-2.38,17.82,17.82,0,0,0-6.23-11.54,13.83,13.83,0,0,0-8.94-3.48q-11.35,0-17.73,15.95a62.71,62.71,0,0,0-4.47,23.76c0,2.15.1,4.39.3,6.7.13,1.53.32,3.12.55,4.76Q282.15,398.93,286.92,402.83Z" transform="translate(-29 -44)"/><path d="M348.86,422.69a12,12,0,0,1-4.12.84q-6.83,0-8.44-11-.19-1.19-.3-2.37a28.66,28.66,0,0,1-.15-3c0-.34,0-.71,0-1.1q5.93-70.68,6.63-70.68,1.26-5.61,10.3-9.42c4.25-1.92,7.18-2.89,8.79-2.89a1.47,1.47,0,0,1,.5.09q13.06,2.2,19.79,7.21,8.19,6.19,9.8,17.22.19,1,.3,2.13c.1,1.13.15,2.32.15,3.56,0,1.41-.07,2.86-.2,4.33q-1.9,21.56-14.82,44.46a35.61,35.61,0,0,1-10.35,11.54Q360.67,417.93,348.86,422.69Zm32.35-70.6c-1-5.14-3-8.74-5.83-10.77a8.48,8.48,0,0,0-4.87-1.62,5.42,5.42,0,0,0-1.31.17c-5.55.91-8.52,1.45-8.89,1.62-2.81,1.18-4.84,4-6.08,8.31q-1.16,4.33-4.82,45.65l.15,1.1a3.15,3.15,0,0,0,3.42,3.06,7.53,7.53,0,0,0,2-.34q2.76-.76,13.11-15.53A90.65,90.65,0,0,0,378,365.67q3.41-8.49,3.41-12.39a3.33,3.33,0,0,0-.05-.59Z" transform="translate(-29 -44)"/><path d="M399.7,411.83q.49-14.26,3.61-45.14,4.13-39.79,7.59-41.66,4-2.13,13.26-4.76,10.54-3,15.47-3c1.85,0,2.9.4,3.17,1.19a35.2,35.2,0,0,1,2.41,8.57q.1.76.15,1.44c0,.62.05,1.16.05,1.61a6.3,6.3,0,0,1-1,3.9q-1.11,1.45-13.42,3.74-11.81,2.37-11.85,3.43c0,.71-.3,3.5-.81,8.36l-.7,6.2.25.51a62.69,62.69,0,0,1,7.09-2.38q7.73-2.37,11-2.38c1.34,0,2.1.29,2.28.85a35.24,35.24,0,0,0,2.49,4.46,16.37,16.37,0,0,1,2.46,5.47v.68a2.55,2.55,0,0,1-1.05,2.2q-2,1.53-14.47,8.06-12,6.28-12.06,6.45-.26.51-2.71,21.64,18.18-14.6,24.21-14.6a2,2,0,0,1,1.71.77A26.29,26.29,0,0,1,442.7,394,31,31,0,0,1,445,401.3c0,.34.07.66.1.94s.05.51.05.68a2.59,2.59,0,0,1-.4,1.61q-1.41,2-16.83,10.69-14.62,8.31-17.23,8.31a.65.65,0,0,1-.35-.08q-9.65-4.24-10.5-10.18l-.05-.34A9.57,9.57,0,0,1,399.7,411.83Z" transform="translate(-29 -44)"/><path d="M488.91,381.87q20.1,14,22.71,28.26l.1.34V411a7.92,7.92,0,0,1,0,.85,11.33,11.33,0,0,1-1.56,5.34q-2.16,3.74-4.12,3.73c-.7,0-1.2-.53-1.5-1.61q-3-13.16-23.91-31.56a23.19,23.19,0,0,1-7.59,2.71q-.55.18-3,12.65-2.67,13.83-3.47,15.78-1.82,4.67-4.62,4.66c-1.91,0-3.89-1.52-5.93-4.58a17.83,17.83,0,0,1-3.16-7.38v-.68a1.31,1.31,0,0,1,.25-.93q4.67-4.59,8.74-31.4l3.72-29.18a18.66,18.66,0,0,0,.1-2c0-.9-.05-1.95-.15-3.13-.07-.91-.19-2-.36-3.14q-.45-3.31-.65-5.52-.15-1.78-.15-2.88v-.68q.15-6.45,16.78-12.81a14.64,14.64,0,0,1,4.37-.51,26.23,26.23,0,0,1,13.56,3.73q8.59,5.17,12.21,15.7a14.31,14.31,0,0,1,.55,2.12c0,.28.07.56.1.85a9.39,9.39,0,0,1,.1,1.44q0,7.47-6.23,18.41A81,81,0,0,1,488.91,381.87ZM474.8,369.4c.13.45.53.68,1.2.68q2.56,0,7.84-3.27a24.64,24.64,0,0,0,7.44-6.4,105.74,105.74,0,0,0,6.22-9.85q4-7.12,4-10.09v-.6a1.15,1.15,0,0,0-.15-.59q-1.41-3.48-10-3.48-9.19,0-12,5.77-.66,1.44-2.76,13.49a103.4,103.4,0,0,0-1.76,13.32v.51Z" transform="translate(-29 -44)"/><path d="M534.53,332.19c1.1-2.51,3.25-3.77,6.43-3.77a21.16,21.16,0,0,1,5.37.85c1.68.39,2.83,2.71,3.47,7,.1.73.18,1.49.25,2.29.1,1,.15,2,.15,3.05,0,.45,0,.91-.05,1.36-.1,2-.3,3.05-.6,3.05h-.1c-.07,0-.1.2-.1.6s0,.82,0,1.44q.35,3.14,1.55,11.62t3.57,22.49q15.72-42.67,30.34-61.77,10.9,8.06,11.21,10v.17c0,.17-.14.31-.41.42q-1.9.44-4.72,42.43-2.61,35.81-2.61,45c0,.62,0,1.16,0,1.61v.17c0,1.24-.47,1.87-1.41,1.87q-3.66,0-11.65-8.15a5.25,5.25,0,0,1-.76-2.29q-.09-.68-.15-1.44c-.13-1.59-.2-3.51-.2-5.77q0-10.28,1.76-30.55l-2.11-3.39q-10.9,22-11.8,27.24-2.16,13.06-3.27,16.2-1.56,4-5,4a12.2,12.2,0,0,1-1.86-.17q-5.58-.76-6.78-9.16a15.29,15.29,0,0,1-.2-2q-.4-4.16-.46-12.13-.6-12.14-1.15-18.5l-.1-1c0-.45-.07-.87-.1-1.27,0-.57-.1-1.16-.2-1.78q-.85-5.77-4.32-5.77-1.3,0-4.78,24.6-4.11,28.68-4.52,30.38c-.33,1.7-.95,2.54-1.86,2.54-1.23,0-2.61-1.44-4.11-4.32a30.74,30.74,0,0,1-3.07-9.85c-.1-.67-.18-1.35-.25-2-.07-.85-.1-1.64-.1-2.38v-.59q.11-7.12,6.68-38.35Q532.88,336,534.53,332.19Z" transform="translate(-29 -44)"/><path d="M613,423.53q-8.09-1.35-9.24-8.91c0-.28-.07-.56-.1-.84s0-.82,0-1.28c0-.79,0-1.58.1-2.37q2-15.36,17.48-49.55,15.33-33.78,20.2-33.77h.1a4.17,4.17,0,0,0,.75.08,4.53,4.53,0,0,0,1.46-.25c.87-.12,1.39-.17,1.56-.17q2.06,0,5.52,5.26,1.37,2.11,2.56,10.52,1,6.45,1.81,15,1.11,13,1.81,31,.6,14.34.6,21.72c0,5-.2,7.63-.6,8a5.43,5.43,0,0,1-4.17,1.45q-3.46,0-4.57-2.46a18,18,0,0,1-.65-2.72c0-.45-.09-1-.15-1.61-.14-1.41-.21-3-.21-4.84,0-1.13,0-2.37.1-3.73a22.12,22.12,0,0,0-8.38-1.61,26.93,26.93,0,0,0-12.71,3.31,24.05,24.05,0,0,0-8,6.11Zm14.57-37.24,14.92-1.62q3.16-3.3,3.17-4.83v-.26c0-.17-.22-2.8-.56-7.89q-.24-3.9-.5-6.53c-.17-1.75-.32-3.11-.45-4.07a4.8,4.8,0,0,0-.5-2,3.3,3.3,0,0,0-2-.76q-3.87,0-8.19,10.18Q631.17,374.06,627.56,386.29Z" transform="translate(-29 -44)"/><path d="M677.09,328.25a6,6,0,0,0,2.29-1.74c1-1.05,1.83-1.57,2.44-1.57s1.32.54,2,1.61q3,4.59,9.14,25.2,5.52,18.17,9.79,36c.1.34.19.51.25.51q.91,0,4.28-32.67t4.57-32.92a7.22,7.22,0,0,1,1.55-.17,11.71,11.71,0,0,1,4.52,1.1c2.85,1.25,4.44,3,4.78,5.18v.34q0,4.25-6,43.61Q711,409.28,711,414.2V415a.91.91,0,0,1,.2.6v.34a2.77,2.77,0,0,1-.8,1.78,3.07,3.07,0,0,1-2.51,1.19q-4.12,0-7.39-8.4-.75-2-8.64-27.32-6.08-19.35-7.78-19.35H684c-1.18.17-2,1.33-2.41,3.48-.27,1.41-.51,2.86-.71,4.33q-.35,1.51-2.36,24.86-1.71,20.44-1.71,24.77v1.11c0,.79-.67,1.18-2,1.18a8,8,0,0,1-5.62-2.54,15.06,15.06,0,0,1-4-8.83l-.1-.59Q667,390.78,669,370.08,673.53,329,677.09,328.25Z" transform="translate(-29 -44)"/><path d="M742.1,391.38q6,3.81,7.13,11.79l0,.68c0,.51.05,1,.05,1.61a25.9,25.9,0,0,1-.4,4.33l-.95,3.39a37,37,0,0,1-3.52,6.88q-2.72,3.39-5.38,3.47a5.52,5.52,0,0,1-3.51-1.27,18.22,18.22,0,0,1-5.07-10.6q-.11-.86-.21-1.62c-.06-.73-.1-1.44-.1-2.12a16.42,16.42,0,0,1,1.26-6.62l2.81-6,.3-.68q2.27-3.56,4.78-3.65A9,9,0,0,1,742.1,391.38Zm-1.86-51.51q.35-3.14,2.91-36.65.86-4,7.84-4,1.86,0,7.94.51,3.51.25,6,.26c.8,0,1.5,0,2.11-.09h.25q3.26,0,3.92,4l0,.68c0,.45,0,.93,0,1.44q0,10.61-11.51,37-7.12,29.61-7.13,34.45v.43l.05.17a.71.71,0,0,0,.15.42.22.22,0,0,1,.1.17c0,.34-1.21.51-3.62.51q-3.11,0-8.34-.34c-1.24-.11-2.76-.23-4.57-.34q1.16-2,1.86-13.07Q739.8,344.2,740.24,339.87Z" transform="translate(-29 -44)"/></svg>