<svg id="Layer_1" data-name="Layer 1" xmlns="http://www.w3.org/2000/svg" viewBox="0 0 876.97 567.37"><defs><style>.cls-1{fill:#fff;stroke:#000;stroke-miterlimit:10;stroke-width:6px;}</style></defs><path class="cls-1" d="M32,200V306.91c0,77.44,63.38,140.82,140.83,140.82h405.3l-1.16-.61,1.14.61L867.71,603,763,447.72l-.41-.6.41.6c77.07-.43,140-63.64,140-140.81V187.83C903,110.38,839.59,47,762.14,47H172.83C95.38,47,32,110.38,32,187.83V210" transform="translate(-29 -44)"/><path d="M218.62,247.25q18.85,13.2,21.31,26.51l.08.38,0,.44a6.62,6.62,0,0,1,0,.77,10.5,10.5,0,0,1-1.47,5q-2,3.51-3.88,3.51c-.66,0-1.12-.51-1.4-1.53q-2.79-12.3-22.44-29.63a21.86,21.86,0,0,1-7.13,2.61q-.49.14-2.75,11.85-2.53,12.94-3.29,14.78-1.69,4.39-4.33,4.4t-5.55-4.27a17.33,17.33,0,0,1-3-6.94v-.64a1.36,1.36,0,0,1,.23-.89q4.38-4.33,8.22-29.5,1.74-13.69,3.47-27.39a11.84,11.84,0,0,0,.11-1.79c0-.85,0-1.82-.15-2.93-.07-.89-.18-1.89-.34-3q-.41-3.06-.6-5.16c-.1-1.1-.15-2-.15-2.68v-.63q.15-6.06,15.77-12a13,13,0,0,1,4.11-.51,24.52,24.52,0,0,1,12.71,3.5q8.07,4.85,11.47,14.78a13.83,13.83,0,0,1,.49,2c.05.26.08.51.11.77a11.42,11.42,0,0,1,.07,1.34q0,7-5.84,17.33A76.34,76.34,0,0,1,218.62,247.25Zm-13.24-11.72c.13.43.5.64,1.13.64q2.42,0,7.36-3.06a23.45,23.45,0,0,0,7-6,99.25,99.25,0,0,0,5.84-9.24q3.74-6.69,3.74-9.49v-.57a2.46,2.46,0,0,0-.15-.51q-1.32-3.26-9.43-3.25-8.64,0-11.28,5.35-.6,1.41-2.6,12.68a98,98,0,0,0-1.63,12.49v.51Z" transform="translate(-29 -44)"/><path d="M246,277.58q.38-10.71,2.72-33.89,3.09-29.88,5.69-31.28a53.83,53.83,0,0,1,10-3.57q7.92-2.29,11.62-2.3,2.07,0,2.37.9a26.09,26.09,0,0,1,1.81,6.43q.07.57.12,1.08c0,.47,0,.88,0,1.21a4.68,4.68,0,0,1-.72,2.93q-.82,1.09-10.07,2.81-8.86,1.78-8.9,2.58t-.61,6.27l-.53,4.65.19.39a49.15,49.15,0,0,1,5.32-1.79,33,33,0,0,1,8.26-1.78c1,0,1.58.21,1.72.64a25.34,25.34,0,0,0,1.87,3.34,12.24,12.24,0,0,1,1.84,4.11v.51a1.93,1.93,0,0,1-.79,1.66c-1,.76-4.63,2.78-10.86,6.05q-9,4.71-9,4.84-.19.38-2,16.25,13.65-11,18.18-11a1.47,1.47,0,0,1,1.28.57,19.81,19.81,0,0,1,2.87,5,23.45,23.45,0,0,1,1.7,5.48c0,.25.05.49.07.7a3.64,3.64,0,0,1,0,.51,2,2,0,0,1-.3,1.21q-1.06,1.47-12.64,8-11,6.24-12.94,6.24a.55.55,0,0,1-.26-.06q-7.25-3.19-7.88-7.65l0-.25A7.21,7.21,0,0,1,246,277.58Z" transform="translate(-29 -44)"/><path d="M293.08,286.37q-6.07-1-6.94-6.69c0-.21-.05-.42-.08-.64s0-.61,0-1c0-.6,0-1.19.08-1.79q1.5-11.52,13.13-37.2,11.49-25.35,15.16-25.36h.07a2.34,2.34,0,0,0,.57.07,3.57,3.57,0,0,0,1.09-.19c.66-.09,1.05-.13,1.17-.13,1,0,2.42,1.32,4.15,3.95q1,1.59,1.92,7.9.76,4.84,1.36,11.27.84,9.75,1.36,23.26.45,10.77.45,16.31t-.45,6a4.11,4.11,0,0,1-3.13,1.08c-1.74,0-2.88-.62-3.43-1.85a13.35,13.35,0,0,1-.49-2c0-.34-.07-.74-.12-1.21q-.15-1.59-.15-3.63c0-.85,0-1.78.08-2.8a16.55,16.55,0,0,0-6.3-1.21A20.2,20.2,0,0,0,303,273a18.13,18.13,0,0,0-6,4.59Zm10.94-28,11.2-1.21q2.37-2.48,2.37-3.63v-.19c0-.13-.16-2.1-.41-5.93-.13-1.95-.25-3.58-.38-4.9s-.24-2.34-.34-3.06a3.37,3.37,0,0,0-.38-1.53,2.47,2.47,0,0,0-1.5-.57q-2.91,0-6.15,7.64Q306.74,249.24,304,258.4Z" transform="translate(-29 -44)"/><path d="M339.81,249.8c-.08.85-.11,1.66-.11,2.42,0,1.07.05,2.13.15,3.19.07.68.16,1.36.26,2a29.71,29.71,0,0,0,4,11.21,6.88,6.88,0,0,0,6.19,3.31,9,9,0,0,0,9-8.92,7,7,0,0,0-.07-1c0-.21-.05-.44-.08-.7a9.87,9.87,0,0,0-.22-1.08l6.67-5a26.33,26.33,0,0,1,2.91,9c0,.51.1,1,.15,1.4.05.59.07,1.15.07,1.66a13.21,13.21,0,0,1-.22,2.54,20.64,20.64,0,0,1-7.28,11.85,17.64,17.64,0,0,1-11.47,4.59,11.54,11.54,0,0,1-3.89-.64q-4.59-1.65-8.18-9.23A59.08,59.08,0,0,1,333,260.06c-.22-1.53-.41-3-.56-4.4-.15-1.78-.23-3.48-.23-5.09a38.27,38.27,0,0,1,.83-8.22q3-14.34,5.28-20.26,5.28-13.58,13.16-13.57a15.87,15.87,0,0,1,11.32,4.9,17.71,17.71,0,0,1,5.54,10.13v.07a10.72,10.72,0,0,1-2.33,6.75q-1.94,2.55-3.21,2.55a.78.78,0,0,1-.53-.19q-3.66-12.24-9.47-12.23a4.55,4.55,0,0,0-1,.12q-3.21.51-7.13,11.15A108.17,108.17,0,0,0,339.81,249.8Z" transform="translate(-29 -44)"/><path d="M387,252.48c-.41,3.65-.83,7.58-1.29,11.78a90.41,90.41,0,0,1-2.37,18.54c-.83,2.38-1.53,3.57-2.08,3.57a6.17,6.17,0,0,1-3.81-1.4,7.31,7.31,0,0,1-2.86-5c0-.21-.09-.42-.12-.64a8.72,8.72,0,0,1-.07-1.14v-.39c0-.68,0-1.38.11-2.1q.42-3.75,4.34-32.62,4.53-30,5.73-32.93a1.3,1.3,0,0,1,1.17-.9c1,0,2.35,1.24,4,3.7a15.82,15.82,0,0,1,2.56,5V218c0,.09,0,.13-.07.13h-.12q-.95,0-3.69,22.49h.07a101.11,101.11,0,0,1,13.66-1.79q.6-7.89,1.13-15.8.07-8.59,1.2-9.11a9.78,9.78,0,0,1,3.59-.82q3.28,0,3.85,3.37c0,.26.06.53.11.83.07,1.11.12,2.19.15,3.25s0,1.93,0,2.87q0,2.92-.15,5.86a31.14,31.14,0,0,1-.65,5.54q-1.08,9.49-2.18,19Q407,273.76,407,278.53V279l0,.13c-.51,1.57-1,3.16-1.59,4.78-.45,1.31-1.14,2-2.07,2a1.52,1.52,0,0,1-.61-.13c-1.66-.38-2.82-2.33-3.5-5.86q1-14.26,2.11-28.79l-4.57.57C392.49,252.12,389.23,252.39,387,252.48Z" transform="translate(-29 -44)"/><path d="M466.81,217.79q1.24-2.83,4.83-2.84a16.25,16.25,0,0,1,4,.64q1.89.45,2.6,5.22c.08.56.14,1.13.19,1.73a21.81,21.81,0,0,1,.12,2.29c0,.34,0,.68,0,1-.08,1.53-.23,2.29-.45,2.29H478c-.05,0-.08.15-.08.45s0,.61,0,1.08q.27,2.36,1.17,8.73t2.68,16.88q11.81-32,22.78-46.38,8.19,6.06,8.41,7.52v.13c0,.12-.1.23-.3.32q-1.43.31-3.54,31.85-2,26.88-2,33.76c0,.47,0,.87,0,1.21v.13c0,.94-.35,1.4-1.05,1.4q-2.76,0-8.75-6.11a3.83,3.83,0,0,1-.57-1.72c-.05-.34-.09-.7-.11-1.09-.1-1.18-.15-2.63-.15-4.33q0-7.71,1.32-22.93l-1.59-2.55q-8.19,16.5-8.86,20.45A101.4,101.4,0,0,1,485,279.11q-1.17,3-3.78,3a8.35,8.35,0,0,1-1.39-.13q-4.19-.57-5.09-6.88a10.14,10.14,0,0,1-.15-1.53c-.21-2.08-.32-5.11-.34-9.11-.31-6.07-.59-10.7-.87-13.88l-.08-.77c0-.34-.05-.66-.07-1s-.08-.87-.15-1.34q-.64-4.33-3.25-4.33-1,0-3.58,18.47-3.09,21.54-3.39,22.81c-.26,1.27-.72,1.91-1.4,1.91q-1.39,0-3.09-3.25a23,23,0,0,1-2.3-7.39c-.08-.51-.14-1-.19-1.53s-.08-1.23-.08-1.78V272q.07-5.36,5-28.79Q465.56,220.62,466.81,217.79Z" transform="translate(-29 -44)"/><path d="M518.67,277.58q.38-10.71,2.72-33.89,3.09-29.88,5.69-31.28a53.83,53.83,0,0,1,10-3.57q7.92-2.29,11.62-2.3,2.07,0,2.37.9a26.09,26.09,0,0,1,1.81,6.43q.07.57.12,1.08c0,.47,0,.88,0,1.21a4.69,4.69,0,0,1-.71,2.93q-.84,1.09-10.07,2.81-8.87,1.78-8.9,2.58t-.61,6.27l-.53,4.65.19.39a49.15,49.15,0,0,1,5.32-1.79,33,33,0,0,1,8.26-1.78c1,0,1.58.21,1.72.64a26,26,0,0,0,1.86,3.34,12.11,12.11,0,0,1,1.85,4.11v.51a1.93,1.93,0,0,1-.79,1.66q-1.51,1.14-10.86,6.05-9,4.71-9.05,4.84-.2.38-2,16.25,13.65-11,18.18-11a1.48,1.48,0,0,1,1.28.57,19.81,19.81,0,0,1,2.87,5,23.45,23.45,0,0,1,1.7,5.48c0,.25.05.49.07.7a3.64,3.64,0,0,1,0,.51,2,2,0,0,1-.3,1.21q-1.07,1.47-12.64,8-11,6.24-12.94,6.24a.55.55,0,0,1-.26-.06q-7.25-3.19-7.88-7.65l0-.25A7.21,7.21,0,0,1,518.67,277.58Z" transform="translate(-29 -44)"/><path d="M603.42,286.37q-6.06-1-6.94-6.69c0-.21-.05-.42-.07-.64a9.39,9.39,0,0,1,0-1c0-.6,0-1.19.08-1.79q1.5-11.52,13.12-37.2,11.5-25.35,15.16-25.36h.08a2.34,2.34,0,0,0,.57.07,3.63,3.63,0,0,0,1.09-.19c.65-.09,1-.13,1.17-.13q1.54,0,4.15,3.95,1,1.59,1.92,7.9.75,4.84,1.36,11.27.82,9.75,1.36,23.26.45,10.77.45,16.31t-.45,6a4.11,4.11,0,0,1-3.13,1.08c-1.74,0-2.88-.62-3.43-1.85a14.47,14.47,0,0,1-.5-2c0-.34-.06-.74-.11-1.21q-.15-1.59-.15-3.63c0-.85,0-1.78.08-2.8a16.55,16.55,0,0,0-6.3-1.21,20.27,20.27,0,0,0-9.55,2.48,18.19,18.19,0,0,0-6,4.59Zm10.94-28,11.2-1.21q2.38-2.48,2.38-3.63v-.19c0-.13-.16-2.1-.41-5.93-.13-1.95-.26-3.58-.38-4.9s-.24-2.34-.34-3.06a3.53,3.53,0,0,0-.38-1.53,2.48,2.48,0,0,0-1.51-.57q-2.89,0-6.14,7.64Q617.07,249.24,614.36,258.4Z" transform="translate(-29 -44)"/><path d="M677.28,211.32q1.54.33,2.68,7.84c.2,1.27.33,2.36.41,3.25a11.42,11.42,0,0,1,.11,1.53,2.09,2.09,0,0,1-.22,1.21q-.54.71-12.64,2.86-2.11,3.77-2.11,4.46c0,.05,0,.09.07.13q-2.34,3.69-4.56,25.1-1,11.48-1.92,22.94-2.19,5.73-4,5.73c-1.33,0-2.63-1.91-3.88-5.73a4.33,4.33,0,0,1-.19-.77,2.27,2.27,0,0,1-.08-.64,18.62,18.62,0,0,1-.11-2.16q0-6.49,2-22.87,2.74-22.42,3.65-22.43h0c.08-.12.14-.23.19-.32a6.94,6.94,0,0,0-.68-1.14,3.23,3.23,0,0,1-.53-.64c-1.56.21-2.91.43-4.07.64-2.82.63-4.53,1.4-5.13,2.29-.13.13-.23.19-.3.19q-1.47,0-3.21-11.53c-.12-1-.2-1.66-.22-2l0-.38,13.76-4q13.44-3.69,19.09-3.69A12.49,12.49,0,0,1,677.28,211.32Z" transform="translate(-29 -44)"/><path d="M695.08,262.23a11.94,11.94,0,0,1,5.36,8.85l0,.51c0,.38,0,.79,0,1.21a19.72,19.72,0,0,1-.3,3.25l-.72,2.55a27.73,27.73,0,0,1-2.64,5.16q-2,2.55-4,2.61a4.13,4.13,0,0,1-2.64-1,13.57,13.57,0,0,1-3.81-8,9.07,9.07,0,0,1-.15-1.21c-.05-.55-.08-1.08-.08-1.59a12.48,12.48,0,0,1,.94-5l2.12-4.52.22-.51c1.11-1.79,2.3-2.7,3.59-2.74A6.67,6.67,0,0,1,695.08,262.23Z" transform="translate(-29 -44)"/><path d="M715.11,262.23a11.9,11.9,0,0,1,5.35,8.85l0,.51c0,.38,0,.79,0,1.21a19.72,19.72,0,0,1-.3,3.25l-.72,2.55a27.73,27.73,0,0,1-2.64,5.16c-1.36,1.7-2.7,2.57-4,2.61a4.12,4.12,0,0,1-2.63-1,13.57,13.57,0,0,1-3.81-8,11.2,11.2,0,0,1-.16-1.21c0-.55-.07-1.08-.07-1.59a12.31,12.31,0,0,1,.94-5l2.11-4.52.23-.51q1.66-2.68,3.58-2.74A6.69,6.69,0,0,1,715.11,262.23Z" transform="translate(-29 -44)"/><path d="M735.14,262.23a11.93,11.93,0,0,1,5.35,8.85l0,.51c0,.38,0,.79,0,1.21a19.72,19.72,0,0,1-.3,3.25l-.72,2.55a27.73,27.73,0,0,1-2.64,5.16c-1.36,1.7-2.7,2.57-4,2.61a4.17,4.17,0,0,1-2.64-1,13.68,13.68,0,0,1-3.81-8c-.07-.42-.12-.83-.15-1.21,0-.55-.07-1.08-.07-1.59a12.31,12.31,0,0,1,.94-5l2.11-4.52.23-.51c1.1-1.79,2.3-2.7,3.58-2.74A6.69,6.69,0,0,1,735.14,262.23Z" transform="translate(-29 -44)"/></svg>